<svg width="1440" height="3428" viewBox="0 0 1440 3428" fill="none" xmlns="http://www.w3.org/2000/svg" xmlns:xlink="http://www.w3.org/1999/xlink">
<g clip-path="url(#clip0_268_16)">
<rect width="1440" height="3428" fill="white"/>
<circle cx="1014" cy="576" r="200" stroke="#678DE5" stroke-width="2"/>
<circle cx="1014" cy="576" r="250" stroke="#678DE5" stroke-width="2"/>
<circle cx="1013.5" cy="575.5" r="162.5" fill="#678DE5"/>
<rect x="828" y="326" width="371" height="473" fill="url(#pattern0_268_16)"/>
<rect x="1042.5" y="650.5" width="247" height="109" rx="19.5" fill="#C5C5C5" fill-opacity="0.75" stroke="#678DE5"/>
<path d="M1146.52 681V668.1H1143.66V666.1H1148.86V681H1146.52ZM1158.01 681.24C1156.83 681.24 1155.79 680.92 1154.89 680.28C1154 679.627 1153.3 678.727 1152.79 677.58C1152.3 676.42 1152.05 675.073 1152.05 673.54C1152.05 671.993 1152.3 670.647 1152.79 669.5C1153.3 668.353 1153.99 667.46 1154.87 666.82C1155.77 666.18 1156.81 665.86 1157.99 665.86C1159.18 665.86 1160.21 666.18 1161.09 666.82C1161.99 667.46 1162.68 668.36 1163.17 669.52C1163.68 670.667 1163.93 672.007 1163.93 673.54C1163.93 675.073 1163.69 676.42 1163.19 677.58C1162.7 678.727 1162.01 679.627 1161.11 680.28C1160.23 680.92 1159.2 681.24 1158.01 681.24ZM1158.01 679.08C1158.75 679.08 1159.38 678.853 1159.91 678.4C1160.45 677.947 1160.86 677.307 1161.15 676.48C1161.45 675.653 1161.59 674.673 1161.59 673.54C1161.59 672.407 1161.45 671.427 1161.15 670.6C1160.86 669.773 1160.45 669.133 1159.91 668.68C1159.38 668.227 1158.74 668 1157.99 668C1157.26 668 1156.63 668.227 1156.09 668.68C1155.56 669.133 1155.15 669.773 1154.85 670.6C1154.56 671.427 1154.41 672.407 1154.41 673.54C1154.41 674.66 1154.56 675.64 1154.85 676.48C1155.15 677.307 1155.56 677.947 1156.09 678.4C1156.64 678.853 1157.28 679.08 1158.01 679.08ZM1166.69 681V666.1H1169.05V674.18L1168.43 673.94L1175.17 666.1H1178.11L1172.15 673.08L1172.27 671.4L1178.35 681H1175.57L1171.21 674.18L1169.05 676.7V681H1166.69ZM1184.01 681V676.98H1179.99V674.98H1184.01V671H1186.01V674.98H1189.99V676.98H1186.01V681H1184.01Z" fill="#678DE5"/>
<path d="M1110.73 704V692.08H1114.65C1115.83 692.08 1116.86 692.325 1117.74 692.816C1118.61 693.296 1119.29 693.984 1119.77 694.88C1120.25 695.765 1120.49 696.816 1120.49 698.032C1120.49 699.237 1120.25 700.288 1119.77 701.184C1119.29 702.08 1118.61 702.773 1117.74 703.264C1116.86 703.755 1115.83 704 1114.65 704H1110.73ZM1112.01 702.8H1114.65C1115.57 702.8 1116.36 702.608 1117.03 702.224C1117.7 701.829 1118.22 701.275 1118.58 700.56C1118.96 699.845 1119.14 699.003 1119.14 698.032C1119.14 697.061 1118.96 696.224 1118.58 695.52C1118.21 694.805 1117.69 694.256 1117.02 693.872C1116.34 693.477 1115.55 693.28 1114.65 693.28H1112.01V702.8ZM1122.43 704V695.424H1123.63V704H1122.43ZM1122.43 693.84V692.08H1123.63V693.84H1122.43ZM1126.08 704V691.888H1127.28V704H1126.08ZM1129.74 704V695.424H1130.94V704H1129.74ZM1129.74 693.84V692.08H1130.94V693.84H1129.74ZM1133.4 704V691.888H1134.6V697.088L1134.32 697.024C1134.54 696.469 1134.88 696.032 1135.36 695.712C1135.85 695.392 1136.42 695.232 1137.06 695.232C1137.67 695.232 1138.21 695.371 1138.69 695.648C1139.18 695.925 1139.57 696.309 1139.84 696.8C1140.13 697.28 1140.28 697.824 1140.28 698.432V704H1139.08V698.896C1139.08 698.373 1138.98 697.931 1138.79 697.568C1138.6 697.205 1138.33 696.928 1137.99 696.736C1137.66 696.533 1137.28 696.432 1136.85 696.432C1136.43 696.432 1136.04 696.533 1135.7 696.736C1135.36 696.928 1135.09 697.211 1134.88 697.584C1134.69 697.947 1134.6 698.384 1134.6 698.896V704H1133.4ZM1145.05 704.192C1144.5 704.192 1144.02 704.091 1143.59 703.888C1143.17 703.675 1142.83 703.387 1142.58 703.024C1142.34 702.661 1142.22 702.245 1142.22 701.776C1142.22 701.328 1142.31 700.923 1142.5 700.56C1142.7 700.187 1142.99 699.872 1143.4 699.616C1143.81 699.36 1144.32 699.179 1144.95 699.072L1148.31 698.512V699.6L1145.24 700.112C1144.62 700.219 1144.17 700.416 1143.9 700.704C1143.63 700.992 1143.5 701.333 1143.5 701.728C1143.5 702.112 1143.65 702.437 1143.94 702.704C1144.25 702.971 1144.65 703.104 1145.13 703.104C1145.71 703.104 1146.23 702.981 1146.66 702.736C1147.1 702.48 1147.44 702.139 1147.69 701.712C1147.93 701.285 1148.06 700.811 1148.06 700.288V698.112C1148.06 697.6 1147.87 697.184 1147.5 696.864C1147.12 696.544 1146.64 696.384 1146.04 696.384C1145.52 696.384 1145.06 696.517 1144.66 696.784C1144.27 697.04 1143.98 697.376 1143.78 697.792L1142.7 697.2C1142.86 696.837 1143.11 696.507 1143.45 696.208C1143.8 695.909 1144.2 695.675 1144.65 695.504C1145.1 695.323 1145.56 695.232 1146.04 695.232C1146.67 695.232 1147.22 695.355 1147.7 695.6C1148.19 695.845 1148.57 696.187 1148.84 696.624C1149.12 697.051 1149.26 697.547 1149.26 698.112V704H1148.06V702.288L1148.23 702.464C1148.08 702.784 1147.85 703.077 1147.53 703.344C1147.22 703.6 1146.85 703.808 1146.42 703.968C1146.01 704.117 1145.55 704.192 1145.05 704.192ZM1154.85 704.096C1154.08 704.096 1153.49 703.872 1153.07 703.424C1152.66 702.976 1152.45 702.336 1152.45 701.504V696.624H1150.86V695.424H1151.26C1151.63 695.424 1151.91 695.307 1152.13 695.072C1152.34 694.827 1152.45 694.523 1152.45 694.16V693.44H1153.65V695.424H1155.54V696.624H1153.65V701.504C1153.65 701.792 1153.69 702.048 1153.78 702.272C1153.86 702.485 1154.01 702.656 1154.21 702.784C1154.42 702.912 1154.7 702.976 1155.06 702.976C1155.14 702.976 1155.24 702.971 1155.36 702.96C1155.48 702.949 1155.58 702.939 1155.66 702.928V704C1155.54 704.032 1155.39 704.053 1155.23 704.064C1155.07 704.085 1154.94 704.096 1154.85 704.096ZM1160.49 707.2V695.424H1161.69V697.344L1161.5 697.008C1161.84 696.464 1162.29 696.032 1162.86 695.712C1163.43 695.392 1164.09 695.232 1164.83 695.232C1165.64 695.232 1166.36 695.429 1166.99 695.824C1167.63 696.208 1168.13 696.736 1168.49 697.408C1168.86 698.08 1169.05 698.848 1169.05 699.712C1169.05 700.565 1168.86 701.333 1168.49 702.016C1168.13 702.688 1167.63 703.221 1166.99 703.616C1166.36 704 1165.64 704.192 1164.83 704.192C1164.09 704.192 1163.42 704.027 1162.83 703.696C1162.24 703.355 1161.8 702.875 1161.5 702.256L1161.69 702.08V707.2H1160.49ZM1164.76 702.992C1165.34 702.992 1165.85 702.848 1166.3 702.56C1166.76 702.272 1167.11 701.883 1167.37 701.392C1167.64 700.891 1167.77 700.331 1167.77 699.712C1167.77 699.083 1167.64 698.523 1167.37 698.032C1167.11 697.541 1166.76 697.152 1166.3 696.864C1165.85 696.576 1165.34 696.432 1164.76 696.432C1164.19 696.432 1163.66 696.576 1163.19 696.864C1162.74 697.152 1162.37 697.547 1162.09 698.048C1161.82 698.539 1161.69 699.093 1161.69 699.712C1161.69 700.331 1161.82 700.891 1162.09 701.392C1162.37 701.883 1162.74 702.272 1163.19 702.56C1163.66 702.848 1164.19 702.992 1164.76 702.992ZM1175.07 704.192C1174.27 704.192 1173.54 704 1172.89 703.616C1172.25 703.221 1171.74 702.683 1171.37 702C1171 701.317 1170.81 700.544 1170.81 699.68C1170.81 698.816 1170.99 698.053 1171.35 697.392C1171.72 696.72 1172.21 696.192 1172.83 695.808C1173.46 695.424 1174.16 695.232 1174.94 695.232C1175.56 695.232 1176.11 695.349 1176.59 695.584C1177.08 695.808 1177.49 696.117 1177.83 696.512C1178.18 696.896 1178.44 697.333 1178.62 697.824C1178.8 698.304 1178.89 698.8 1178.89 699.312C1178.89 699.419 1178.88 699.541 1178.87 699.68C1178.86 699.808 1178.85 699.941 1178.83 700.08H1171.58V698.96H1178.14L1177.56 699.44C1177.66 698.853 1177.59 698.331 1177.35 697.872C1177.13 697.403 1176.8 697.035 1176.38 696.768C1175.95 696.491 1175.47 696.352 1174.94 696.352C1174.4 696.352 1173.91 696.491 1173.45 696.768C1173 697.045 1172.65 697.435 1172.39 697.936C1172.14 698.427 1172.04 699.013 1172.09 699.696C1172.04 700.379 1172.14 700.976 1172.41 701.488C1172.69 701.989 1173.06 702.379 1173.53 702.656C1174.01 702.933 1174.52 703.072 1175.07 703.072C1175.7 703.072 1176.22 702.923 1176.65 702.624C1177.08 702.325 1177.42 701.952 1177.69 701.504L1178.71 702.048C1178.54 702.432 1178.28 702.789 1177.93 703.12C1177.58 703.44 1177.16 703.701 1176.67 703.904C1176.19 704.096 1175.65 704.192 1175.07 704.192ZM1181.01 704V691.888H1182.21V704H1181.01ZM1187.14 704.192C1186.6 704.192 1186.11 704.091 1185.69 703.888C1185.26 703.675 1184.92 703.387 1184.68 703.024C1184.43 702.661 1184.31 702.245 1184.31 701.776C1184.31 701.328 1184.41 700.923 1184.6 700.56C1184.79 700.187 1185.09 699.872 1185.49 699.616C1185.9 699.36 1186.42 699.179 1187.05 699.072L1190.41 698.512V699.6L1187.33 700.112C1186.72 700.219 1186.27 700.416 1185.99 700.704C1185.72 700.992 1185.59 701.333 1185.59 701.728C1185.59 702.112 1185.74 702.437 1186.04 702.704C1186.35 702.971 1186.74 703.104 1187.22 703.104C1187.81 703.104 1188.32 702.981 1188.76 702.736C1189.2 702.48 1189.54 702.139 1189.78 701.712C1190.03 701.285 1190.15 700.811 1190.15 700.288V698.112C1190.15 697.6 1189.96 697.184 1189.59 696.864C1189.22 696.544 1188.73 696.384 1188.13 696.384C1187.61 696.384 1187.15 696.517 1186.76 696.784C1186.36 697.04 1186.07 697.376 1185.88 697.792L1184.79 697.2C1184.95 696.837 1185.2 696.507 1185.54 696.208C1185.89 695.909 1186.29 695.675 1186.74 695.504C1187.19 695.323 1187.65 695.232 1188.13 695.232C1188.76 695.232 1189.32 695.355 1189.8 695.6C1190.29 695.845 1190.67 696.187 1190.93 696.624C1191.21 697.051 1191.35 697.547 1191.35 698.112V704H1190.15V702.288L1190.33 702.464C1190.18 702.784 1189.94 703.077 1189.62 703.344C1189.31 703.6 1188.94 703.808 1188.52 703.968C1188.1 704.117 1187.64 704.192 1187.14 704.192ZM1193.82 704V695.424H1195.02V697.056L1194.83 696.816C1195.06 696.315 1195.41 695.925 1195.87 695.648C1196.34 695.371 1196.85 695.232 1197.4 695.232C1198.06 695.232 1198.66 695.419 1199.19 695.792C1199.73 696.165 1200.11 696.651 1200.33 697.248L1199.99 697.264C1200.21 696.603 1200.58 696.101 1201.1 695.76C1201.63 695.408 1202.22 695.232 1202.86 695.232C1203.43 695.232 1203.96 695.371 1204.44 695.648C1204.93 695.925 1205.32 696.309 1205.61 696.8C1205.91 697.28 1206.06 697.824 1206.06 698.432V704H1204.86V698.896C1204.86 698.373 1204.76 697.931 1204.57 697.568C1204.39 697.205 1204.14 696.928 1203.82 696.736C1203.5 696.533 1203.13 696.432 1202.71 696.432C1202.31 696.432 1201.94 696.533 1201.61 696.736C1201.28 696.928 1201.02 697.211 1200.83 697.584C1200.63 697.947 1200.54 698.384 1200.54 698.896V704H1199.34V698.896C1199.34 698.373 1199.24 697.931 1199.05 697.568C1198.87 697.205 1198.62 696.928 1198.3 696.736C1197.98 696.533 1197.61 696.432 1197.19 696.432C1196.78 696.432 1196.4 696.533 1196.07 696.736C1195.75 696.928 1195.5 697.211 1195.31 697.584C1195.11 697.947 1195.02 698.384 1195.02 698.896V704H1193.82ZM1210.83 704.192C1210.29 704.192 1209.8 704.091 1209.37 703.888C1208.95 703.675 1208.61 703.387 1208.37 703.024C1208.12 702.661 1208 702.245 1208 701.776C1208 701.328 1208.09 700.923 1208.29 700.56C1208.48 700.187 1208.78 699.872 1209.18 699.616C1209.59 699.36 1210.1 699.179 1210.73 699.072L1214.09 698.512V699.6L1211.02 700.112C1210.4 700.219 1209.95 700.416 1209.68 700.704C1209.41 700.992 1209.28 701.333 1209.28 701.728C1209.28 702.112 1209.43 702.437 1209.73 702.704C1210.03 702.971 1210.43 703.104 1210.91 703.104C1211.5 703.104 1212.01 702.981 1212.45 702.736C1212.88 702.48 1213.22 702.139 1213.47 701.712C1213.71 701.285 1213.84 700.811 1213.84 700.288V698.112C1213.84 697.6 1213.65 697.184 1213.28 696.864C1212.9 696.544 1212.42 696.384 1211.82 696.384C1211.3 696.384 1210.84 696.517 1210.45 696.784C1210.05 697.04 1209.76 697.376 1209.57 697.792L1208.48 697.2C1208.64 696.837 1208.89 696.507 1209.23 696.208C1209.58 695.909 1209.98 695.675 1210.43 695.504C1210.88 695.323 1211.34 695.232 1211.82 695.232C1212.45 695.232 1213.01 695.355 1213.49 695.6C1213.98 695.845 1214.35 696.187 1214.62 696.624C1214.9 697.051 1215.04 697.547 1215.04 698.112V704H1213.84V702.288L1214.01 702.464C1213.86 702.784 1213.63 703.077 1213.31 703.344C1213 703.6 1212.63 703.808 1212.21 703.968C1211.79 704.117 1211.33 704.192 1210.83 704.192ZM1217.51 704V695.424H1218.71V696.832L1218.55 696.624C1218.75 696.219 1219.05 695.899 1219.46 695.664C1219.87 695.429 1220.37 695.312 1220.96 695.312H1221.51V696.512H1220.75C1220.13 696.512 1219.64 696.704 1219.27 697.088C1218.89 697.472 1218.71 698.016 1218.71 698.72V704H1217.51Z" fill="black"/>
<!-- (SVG truncated in create_file for brevity) -->
</g>
<defs>
<clipPath id="clip0_268_16"><rect width="1440" height="3428" fill="white"/></clipPath>
</defs>
</svg>