<svg width="1440" height="1024" viewBox="0 0 1440 1024" fill="none" xmlns="http://www.w3.org/2000/svg">
<path d="M-60.1997 953.474C-64.4131 963.49 -72.4888 1013.69 -76 1037.54V1038.43V1040.22L-72.9904 1045.59L-67.7236 1049.16C-66.4696 1050.06 -63.2092 1052.2 -60.1997 1053.63C-57.1901 1055.07 -47.9105 1057.81 -43.6469 1059H-4.52223H1610.88L1629.69 1057.21L1637.21 1050.95L1642.48 1042.9L1646.99 1033.96L1650 1028.59V1020.55V1014.29V-36.5054C1649.5 -46.6407 1648.34 -67.4478 1647.74 -69.5941C1647.14 -71.7404 1645.49 -75.258 1644.73 -76.7485L1639.47 -86.5856C1638.21 -88.6723 1635.4 -93.2034 1634.2 -94.6343C1632.69 -96.4228 1630.44 -100 1628.93 -100H1621.41H1616.14H1089.46V-91.0571V-77.6427C1089.46 -74.781 1088.46 -66.9113 1087.96 -63.3341L1084.2 -43.6597C1083.44 -39.7845 1081.79 -30.9608 1081.19 -26.6682C1080.59 -22.3756 1078.93 -13.552 1078.18 -9.6767L1072.16 8.20911C1070.65 13.5748 1067.19 25.2006 1065.39 28.7778C1063.58 32.3549 1061.62 39.8073 1060.87 43.0864L1050.34 80.6466L1032.28 134.304L1017.99 165.604C1009.96 176.932 993.006 201.018 989.395 206.742C985.783 212.465 976.855 225.223 972.842 230.887L911.898 289.016L873.526 326.576L845.687 352.511C839.919 358.473 824.921 373.795 811.077 387.388C793.772 404.38 797.534 405.274 793.772 409.745C790.762 413.323 779.476 433.295 774.209 442.834L756.904 475.923C752.891 484.568 744.113 503.646 741.104 510.8C738.094 517.954 733.329 531.667 731.323 537.629L714.017 589.498L704.989 609.172L687.684 640.472L672.636 661.935C668.874 667.301 660.296 679.821 656.083 686.975C651.869 694.13 628.244 707.246 616.958 712.91C605.171 714.996 579.037 719.885 568.805 722.747C558.572 725.609 550.998 723.939 548.49 722.747H526.67H493.565H468.736C458.453 721.555 436.533 719.17 431.116 719.17C425.699 719.17 396.255 714.996 382.21 712.91C378.699 711.419 370.473 708.438 365.657 708.438H358.133H348.352H333.304H314.494H295.684H260.322C248.534 709.631 221.047 712.194 205.397 712.91C189.747 713.625 171.288 720.958 164.015 724.535C157.745 726.324 143.7 730.438 137.681 732.584C131.662 734.73 119.122 740.633 113.604 743.316L78.2415 763.884L45.8884 793.396L5.25893 831.85L-30.1037 888.191C-38.3801 905.778 -55.9862 943.458 -60.1997 953.474Z" fill="#D9D9D9"/>
<path d="M-60.1997 953.474C-64.4131 963.49 -72.4888 1013.69 -76 1037.54V1038.43V1040.22L-72.9904 1045.59L-67.7236 1049.16C-66.4696 1050.06 -63.2092 1052.2 -60.1997 1053.63C-57.1901 1055.07 -47.9105 1057.81 -43.6469 1059H-4.52223H1610.88L1629.69 1057.21L1637.21 1050.95L1642.48 1042.9L1646.99 1033.96L1650 1028.59V1020.55V1014.29V-36.5054C1649.5 -46.6407 1648.34 -67.4478 1647.74 -69.5941C1647.14 -71.7404 1645.49 -75.258 1644.73 -76.7485L1639.47 -86.5856C1638.21 -88.6723 1635.4 -93.2034 1634.2 -94.6343C1632.69 -96.4228 1630.44 -100 1628.93 -100H1621.41H1616.14H1089.46V-91.0571V-77.6427C1089.46 -74.781 1088.46 -66.9113 1087.96 -63.3341L1084.2 -43.6597C1083.44 -39.7845 1081.79 -30.9608 1081.19 -26.6682C1080.59 -22.3756 1078.93 -13.552 1078.18 -9.6767L1072.16 8.20911C1070.65 13.5748 1067.19 25.2006 1065.39 28.7778C1063.58 32.3549 1061.62 39.8073 1060.87 43.0864L1050.34 80.6466L1032.28 134.304L1017.99 165.604C1009.96 176.932 993.006 201.018 989.395 206.742C985.783 212.465 976.855 225.223 972.842 230.887L911.898 289.016L873.526 326.576L845.687 352.511C839.919 358.473 824.921 373.795 811.077 387.388C793.772 404.38 797.534 405.274 793.772 409.745C790.762 413.323 779.476 433.295 774.209 442.834L756.904 475.923C752.891 484.568 744.113 503.646 741.104 510.8C738.094 517.954 733.329 531.667 731.323 537.629L714.017 589.498L704.989 609.172L687.684 640.472L672.636 661.935C668.874 667.301 660.296 679.821 656.083 686.975C651.869 694.13 628.244 707.246 616.958 712.91C605.171 714.996 579.037 719.885 568.805 722.747C558.572 725.609 550.998 723.939 548.49 722.747H526.67H493.565H468.736C458.453 721.555 436.533 719.17 431.116 719.17C425.699 719.17 396.255 714.996 382.21 712.91C378.699 711.419 370.473 708.438 365.657 708.438H358.133H348.352H333.304H314.494H295.684H260.322C248.534 709.631 221.047 712.194 205.397 712.91C189.747 713.625 171.288 720.958 164.015 724.535C157.745 726.324 143.7 730.438 137.681 732.584C131.662 734.73 119.122 740.633 113.604 743.316L78.2415 763.884L45.8884 793.396L5.25893 831.85L-30.1037 888.191C-38.3801 905.778 -55.9862 943.458 -60.1997 953.474Z" fill="#527FE8" fill-opacity="0.85"/>
<path d="M-60.1997 953.474C-64.4131 963.49 -72.4888 1013.69 -76 1037.54V1038.43V1040.22L-72.9904 1045.59L-67.7236 1049.16C-66.4696 1050.06 -63.2092 1052.2 -60.1997 1053.63C-57.1901 1055.07 -47.9105 1057.81 -43.6469 1059H-4.52223H1610.88L1629.69 1057.21L1637.21 1050.95L1642.48 1042.9L1646.99 1033.96L1650 1028.59V1020.55V1014.29V-36.5054C1649.5 -46.6407 1648.34 -67.4478 1647.74 -69.5941C1647.14 -71.7404 1645.49 -75.258 1644.73 -76.7485L1639.47 -86.5856C1638.21 -88.6723 1635.4 -93.2034 1634.2 -94.6343C1632.69 -96.4228 1630.44 -100 1628.93 -100H1621.41H1616.14H1089.46V-91.0571V-77.6427C1089.46 -74.781 1088.46 -66.9113 1087.96 -63.3341L1084.2 -43.6597C1083.44 -39.7845 1081.79 -30.9608 1081.19 -26.6682C1080.59 -22.3756 1078.93 -13.552 1078.18 -9.6767L1072.16 8.20911C1070.65 13.5748 1067.19 25.2006 1065.39 28.7778C1063.58 32.3549 1061.62 39.8073 1060.87 43.0864L1050.34 80.6466L1032.28 134.304L1017.99 165.604C1009.96 176.932 993.006 201.018 989.395 206.742C985.783 212.465 976.855 225.223 972.842 230.887L911.898 289.016L873.526 326.576L845.687 352.511C839.919 358.473 824.921 373.795 811.077 387.388C793.772 404.38 797.534 405.274 793.772 409.745C790.762 413.323 779.476 433.295 774.209 442.834L756.904 475.923C752.891 484.568 744.113 503.646 741.104 510.8C738.094 517.954 733.329 531.667 731.323 537.629L714.017 589.498L704.989 609.172L687.684 640.472L672.636 661.935C668.874 667.301 660.296 679.821 656.083 686.975C651.869 694.13 628.244 707.246 616.958 712.91C605.171 714.996 579.037 719.885 568.805 722.747C558.572 725.609 550.998 723.939 548.49 722.747H526.67H493.565H468.736C458.453 721.555 436.533 719.17 431.116 719.17C425.699 719.17 396.255 714.996 382.21 712.91C378.699 711.419 370.473 708.438 365.657 708.438H358.133H348.352H333.304H314.494H295.684H260.322C248.534 709.631 221.047 712.194 205.397 712.91C189.747 713.625 171.288 720.958 164.015 724.535C157.745 726.324 143.7 730.438 137.681 732.584C131.662 734.73 119.122 740.633 113.604 743.316L78.2415 763.884L45.8884 793.396L5.25893 831.85L-30.1037 888.191C-38.3801 905.778 -55.9862 943.458 -60.1997 953.474Z" stroke="#527FE8" stroke-opacity="0.85"/>
</svg>
