<svg width="1440" height="1024" viewBox="0 0 1440 1024" fill="none" xmlns="http://www.w3.org/2000/svg">
<path d="M13.1822 930.765C9.66696 939.615 2.92938 983.967 0 1005.04V1005.83V1007.41L2.5109 1012.15L6.90497 1015.31C7.95118 1016.1 10.6713 1017.99 13.1822 1019.26C15.6931 1020.52 23.435 1022.95 26.9922 1024H59.6338H1407.36L1423.05 1022.42L1429.33 1016.89L1433.72 1009.78L1437.49 1001.88L1440 997.136V990.025V984.494V56.0985V28.9997V24.4997V15.9997V7.49968C1440 4.49968 1440.35 4 1440.35 9.28342e-05C1440.35 -1.00427 1418.17 9.28342e-05 1416.5 9.28342e-05L1411.75 -0.000319511H972.345V7.90092V19.7528C972.345 22.2812 971.508 29.2343 971.09 32.3947L967.951 49.7775C967.323 53.2013 965.943 60.9972 965.44 64.7898C964.938 68.5824 963.557 76.3783 962.929 79.8022L957.908 95.6046C956.652 100.345 953.765 110.617 952.258 113.777C950.752 116.938 949.119 123.522 948.492 126.419L939.704 159.605L924.638 207.012L912.711 234.666C906.016 244.675 891.871 265.955 888.858 271.012C885.845 276.069 878.396 287.341 875.048 292.345L824.202 343.704L792.188 376.889L768.963 399.802C764.15 405.07 751.637 418.607 740.087 430.617C725.649 445.629 728.788 446.42 725.65 450.37C723.139 453.531 713.723 471.177 709.329 479.605L694.891 508.839C691.543 516.477 684.22 533.333 681.709 539.654C679.198 545.975 675.222 558.09 673.548 563.358L659.111 609.185L651.578 626.568L637.14 654.222L624.586 673.185C621.447 677.926 614.291 688.988 610.776 695.309C607.261 701.63 587.55 713.218 578.134 718.222C568.3 720.066 546.497 724.385 537.96 726.914C529.423 729.442 523.104 727.967 521.011 726.914H502.807H475.187H454.473C445.894 725.86 427.606 723.753 423.086 723.753C418.567 723.753 394.002 720.066 382.284 718.222C379.355 716.905 372.492 714.271 368.474 714.271H362.197H354.037H341.482H325.789H310.096H280.593C270.759 715.325 247.826 717.59 234.769 718.222C221.712 718.854 206.312 725.333 200.244 728.494C195.013 730.074 183.296 733.709 178.274 735.605C173.252 737.501 162.79 742.716 158.187 745.086L128.684 763.259L101.691 789.333L67.7942 823.309L38.2912 873.086C31.3862 888.625 16.6975 921.916 13.1822 930.765Z" fill="#D9D9D9"/>
<path d="M13.1822 930.765C9.66696 939.615 2.92938 983.967 0 1005.04V1005.83V1007.41L2.5109 1012.15L6.90497 1015.31C7.95118 1016.1 10.6713 1017.99 13.1822 1019.26C15.6931 1020.52 23.435 1022.95 26.9922 1024H59.6338H1407.36L1423.05 1022.42L1429.33 1016.89L1433.72 1009.78L1437.49 1001.88L1440 997.136V990.025V984.494V56.0985V28.9997V24.4997V15.9997V7.49968C1440 4.49968 1440.35 4 1440.35 9.28342e-05C1440.35 -1.00427 1418.17 9.28342e-05 1416.5 9.28342e-05L1411.75 -0.000319511H972.345V7.90092V19.7528C972.345 22.2812 971.508 29.2343 971.09 32.3947L967.951 49.7775C967.323 53.2013 965.943 60.9972 965.44 64.7898C964.938 68.5824 963.557 76.3783 962.929 79.8022L957.908 95.6046C956.652 100.345 953.765 110.617 952.258 113.777C950.752 116.938 949.119 123.522 948.492 126.419L939.704 159.605L924.638 207.012L912.711 234.666C906.016 244.675 891.871 265.955 888.858 271.012C885.845 276.069 878.396 287.341 875.048 292.345L824.202 343.704L792.188 376.889L768.963 399.802C764.15 405.07 751.637 418.607 740.087 430.617C725.649 445.629 728.788 446.42 725.65 450.37C723.139 453.531 713.723 471.177 709.329 479.605L694.891 508.839C691.543 516.477 684.22 533.333 681.709 539.654C679.198 545.975 675.222 558.09 673.548 563.358L659.111 609.185L651.578 626.568L637.14 654.222L624.586 673.185C621.447 677.926 614.291 688.988 610.776 695.309C607.261 701.63 587.55 713.218 578.134 718.222C568.3 720.066 546.497 724.385 537.96 726.914C529.423 729.442 523.104 727.967 521.011 726.914H502.807H475.187H454.473C445.894 725.86 427.606 723.753 423.086 723.753C418.567 723.753 394.002 720.066 382.284 718.222C379.355 716.905 372.492 714.271 368.474 714.271H362.197H354.037H341.482H325.789H310.096H280.593C270.759 715.325 247.826 717.59 234.769 718.222C221.712 718.854 206.312 725.333 200.244 728.494C195.013 730.074 183.296 733.709 178.274 735.605C173.252 737.501 162.79 742.716 158.187 745.086L128.684 763.259L101.691 789.333L67.7942 823.309L38.2912 873.086C31.3862 888.625 16.6975 921.916 13.1822 930.765Z" fill="#527FE8" fill-opacity="0.85"/>
<path d="M13.1822 930.765C9.66696 939.615 2.92938 983.967 0 1005.04V1005.83V1007.41L2.5109 1012.15L6.90497 1015.31C7.95118 1016.1 10.6713 1017.99 13.1822 1019.26C15.6931 1020.52 23.435 1022.95 26.9922 1024H59.6338H1407.36L1423.05 1022.42L1429.33 1016.89L1433.72 1009.78L1437.49 1001.88L1440 997.136V990.025V984.494V56.0985V28.9997V24.4997V15.9997V7.49968C1440 4.49968 1440.35 4 1440.35 9.28342e-05C1440.35 -1.00427 1418.17 9.28342e-05 1416.5 9.28342e-05L1411.75 -0.000319511H972.345V7.90092V19.7528C972.345 22.2812 971.508 29.2343 971.09 32.3947L967.951 49.7775C967.323 53.2013 965.943 60.9972 965.44 64.7898C964.938 68.5824 963.557 76.3783 962.929 79.8022L957.908 95.6046C956.652 100.345 953.765 110.617 952.258 113.777C950.752 116.938 949.119 123.522 948.492 126.419L939.704 159.605L924.638 207.012L912.711 234.666C906.016 244.675 891.871 265.955 888.858 271.012C885.845 276.069 878.396 287.341 875.048 292.345L824.202 343.704L792.188 376.889L768.963 399.802C764.15 405.07 751.637 418.607 740.087 430.617C725.649 445.629 728.788 446.42 725.65 450.37C723.139 453.531 713.723 471.177 709.329 479.605L694.891 508.839C691.543 516.477 684.22 533.333 681.709 539.654C679.198 545.975 675.222 558.09 673.548 563.358L659.111 609.185L651.578 626.568L637.14 654.222L624.586 673.185C621.447 677.926 614.291 688.988 610.776 695.309C607.261 701.63 587.55 713.218 578.134 718.222C568.3 720.066 546.497 724.385 537.96 726.914C529.423 729.442 523.104 727.967 521.011 726.914H502.807H475.187H454.473C445.894 725.86 427.606 723.753 423.086 723.753C418.567 723.753 394.002 720.066 382.284 718.222C379.355 716.905 372.492 714.271 368.474 714.271H362.197H354.037H341.482H325.789H310.096H280.593C270.759 715.325 247.826 717.59 234.769 718.222C221.712 718.854 206.312 725.333 200.244 728.494C195.013 730.074 183.296 733.709 178.274 735.605C173.252 737.501 162.79 742.716 158.187 745.086L128.684 763.259L101.691 789.333L67.7942 823.309L38.2912 873.086C31.3862 888.625 16.6975 921.916 13.1822 930.765Z" stroke="#527FE8" stroke-opacity="0.85"/>
</svg>
