<svg width="2023" height="1501" viewBox="0 0 2023 1501" fill="none" xmlns="http://www.w3.org/2000/svg">
<path d="M241.839 1468.15C241.839 1468.15 -363.618 -100.405 747.461 5.77014C1223.34 51.2451 1134.51 327.133 1344.68 585.269C1480.92 752.59 1742.93 615.711 1841.12 761.921C1939.31 908.132 1823.93 1325.03 1783.45 1468.15L241.839 1468.15Z" fill="#E5F0F8"/>
<path d="M1682.04 1460.53C1682.04 1460.53 1724.17 1292.48 1829.19 1240.62C1934.21 1188.75 2046.29 1259.76 2017.83 1334.42C1993.29 1398.81 1892.37 1319.64 1813.85 1350.77C1735.33 1381.9 1722.96 1460.53 1722.96 1460.53H1682.04Z" fill="#40A87B"/>
<path d="M1997.53 1289.65C1997.53 1289.65 1884.82 1225.42 1801.19 1284.8C1717.57 1344.19 1691.1 1460.53 1691.1 1460.53" stroke="#6ADB6A" stroke-width="4.7322" stroke-miterlimit="10"/>
<path d="M1979.35 1259.61L1953.13 1271.04" stroke="#6ADB6A" stroke-width="4.7322" stroke-miterlimit="10"/>
<path d="M1941.48 1235.11L1889.25 1259.61" stroke="#6ADB6A" stroke-width="4.7322" stroke-miterlimit="10"/>
<path d="M1863 1235.11L1835.83 1267.21" stroke="#6ADB6A" stroke-width="4.7322" stroke-miterlimit="10"/>
<path d="M1811.49 1256.62L1799.28 1286.19" stroke="#6ADB6A" stroke-width="4.7322" stroke-miterlimit="10"/>
<path d="M1966.24 1330.55L1925.98 1263.95" stroke="#6ADB6A" stroke-width="4.7322" stroke-miterlimit="10"/>
<path d="M1895.12 1321.01L1858.2 1261.71" stroke="#6ADB6A" stroke-width="4.7322" stroke-miterlimit="10"/>
<path d="M1832.4 1311.92L1776.89 1305.02" stroke="#6ADB6A" stroke-width="4.7322" stroke-miterlimit="10"/>
<path d="M1767.78 1345.55L1735.96 1356" stroke="#6ADB6A" stroke-width="4.7322" stroke-miterlimit="10"/>
<path d="M1632.29 1461.02C1632.29 1461.02 1602.56 897.721 1871.61 970.311C2140.67 1042.9 1661.74 1346.49 1662.15 1461.02H1632.29Z" fill="#6ADB6A"/>
<path d="M1643.16 1461.02C1643.16 1461.02 1652.56 1166.72 1844.35 1021.19" stroke="#40A87B" stroke-width="4.7322" stroke-miterlimit="10"/>
<path d="M1760.23 1106.53L1765.02 1005.04" stroke="#40A87B" stroke-width="4.7322" stroke-miterlimit="10"/>
<path d="M1910.7 1064.48L1781.07 1081.37" stroke="#40A87B" stroke-width="4.7322" stroke-miterlimit="10"/>
<path d="M1860.29 1151.09L1723.22 1167.06" stroke="#40A87B" stroke-width="4.7322" stroke-miterlimit="10"/>
<path d="M1791.75 1236.93L1685.89 1251.89" stroke="#40A87B" stroke-width="4.7322" stroke-miterlimit="10"/>
<path d="M1675.73 1156.73L1700 1215.68" stroke="#40A87B" stroke-width="4.7322" stroke-miterlimit="10"/>
<path d="M1715.6 1061.04L1736.29 1144.04" stroke="#40A87B" stroke-width="4.7322" stroke-miterlimit="10"/>
<path d="M1653.08 1255.14L1672.41 1293.68" stroke="#40A87B" stroke-width="4.7322" stroke-miterlimit="10"/>
<path d="M1736.29 1316.5L1660.43 1340.42" stroke="#40A87B" stroke-width="4.7322" stroke-miterlimit="10"/>
<path d="M245.14 1460.68C245.14 1460.68 215.946 1344.23 143.173 1308.29C70.4 1272.35 -7.27196 1321.56 12.451 1373.3C29.458 1417.91 99.3891 1363.05 153.8 1384.62C208.211 1406.2 216.788 1460.68 216.788 1460.68H245.14Z" fill="#40A87B"/>
<path d="M26.5181 1342.27C26.5181 1342.27 104.623 1297.76 162.571 1338.91C220.52 1380.06 238.858 1460.68 238.858 1460.68" stroke="#6ADB6A" stroke-width="3.2792" stroke-miterlimit="10"/>
<path d="M39.1147 1321.45L57.2867 1329.37" stroke="#6ADB6A" stroke-width="3.2792" stroke-miterlimit="10"/>
<path d="M65.3599 1304.48L101.554 1321.45" stroke="#6ADB6A" stroke-width="3.2792" stroke-miterlimit="10"/>
<path d="M119.739 1304.48L138.569 1326.72" stroke="#6ADB6A" stroke-width="3.2792" stroke-miterlimit="10"/>
<path d="M155.432 1319.38L163.897 1339.87" stroke="#6ADB6A" stroke-width="3.2792" stroke-miterlimit="10"/>
<path d="M48.2012 1370.61L76.0972 1324.46" stroke="#6ADB6A" stroke-width="3.2792" stroke-miterlimit="10"/>
<path d="M97.4839 1364L123.069 1322.91" stroke="#6ADB6A" stroke-width="3.2792" stroke-miterlimit="10"/>
<path d="M140.945 1357.7L179.409 1352.92" stroke="#6ADB6A" stroke-width="3.2792" stroke-miterlimit="10"/>
<path d="M185.725 1381.01L207.773 1388.24" stroke="#6ADB6A" stroke-width="3.2792" stroke-miterlimit="10"/>
<path d="M279.615 1461.02C279.615 1461.02 300.215 1070.68 113.772 1120.98C-72.6712 1171.28 259.208 1381.66 258.926 1461.02H279.615Z" fill="#6ADB6A"/>
<path d="M272.081 1461.02C272.081 1461.02 265.57 1257.08 132.667 1156.24" stroke="#40A87B" stroke-width="3.2792" stroke-miterlimit="10"/>
<path d="M190.959 1215.37L187.638 1145.05" stroke="#40A87B" stroke-width="3.2792" stroke-miterlimit="10"/>
<path d="M86.687 1186.23L176.518 1197.94" stroke="#40A87B" stroke-width="3.2792" stroke-miterlimit="10"/>
<path d="M121.622 1246.25L216.602 1257.32" stroke="#40A87B" stroke-width="3.2792" stroke-miterlimit="10"/>
<path d="M169.112 1305.73L242.473 1316.1" stroke="#40A87B" stroke-width="3.2792" stroke-miterlimit="10"/>
<path d="M249.51 1250.16L232.696 1291.01" stroke="#40A87B" stroke-width="3.2792" stroke-miterlimit="10"/>
<path d="M221.88 1183.86L207.545 1241.37" stroke="#40A87B" stroke-width="3.2792" stroke-miterlimit="10"/>
<path d="M265.207 1318.36L251.811 1345.06" stroke="#40A87B" stroke-width="3.2792" stroke-miterlimit="10"/>
<path d="M207.545 1360.87L260.114 1377.45" stroke="#40A87B" stroke-width="3.2792" stroke-miterlimit="10"/>
<path d="M132.689 46.9793V41.5463L164.057 24.5703V32.8693L143.104 44.2633L164.057 55.6573V63.9563L132.689 46.9793Z" fill="#98EB98"/>
<path d="M743.88 497.961V489.662L764.833 478.268L743.88 466.874V458.575L775.248 475.551V480.984L743.88 497.961Z" fill="#98EB98"/>
<path d="M300.437 37.8545H175.691V50.6705H300.437V37.8545Z" fill="#98EB98"/>
<path d="M257.435 87.3799H132.689V100.196H257.435V87.3799Z" fill="#98EB98"/>
<path d="M284.007 121.882H159.261V134.698H284.007V121.882Z" fill="#98EB98"/>
<path d="M284.007 216.838H159.261V229.654H284.007V216.838Z" fill="#98EB98"/>
<path d="M284.007 246.211H159.261V259.027H284.007V246.211Z" fill="#98EB98"/>
<path d="M578.333 154.74H202.126V167.556H578.333V154.74Z" fill="#98EB98"/>
<path d="M704.706 277.42H202.126V290.236H704.706V277.42Z" fill="#98EB98"/>
<path d="M704.706 375.676H202.126V388.492H704.706V375.676Z" fill="#98EB98"/>
<path d="M730.891 471.86H249.395V484.676H730.891V471.86Z" fill="#98EB98"/>
<path d="M309.772 409.06H202.126V421.876H309.772V409.06Z" fill="#98EB98"/>
<path d="M309.772 440.817H202.126V453.633H309.772V440.817Z" fill="#98EB98"/>
<path d="M704.706 308.785H202.126V321.601H704.706V308.785Z" fill="#98EB98"/>
<path d="M474.045 340.149H202.126V352.965H474.045V340.149Z" fill="#98EB98"/>
<path d="M317.484 184.275H202.126V197.091H317.484V184.275Z" fill="#98EB98"/>
<path d="M904.167 250.523C894.336 236.478 877.675 227.611 859.083 228.675C858.52 228.707 857.945 228.751 857.381 228.794C832.04 231.063 811.97 252.015 810.763 277.431C810.301 287.388 812.66 296.739 817.091 304.756C819.228 308.613 821.83 312.157 824.837 315.319V315.331C827.212 317.81 829.818 320.062 832.632 322.028C839.47 326.808 843.759 334.359 844.746 342.57L842.372 342.605C841.691 342.615 841.061 342.906 840.621 343.359C840.54 343.442 840.471 343.537 840.39 343.633C840.09 344.049 839.91 344.568 839.919 345.132C839.94 346.506 841.072 347.617 842.446 347.596C841.765 347.606 841.135 347.898 840.695 348.351C840.649 348.399 840.614 348.446 840.568 348.494C840.199 348.946 839.984 349.513 839.993 350.124C840.013 351.498 841.146 352.609 842.52 352.588C841.839 352.598 841.209 352.89 840.769 353.354C840.699 353.426 840.63 353.509 840.561 353.592C840.25 354.02 840.058 354.563 840.067 355.127C840.087 356.489 841.22 357.6 842.594 357.58C841.913 357.59 841.283 357.882 840.843 358.346C840.808 358.382 840.785 358.406 840.762 358.441C840.369 358.882 840.131 359.472 840.141 360.118C840.162 361.492 841.294 362.591 842.668 362.571L845.24 362.533C845.272 363.145 845.325 363.753 845.42 364.351C845.762 366.427 846.489 368.369 847.515 370.111C847.708 370.44 847.914 370.761 848.128 371.075C848.235 371.232 848.35 371.382 848.462 371.535C848.612 371.739 848.765 371.941 848.924 372.138C849.04 372.282 849.158 372.425 849.279 372.565C849.471 372.788 849.67 373.004 849.874 373.216C849.969 373.315 850.059 373.417 850.156 373.514C850.451 373.807 850.758 374.087 851.073 374.358C851.183 374.452 851.297 374.54 851.409 374.632C851.643 374.822 851.882 375.007 852.126 375.185C852.25 375.275 852.374 375.365 852.501 375.452C852.79 375.651 853.086 375.84 853.388 376.021C853.463 376.066 853.534 376.115 853.61 376.158C853.983 376.373 854.366 376.571 854.756 376.758C854.877 376.816 855 376.868 855.123 376.923C855.416 377.054 855.712 377.178 856.014 377.293C856.147 377.344 856.279 377.395 856.414 377.442C856.792 377.575 857.175 377.697 857.564 377.803C857.609 377.815 857.652 377.831 857.697 377.843C858.129 377.957 858.57 378.05 859.015 378.129C859.145 378.152 859.277 378.17 859.408 378.191C859.745 378.243 860.084 378.285 860.427 378.317C860.563 378.33 860.699 378.344 860.836 378.353C861.3 378.385 861.767 378.403 862.241 378.397L865.048 378.355C869.688 378.286 873.864 376.344 876.849 373.257C879.302 370.742 880.957 367.463 881.454 363.814C881.492 363.5 881.52 363.182 881.541 362.863C881.562 362.578 881.572 362.291 881.579 362.004C881.579 362 881.579 361.996 881.58 361.992L883.917 361.957C884.598 361.947 885.228 361.655 885.668 361.203C886.119 360.738 886.392 360.123 886.382 359.43C886.372 358.784 886.117 358.2 885.699 357.772C885.245 357.262 884.571 356.955 883.842 356.966C884.523 356.956 885.153 356.665 885.593 356.212C886.044 355.747 886.317 355.121 886.307 354.439C886.299 353.875 886.091 353.338 885.756 352.92C885.289 352.34 884.567 351.963 883.768 351.975C884.449 351.965 885.079 351.673 885.519 351.209C885.97 350.756 886.243 350.117 886.233 349.436C886.224 348.825 885.992 348.265 885.598 347.824C885.132 347.302 884.446 346.972 883.694 346.983C884.375 346.973 885.005 346.681 885.445 346.217C885.897 345.764 886.169 345.137 886.159 344.444C886.151 343.88 885.955 343.366 885.632 342.96C885.165 342.356 884.43 341.979 883.62 341.991L881.258 342.026C882.002 333.789 886.072 326.112 892.754 321.12C905.511 311.602 913.682 296.314 913.427 279.178C913.269 268.514 909.868 258.649 904.167 250.523Z" fill="white"/>
<path d="M1170.99 604.049V4.21503C1170.99 1.88703 1172.87 0 1175.2 0H1992.48C1994.81 0 1996.7 1.88703 1996.7 4.21503V604.048L1170.99 604.049Z" fill="#BBDBF3"/>
<path d="M1989.04 7.66113H1178.65V596.386H1989.04V7.66113Z" fill="white"/>
<path d="M1992.52 3.32031H1175.16V63.1443H1992.52V3.32031Z" fill="#BBDBF3"/>
<path d="M1937.81 51.3624L1969.73 19.4434" stroke="white" stroke-width="5.1185" stroke-miterlimit="10" stroke-linecap="round" stroke-linejoin="round"/>
<path d="M1969.73 51.3624L1937.81 19.4434" stroke="white" stroke-width="5.1185" stroke-miterlimit="10" stroke-linecap="round" stroke-linejoin="round"/>
<path d="M1370.75 63.1455H1178.65V596.387H1370.75V63.1455Z" fill="#E5F0F8"/>
<path d="M1351.58 93.0498H1197.81V105.439H1351.58V93.0498Z" fill="white"/>
<path d="M1351.58 125.79H1197.81V138.179H1351.58V125.79Z" fill="white"/>
<path d="M1351.58 158.529H1197.81V170.918H1351.58V158.529Z" fill="white"/>
<path d="M1351.58 191.268H1197.81V203.657H1351.58V191.268Z" fill="white"/>
<path d="M1351.58 224.008H1197.81V236.397H1351.58V224.008Z" fill="white"/>
<path d="M1351.58 256.747H1197.81V269.136H1351.58V256.747Z" fill="white"/>
<path d="M1351.58 289.487H1197.81V301.876H1351.58V289.487Z" fill="white"/>
<path d="M1638.53 583.427V393.9L1392.11 393.9V583.427H1638.53Z" fill="#E5F0F8"/>
<path d="M1570.08 485.83L1477.42 432.334V539.325L1570.08 485.83Z" fill="white"/>
<path d="M1638.53 573.111H1392.11V583.427H1638.53V573.111Z" fill="white"/>
<path d="M1513.07 573.111H1392.11V583.427H1513.07V573.111Z" fill="#E5F0F8"/>
<path d="M1521.86 583.427H1506.57C1503.74 583.427 1501.42 581.106 1501.42 578.269C1501.42 575.432 1503.74 573.111 1506.57 573.111H1521.86C1524.7 573.111 1527.02 575.432 1527.02 578.269C1527.02 581.106 1524.7 583.427 1521.86 583.427Z" fill="white"/>
<path d="M1351.58 322.226H1197.81V334.615H1351.58V322.226Z" fill="white"/>
<path d="M1351.58 354.966H1197.81V367.355H1351.58V354.966Z" fill="white"/>
<path d="M1351.58 387.705H1197.81V400.094H1351.58V387.705Z" fill="white"/>
<path d="M1351.58 420.445H1197.81V432.834H1351.58V420.445Z" fill="white"/>
<path d="M1351.58 453.184H1197.81V465.573H1351.58V453.184Z" fill="white"/>
<path d="M1969.18 131.984H1392.11V380.439H1969.18V131.984Z" fill="#E5F0F8"/>
<path d="M1570.76 152.792H1408.77V359.63H1570.76V152.792Z" fill="white"/>
<path d="M1489.75 283.731C1508.37 283.731 1523.46 264.394 1523.46 240.542C1523.46 216.689 1508.37 197.353 1489.75 197.353C1471.13 197.353 1456.04 216.689 1456.04 240.542C1456.04 264.394 1471.13 283.731 1489.75 283.731Z" fill="#E5F0F8"/>
<path d="M1562.18 359.631H1417.32C1418.34 311.157 1450.4 272.258 1489.75 272.258C1529.14 272.257 1561.15 311.157 1562.18 359.631Z" fill="#E5F0F8"/>
<path d="M1720.28 152.793H1592.51V163.498H1720.28V152.793Z" fill="white"/>
<path d="M1954.99 152.793H1927.48V163.498H1954.99V152.793Z" fill="white"/>
<path d="M1919.19 152.793H1891.68V163.498H1919.19V152.793Z" fill="white"/>
<path d="M1883.39 152.793H1855.87V163.498H1883.39V152.793Z" fill="white"/>
<path d="M1795.98 197.283H1592.51V207.988H1795.98V197.283Z" fill="white"/>
<path d="M1754.44 175.038H1592.51V185.743H1754.44V175.038Z" fill="white"/>
<path d="M1621.83 226.877H1592.51V236.119H1621.83V226.877Z" fill="white"/>
<path d="M1741.77 226.877H1625.95V236.119H1741.77V226.877Z" fill="white"/>
<path d="M1846.68 226.877H1746.37V236.119H1846.68V226.877Z" fill="white"/>
<path d="M1954.99 226.877H1850.8V236.119H1954.99V226.877Z" fill="white"/>
<path d="M1653.33 244.522H1592.51V253.764H1653.33V244.522Z" fill="white"/>
<path d="M1766.73 244.522H1658.05V253.764H1766.73V244.522Z" fill="white"/>
<path d="M1954.99 244.522H1771.45V253.764H1954.99V244.522Z" fill="white"/>
<path d="M1685.8 262.166H1592.51V271.408H1685.8V262.166Z" fill="white"/>
<path d="M1821.73 262.166H1689.67V271.408H1821.73V262.166Z" fill="white"/>
<path d="M1954.99 262.166H1826.82V271.408H1954.99V262.166Z" fill="white"/>
<path d="M1706.8 279.811H1592.51V289.053H1706.8V279.811Z" fill="white"/>
<path d="M1826.68 279.811H1712.39V289.053H1826.68V279.811Z" fill="white"/>
<path d="M1954.78 279.811H1831.82V289.053H1954.78V279.811Z" fill="white"/>
<path d="M1693.23 297.455H1592.51V306.697H1693.23V297.455Z" fill="white"/>
<path d="M1842.24 297.455H1697.43V306.697H1842.24V297.455Z" fill="white"/>
<path d="M1954.78 297.455H1846.68V306.697H1954.78V297.455Z" fill="white"/>
<path d="M1644.77 315.1H1592.51V324.342H1644.77V315.1Z" fill="white"/>
<path d="M1719.88 315.1H1649.66V324.342H1719.88V315.1Z" fill="white"/>
<path d="M1836.91 315.1H1725.25V324.342H1836.91V315.1Z" fill="white"/>
<path d="M1953.9 315.1H1842.24V324.342H1953.9V315.1Z" fill="white"/>
<path d="M1709.95 332.744H1592.51V341.986H1709.95V332.744Z" fill="white"/>
<path d="M1808.56 332.744H1715.03V341.986H1808.56V332.744Z" fill="white"/>
<path d="M1891.91 332.744H1814.37V341.986H1891.91V332.744Z" fill="white"/>
<path d="M1953.9 332.744H1896.76V341.986H1953.9V332.744Z" fill="white"/>
<path d="M1677.32 350.389H1592.51V359.631H1677.32V350.389Z" fill="white"/>
<path d="M1846.34 77.3145H1453.83V108.786H1846.34V77.3145Z" stroke="#BBDBF3" stroke-width="2.4087" stroke-miterlimit="10"/>
<path d="M1846.34 77.3145H1783.59V108.786H1846.34V77.3145Z" fill="#BBDBF3" stroke="#BBDBF3" stroke-width="1.684" stroke-miterlimit="10"/>
<path d="M1969.19 77.3145H1906.44V108.786H1969.19V77.3145Z" fill="#BBDBF3" stroke="#BBDBF3" stroke-width="1.684" stroke-miterlimit="10"/>
<path d="M1804.12 99.4476C1808.64 101.973 1814.21 100.729 1817.33 96.7986L1834.1 106.17L1835.72 103.264L1818.95 93.8936C1820.68 89.1766 1818.81 83.7856 1814.28 81.2566C1809.26 78.4516 1802.91 80.2337 1800.1 85.2527C1797.3 90.2717 1799.1 96.6426 1804.12 99.4476ZM1813.18 83.2336C1817.09 85.4176 1818.5 90.4037 1816.31 94.3127C1814.12 98.2437 1809.14 99.6326 1805.24 97.4486C1801.3 95.2516 1799.9 90.3016 1802.1 86.3696C1804.28 82.4606 1809.25 81.0376 1813.18 83.2336Z" fill="white"/>
<path d="M1969.19 533.597H1658.25V583.427H1969.19V533.597Z" fill="#E5F0F8"/>
<path d="M1707.8 558.512L1675.88 540.087V576.937L1707.8 558.512Z" fill="white"/>
<path d="M1722.02 558.512H1948.85" stroke="white" stroke-width="2.0269" stroke-miterlimit="10"/>
<path d="M1726.21 550.131H1722.02V566.893H1726.21V550.131Z" fill="white"/>
<path d="M1969.19 463.749H1658.25V513.579H1969.19V463.749Z" fill="#E5F0F8"/>
<path d="M1707.8 488.664L1675.88 470.239V507.089L1707.8 488.664Z" fill="white"/>
<path d="M1722.02 488.664H1948.85" stroke="white" stroke-width="2.0269" stroke-miterlimit="10"/>
<path d="M1726.21 480.283H1722.02V497.045H1726.21V480.283Z" fill="white"/>
<path d="M1969.19 393.9H1658.25V443.73H1969.19V393.9Z" fill="#E5F0F8"/>
<path d="M1707.8 418.815L1675.88 400.39V437.241L1707.8 418.815Z" fill="white"/>
<path d="M1722.02 418.815H1948.85" stroke="white" stroke-width="2.0269" stroke-miterlimit="10"/>
<path d="M1726.21 410.435H1722.02V427.197H1726.21V410.435Z" fill="white"/>
<path d="M1363.3 1339.33C1355.87 1328.61 1348.02 1325.62 1341.57 1325.41C1340.21 1325.37 1338.83 1325.14 1337.49 1324.8C1332.29 1323.48 1327.66 1320.47 1324.12 1316.44L1240.16 1221.02C1229.1 1207.06 1237.93 1196.43 1228.84 1184.01C1222.09 1174.79 1206.95 1173.04 1200.53 1172.65C1199.56 1172.6 1199.08 1173.82 1199.84 1174.43C1203 1176.96 1208.68 1179.98 1212.7 1182.79C1218.52 1186.86 1219.31 1200.81 1207.31 1208.52C1197.56 1214.78 1187.48 1203.8 1183.14 1199.48C1182.46 1198.8 1181.3 1199.28 1181.29 1200.24C1181.24 1203 1182.03 1207.81 1186.09 1213.66C1193.53 1224.37 1202.8 1226.77 1209.25 1226.98C1211.98 1227.07 1214.77 1228.15 1217.14 1229.41C1220.32 1231.12 1223.11 1233.45 1225.49 1236.15L1312.09 1334.57C1313.92 1336.65 1315.26 1339.12 1315.95 1341.81C1318.31 1351.06 1313.95 1358.83 1320.65 1367.97C1327.4 1377.19 1343.87 1379.36 1350.29 1379.74C1351.27 1379.8 1351.75 1378.57 1350.98 1377.96C1347.82 1375.43 1340.25 1370.55 1336.23 1367.75C1330.4 1363.68 1328.46 1351.2 1340.47 1343.49C1350.21 1337.24 1361.92 1349.77 1366.26 1354.09C1366.94 1354.77 1368.1 1354.29 1368.11 1353.33C1368.16 1350.57 1367.36 1345.18 1363.3 1339.33Z" fill="white"/>
<path d="M912.787 1334.19L912.787 646.68L234.689 646.68L234.689 1334.19H912.787Z" fill="#BBDBF3"/>
<path d="M905.733 653.634H241.747V1327.24H905.733V653.634Z" fill="white"/>
<path d="M316.711 682.605H258.176V691.709H316.711V682.605Z" fill="#E5F0F8"/>
<path d="M464.507 705.721H387.08H241.747V736.699H905.733V705.721H464.507Z" fill="#E5F0F8"/>
<path d="M388.715 682.605H330.18V691.709H388.715V682.605Z" fill="#E5F0F8"/>
<path d="M460.719 682.605H402.184V691.709H460.719V682.605Z" fill="#E5F0F8"/>
<path d="M332.39 718.017H258.176V724.165H332.39V718.017Z" fill="white"/>
<path d="M423.681 718.017H349.467V724.165H423.681V718.017Z" fill="white"/>
<path d="M514.972 718.017H440.758V724.165H514.972V718.017Z" fill="white"/>
<path d="M606.264 718.017H532.049V724.165H606.264V718.017Z" fill="white"/>
<path d="M783.857 672.026H698.78V699.876H783.857V672.026Z" stroke="#E5F0F8" stroke-width="2.7505" stroke-miterlimit="10"/>
<path d="M880.742 672.026H795.665V699.876H880.742V672.026Z" fill="#E5F0F8"/>
<path d="M450.947 901.076V754.094H266.481V901.076H450.947Z" fill="#E5F0F8"/>
<path d="M443.935 761.506H273.492V893.664H443.935V761.506Z" fill="white"/>
<path d="M273.492 893.664L321.678 835.172L355.529 877.084L403.291 796.485L443.936 893.664H273.492Z" fill="#E5F0F8"/>
<path d="M365.476 798.729C368.431 794.992 367.798 789.567 364.062 786.612C360.325 783.656 354.9 784.289 351.945 788.026C348.989 791.762 349.622 797.187 353.359 800.143C357.095 803.098 362.52 802.465 365.476 798.729Z" fill="#E5F0F8"/>
<path d="M665.844 901.076V754.094H481.378V901.076H665.844Z" fill="#E5F0F8"/>
<path d="M658.833 761.506H488.39V893.664H658.833V761.506Z" fill="white"/>
<path d="M488.39 893.664L536.576 835.172L570.427 877.084L618.189 796.485L658.833 893.664H488.39Z" fill="#E5F0F8"/>
<path d="M581.939 795.324C583.037 790.689 580.17 786.041 575.535 784.942C570.899 783.844 566.251 786.711 565.152 791.346C564.054 795.982 566.921 800.63 571.556 801.728C576.192 802.827 580.84 799.96 581.939 795.324Z" fill="#E5F0F8"/>
<path d="M880.742 901.076V754.094H696.276V901.076H880.742Z" fill="#E5F0F8"/>
<path d="M873.731 761.506H703.288V893.664H873.731V761.506Z" fill="white"/>
<path d="M703.288 893.664L751.474 835.172L785.325 877.084L833.087 796.485L873.731 893.664H703.288Z" fill="#E5F0F8"/>
<path d="M795.264 798.696C798.241 794.977 797.638 789.548 793.919 786.572C790.199 783.595 784.77 784.197 781.794 787.917C778.817 791.637 779.42 797.065 783.14 800.042C786.859 803.018 792.288 802.416 795.264 798.696Z" fill="#E5F0F8"/>
<path d="M434.44 918.572H282.987V928.769H434.44V918.572Z" fill="#E5F0F8"/>
<path d="M440.974 937.559H276.453V947.756H440.974V937.559Z" fill="#E5F0F8"/>
<path d="M450.947 968.684H266.481V976.136H450.947V968.684Z" fill="#E5F0F8"/>
<path d="M450.947 987.161H266.481V994.613H450.947V987.161Z" fill="#E5F0F8"/>
<path d="M450.947 1005.64H266.481V1013.09H450.947V1005.64Z" fill="#E5F0F8"/>
<path d="M450.947 1024.12H266.481V1031.57H450.947V1024.12Z" fill="#E5F0F8"/>
<path d="M450.947 1042.59H266.481V1050.05H450.947V1042.59Z" fill="#E5F0F8"/>
<path d="M450.947 1061.07H266.481V1068.52H450.947V1061.07Z" fill="#E5F0F8"/>
<path d="M450.947 1079.55H266.481V1087H450.947V1079.55Z" fill="#E5F0F8"/>
<path d="M450.947 1098.03H266.481V1105.48H450.947V1098.03Z" fill="#E5F0F8"/>
<path d="M450.947 1116.5H266.481V1123.96H450.947V1116.5Z" fill="#E5F0F8"/>
<path d="M450.947 1134.98H266.481V1142.43H450.947V1134.98Z" fill="#E5F0F8"/>
<path d="M342.435 1151.93H266.481V1159.38H342.435V1151.93Z" fill="#E5F0F8"/>
<path d="M864.236 918.572H712.783V928.769H864.236V918.572Z" fill="#E5F0F8"/>
<path d="M870.769 937.559H706.248V947.756H870.769V937.559Z" fill="#E5F0F8"/>
<path d="M880.742 968.684H696.276V976.136H880.742V968.684Z" fill="#E5F0F8"/>
<path d="M880.742 987.161H696.276V994.613H880.742V987.161Z" fill="#E5F0F8"/>
<path d="M880.742 1005.64H696.276V1013.09H880.742V1005.64Z" fill="#E5F0F8"/>
<path d="M880.742 1024.12H696.276V1031.57H880.742V1024.12Z" fill="#E5F0F8"/>
<path d="M880.742 1042.59H696.276V1050.05H880.742V1042.59Z" fill="#E5F0F8"/>
<path d="M880.742 1061.07H696.276V1068.52H880.742V1061.07Z" fill="#E5F0F8"/>
<path d="M880.742 1079.55H696.276V1087H880.742V1079.55Z" fill="#E5F0F8"/>
<path d="M880.742 1098.03H696.276V1105.48H880.742V1098.03Z" fill="#E5F0F8"/>
<path d="M880.742 1116.5H696.276V1123.96H880.742V1116.5Z" fill="#E5F0F8"/>
<path d="M880.742 1134.98H696.276V1142.43H880.742V1134.98Z" fill="#E5F0F8"/>
<path d="M772.23 1151.93H696.276V1159.38H772.23V1151.93Z" fill="#E5F0F8"/>
<path d="M649.338 918.572H497.885V928.769H649.338V918.572Z" fill="#E5F0F8"/>
<path d="M655.872 937.559H491.351V947.756H655.872V937.559Z" fill="#E5F0F8"/>
<path d="M665.844 968.684H481.378V976.136H665.844V968.684Z" fill="#E5F0F8"/>
<path d="M665.844 987.161H481.378V994.613H665.844V987.161Z" fill="#E5F0F8"/>
<path d="M665.844 1005.64H481.378V1013.09H665.844V1005.64Z" fill="#E5F0F8"/>
<path d="M665.844 1024.12H481.378V1031.57H665.844V1024.12Z" fill="#E5F0F8"/>
<path d="M665.844 1042.59H481.378V1050.05H665.844V1042.59Z" fill="#E5F0F8"/>
<path d="M665.844 1061.07H481.378V1068.52H665.844V1061.07Z" fill="#E5F0F8"/>
<path d="M665.844 1079.55H481.378V1087H665.844V1079.55Z" fill="#E5F0F8"/>
<path d="M665.844 1098.03H481.378V1105.48H665.844V1098.03Z" fill="#E5F0F8"/>
<path d="M665.844 1116.5H481.378V1123.96H665.844V1116.5Z" fill="#E5F0F8"/>
<path d="M665.844 1134.98H481.378V1142.43H665.844V1134.98Z" fill="#E5F0F8"/>
<path d="M557.332 1151.93H481.378V1159.38H557.332V1151.93Z" fill="#E5F0F8"/>
<path d="M450.947 1180.89H266.481V1224.72H450.947V1180.89Z" fill="#E5F0F8"/>
<path d="M441.332 1202.81L413.127 1186.52V1219.09L441.332 1202.81Z" fill="white"/>
<path d="M381.574 1192.02H272.533V1199.47H381.574V1192.02Z" fill="white"/>
<path d="M359.583 1206.14H272.533V1213.6H359.583V1206.14Z" fill="white"/>
<path d="M665.576 1180.89H481.11V1224.72H665.576V1180.89Z" fill="#E5F0F8"/>
<path d="M655.961 1202.81L627.756 1186.52V1219.09L655.961 1202.81Z" fill="white"/>
<path d="M596.203 1192.02H487.162V1199.47H596.203V1192.02Z" fill="white"/>
<path d="M574.212 1206.14H487.162V1213.6H574.212V1206.14Z" fill="white"/>
<path d="M880.205 1180.89H695.739V1224.72H880.205V1180.89Z" fill="#E5F0F8"/>
<path d="M870.591 1202.81L842.386 1186.52V1219.09L870.591 1202.81Z" fill="white"/>
<path d="M810.833 1192.02H701.792V1199.47H810.833V1192.02Z" fill="white"/>
<path d="M788.842 1206.14H701.792V1213.6H788.842V1206.14Z" fill="white"/>
<path d="M905.733 1245.98H241.747V1327.24H905.733V1245.98Z" fill="#E5F0F8"/>
<path d="M500.705 1259.65H402.021V1263.93H500.705V1259.65Z" fill="white"/>
<path d="M500.705 1267.92H402.021V1272.2H500.705V1267.92Z" fill="white"/>
<path d="M500.705 1276.19H402.021V1280.48H500.705V1276.19Z" fill="white"/>
<path d="M500.705 1284.47H402.021V1288.75H500.705V1284.47Z" fill="white"/>
<path d="M500.705 1292.74H402.021V1297.02H500.705V1292.74Z" fill="white"/>
<path d="M500.705 1301.01H402.021V1305.29H500.705V1301.01Z" fill="white"/>
<path d="M500.705 1309.28H402.021V1313.56H500.705V1309.28Z" fill="white"/>
<path d="M646.774 1263.93H745.458V1259.65H646.774V1263.93Z" fill="white"/>
<path d="M646.774 1272.2H745.458V1267.92H646.774V1272.2Z" fill="white"/>
<path d="M646.774 1280.48H745.458V1276.19H646.774V1280.48Z" fill="white"/>
<path d="M646.774 1288.75H745.458V1284.47H646.774V1288.75Z" fill="white"/>
<path d="M646.774 1297.02H745.458V1292.74H646.774V1297.02Z" fill="white"/>
<path d="M646.774 1305.29H745.458V1301.01H646.774V1305.29Z" fill="white"/>
<path d="M646.774 1313.56H745.458V1309.28H646.774V1313.56Z" fill="white"/>
<path d="M231.032 533.204C227.169 530.497 222.925 528.516 218.503 527.261C217.715 532.027 213.452 535.539 208.516 535.287C203.58 535.035 199.708 531.12 199.409 526.299C194.894 527.087 190.471 528.625 186.352 530.924C189.158 534.856 188.641 540.346 184.968 543.663C181.294 546.98 175.78 546.935 172.155 543.743C169.448 547.606 167.468 551.85 166.224 556.261C170.99 557.049 174.49 561.3 174.238 566.235C173.986 571.171 170.059 575.054 165.237 575.353C166.036 579.88 167.574 584.304 169.874 588.422C173.794 585.603 179.297 586.109 182.625 589.795C185.942 593.468 185.896 599.006 182.693 602.619C186.556 605.326 190.8 607.306 195.211 608.55C195.999 603.784 200.262 600.272 205.198 600.524C210.134 600.776 214.006 604.691 214.305 609.513C218.82 608.725 223.243 607.187 227.362 604.888C224.556 600.956 225.073 595.466 228.746 592.149C232.42 588.832 237.934 588.877 241.559 592.069C244.266 588.206 246.247 583.962 247.49 579.551C242.724 578.763 239.224 574.512 239.476 569.577C239.728 564.641 243.655 560.758 248.477 560.459C247.689 555.944 246.151 551.521 243.852 547.402C239.908 550.22 234.418 549.703 231.101 546.029C227.772 542.343 227.817 536.828 231.032 533.204ZM222.04 554.208C229.603 562.585 228.955 575.515 220.566 583.089C212.177 590.663 199.248 589.992 191.685 581.615C184.111 573.226 184.759 560.296 193.148 552.721C201.537 545.147 214.466 545.819 222.04 554.208Z" fill="white"/>
<path d="M188.672 661.053C183.131 672.24 169.567 676.832 158.363 671.282C147.159 665.733 142.592 652.16 148.134 640.973C153.683 629.769 167.248 625.178 178.451 630.727C189.654 636.276 194.221 649.849 188.672 661.053ZM213.935 661.761C215.148 656.686 215.46 651.515 214.953 646.455C209.73 647.583 204.384 644.625 202.636 639.446C200.888 634.266 203.34 628.691 208.179 626.423C205.533 622.099 202.151 618.174 198.111 614.872C195.208 619.358 189.35 621.059 184.444 618.629C179.538 616.199 177.342 610.508 179.151 605.481C174.076 604.267 168.905 603.956 163.862 604.471C164.99 609.694 162.04 615.024 156.861 616.772C151.681 618.52 146.089 616.06 143.821 611.221C139.488 613.884 135.564 617.265 132.262 621.306C136.756 624.192 138.473 630.059 136.035 634.981C133.605 639.887 127.889 642.092 122.87 640.266C121.656 645.341 121.345 650.512 121.86 655.555C127.083 654.427 132.429 657.385 134.177 662.564C135.925 667.744 133.473 673.319 128.634 675.587C131.281 679.911 134.662 683.836 138.702 687.137C141.605 682.651 147.463 680.95 152.369 683.38C157.275 685.81 159.471 691.501 157.662 696.528C162.737 697.741 167.908 698.053 172.951 697.538C171.823 692.315 174.773 686.985 179.952 685.237C185.132 683.489 190.724 685.949 192.992 690.788C197.316 688.142 201.241 684.761 204.542 680.72C200.04 677.809 198.339 671.951 200.769 667.045C203.208 662.123 208.899 659.927 213.935 661.761Z" fill="white"/>
<path d="M563.416 797.896H1651.88C1667.86 797.896 1681.19 783.029 1682.06 763.922C1685.36 691.916 1704.05 593.705 1601.47 548.235C1498.27 502.486 1394.01 554.072 1394.01 554.072C1394.01 554.072 1378.16 309.821 1137.79 310.249C916.5 310.643 817.354 535.467 817.354 535.467C817.354 535.467 624.182 462.472 535.146 748.732C527.753 772.503 542.228 797.896 563.416 797.896Z" fill="#BBDBF3"/>
<path d="M753.505 887.385H702.393C688.641 887.385 677.492 876.237 677.492 862.484V770.745H778.405V862.484C778.406 876.237 767.258 887.385 753.505 887.385Z" fill="#BBDBF3"/>
<path d="M1462.33 887.385H1513.44C1527.2 887.385 1538.34 876.237 1538.34 862.484V770.745H1437.43V862.484C1437.43 876.237 1448.58 887.385 1462.33 887.385Z" fill="#BBDBF3"/>
<path d="M1133.47 887.385H1082.36C1068.61 887.385 1057.46 876.237 1057.46 862.484V770.745H1158.37V862.484C1158.38 876.237 1147.23 887.385 1133.47 887.385Z" fill="#BBDBF3"/>
<path d="M979.325 493.247H1005.66L1097.4 707.584H1063.49L1041.99 654.604H939.973L918.776 707.584H884.87L979.325 493.247ZM1031.39 629.175L991.435 530.784H990.829L950.265 629.175H1031.39Z" fill="white"/>
<path d="M1125.24 493.247H1200.63C1214.35 493.247 1225.65 495.115 1234.53 498.846C1243.41 502.583 1250.42 507.324 1255.57 513.076C1260.72 518.828 1264.3 525.288 1266.32 532.453C1268.34 539.617 1269.35 546.53 1269.35 553.188C1269.35 559.849 1268.34 566.765 1266.32 573.926C1264.3 581.094 1260.72 587.551 1255.57 593.302C1250.42 599.054 1243.41 603.799 1234.53 607.529C1225.65 611.266 1214.35 613.131 1200.63 613.131H1154.3V707.584H1125.24V493.247H1125.24ZM1154.3 587.699H1192.45C1198.1 587.699 1203.7 587.246 1209.25 586.338C1214.8 585.429 1219.74 583.765 1224.09 581.342C1228.42 578.922 1231.9 575.44 1234.53 570.9C1237.15 566.359 1238.47 560.454 1238.47 553.188C1238.47 545.925 1237.15 540.02 1234.53 535.479C1231.9 530.938 1228.42 527.457 1224.09 525.033C1219.74 522.613 1214.8 520.949 1209.25 520.04C1203.7 519.131 1198.1 518.675 1192.45 518.675H1154.3V587.699Z" fill="white"/>
<path d="M1304.76 493.247H1333.82V707.584H1304.76V493.247Z" fill="white"/>
<path d="M1487.89 829.064V1468.15" stroke="#BBDBF3" stroke-width="19.7272" stroke-miterlimit="10" stroke-linecap="round"/>
<path d="M1107.92 829.064V1468.15" stroke="#BBDBF3" stroke-width="19.7272" stroke-miterlimit="10" stroke-linecap="round"/>
<path d="M727.949 829.064V1468.15" stroke="#BBDBF3" stroke-width="19.7272" stroke-miterlimit="10" stroke-linecap="round"/>
<path d="M1372.78 950.087C1385.66 957.016 1401.86 952.152 1408.79 939.277L1460.88 842.5C1467.8 829.625 1462.94 813.421 1450.07 806.492C1437.19 799.563 1420.99 804.427 1414.06 817.302L1361.97 914.079C1355.04 926.955 1359.91 943.158 1372.78 950.087Z" fill="#F74242"/>
<path d="M1409.97 932.307C1411.37 917.682 1401.95 904.704 1389.05 903.467L1276.37 907.639C1272.58 906.952 1268.27 906.004 1264.8 904.785C1256.73 901.95 1233.9 896.834 1233.19 900.127C1232.47 903.42 1247.4 910.097 1245.97 911.234C1244.54 912.371 1232.44 910.032 1227.36 908.625C1222.29 907.218 1211.88 902.448 1209.46 904.346C1207.03 906.244 1208.81 910.418 1208.81 910.418C1208.81 910.418 1205.07 908.112 1204.08 910.727C1203.09 913.343 1208.06 918.352 1208.06 918.352C1208.06 918.352 1206.1 916.856 1205.73 920.012C1205.36 923.167 1215.3 928.083 1215.3 928.083C1215.3 928.083 1213.09 927.88 1213.13 930.312C1213.17 932.744 1226.95 937.757 1237.64 938.101C1247.19 938.408 1269.94 936.62 1274.72 936.232L1383.95 956.647C1396.86 957.885 1408.57 946.932 1409.97 932.307Z" fill="#FDAE97"/>
<path d="M1505.64 724.586C1505.64 724.586 1519.31 734.863 1516.01 755.62C1512.71 776.377 1510.86 787.61 1524 788.876C1537.13 790.142 1563.59 782.687 1565.46 800.314C1567.34 817.941 1554.76 829.484 1573.23 832.998C1591.71 836.512 1593.89 860.403 1593.89 860.403C1593.89 860.403 1527.13 901.094 1464.8 861.922C1402.46 822.75 1469.87 797.345 1469.87 797.345L1505.64 724.586Z" fill="#322A28"/>
<path d="M1491.16 982.287C1508.56 1005.08 1515.12 1052.32 1504.02 1103.22C1492.93 1154.11 1489.18 1187.57 1489.18 1187.57C1486.28 1211.13 1464.84 1227.88 1441.28 1224.99C1417.72 1222.1 1400.97 1200.65 1403.86 1177.1L1421.56 982.287H1491.16Z" fill="#0775EF"/>
<path d="M1495 795.466L1541.52 816.537C1541.52 816.537 1531.18 936.301 1530.11 949.402C1529.04 962.503 1533.05 982.288 1533.05 982.288H1421.56C1421.56 982.288 1422.89 918.121 1415.41 900.207C1410.34 888.072 1406.85 880.689 1409.79 866.787C1412.73 852.884 1434.25 828.306 1430.78 804.243L1455.05 796.47L1495 795.466Z" fill="#E5F0F8"/>
<path d="M1463.83 959.488C1476.5 966.799 1492.84 962.42 1500.15 949.758L1555.1 854.579C1562.41 841.917 1558.03 825.575 1545.37 818.265C1532.71 810.954 1516.37 815.333 1509.06 827.995L1454.1 923.174C1446.79 935.836 1451.17 952.178 1463.83 959.488Z" fill="#F74242"/>
<path d="M1447.18 724.956C1447.18 724.956 1440.24 709.644 1455.26 704.333L1447.18 724.956Z" fill="#332B27"/>
<path d="M1495.19 795.458L1495.16 795.489C1494.66 796.364 1486.22 810.584 1470.25 809.396C1456.13 808.333 1455.06 796.458 1455.06 796.458V742.356H1489.44L1495.19 795.458Z" fill="#FDAE97"/>
<path d="M1455.06 790.297L1479.05 764.214L1455.05 773.23L1455.06 790.297Z" fill="#E89780"/>
<path d="M1478.3 767.693C1467.35 774.741 1454.13 775.253 1445.95 770.204C1437.76 765.185 1438.59 752.845 1440.65 744.949C1440.66 744.918 1440.66 744.918 1440.67 744.888C1441.1 743.255 1441.71 740.959 1442.4 738.357C1445.05 728.158 1448.97 713.054 1448.97 713.054C1450.63 705.089 1472.52 686.454 1494.82 708.751C1517.12 731.079 1489.24 760.645 1478.3 767.693Z" fill="#FDAE97"/>
<path d="M1449.56 709.837C1449.56 709.837 1450.22 719.278 1463.71 725.072C1477.2 730.866 1490.15 740.029 1489.12 754.051C1488.08 768.073 1493.18 775.76 1493.18 775.76C1493.18 775.76 1494.46 758.286 1502.66 743.208C1505.84 737.359 1508.34 725.186 1502.28 715.015C1492.72 698.965 1469.2 687.412 1449.56 709.837Z" fill="#322A28"/>
<path d="M1486.73 751.14C1484.05 755.461 1483.36 758.486 1486.75 760.592C1490.14 762.697 1495.73 761.947 1498.41 757.627C1501.09 753.307 1500.52 748.097 1497.13 745.992C1493.73 743.885 1489.42 746.819 1486.73 751.14Z" fill="#FDAE97"/>
<path d="M1494.31 753.984C1491.49 752.743 1489.12 754.049 1489.12 754.049C1490.84 749.173 1496.69 750.886 1496.69 750.886" stroke="#E89780" stroke-width="0.6316" stroke-miterlimit="10" stroke-linecap="round" stroke-linejoin="round"/>
<path d="M1466.53 739.064C1466.08 740.976 1464.71 742.29 1463.48 741.998C1462.24 741.706 1461.6 739.92 1462.05 738.007C1462.51 736.095 1463.87 734.781 1465.11 735.073C1466.35 735.365 1466.99 737.152 1466.53 739.064Z" fill="#332B27"/>
<path d="M1450.55 733.725C1450.1 735.637 1448.73 736.951 1447.49 736.659C1446.25 736.367 1445.62 734.581 1446.07 732.668C1446.52 730.756 1447.89 729.442 1449.12 729.734C1450.36 730.026 1451 731.813 1450.55 733.725Z" fill="#332B27"/>
<path d="M1389.51 1363.14H1477.05L1489.88 1187.26L1490.21 1182.18C1490.21 1158.05 1470.33 1138.6 1446.03 1139.33C1424.12 1139.96 1405.77 1157.79 1404.47 1179.69L1389.51 1363.14Z" fill="#0775EF"/>
<path d="M1471.8 736.249C1471.8 736.249 1469.08 730.578 1464.2 731.246" stroke="#332B27" stroke-width="0.9376" stroke-miterlimit="10"/>
<path d="M1451.69 727.392C1451.69 727.392 1449.02 726.214 1445.34 728.533" stroke="#332B27" stroke-width="0.9376" stroke-miterlimit="10"/>
<path d="M1499.64 1363.14H1593.81L1575.29 1179.97L1575.22 1179.17C1573.67 1156.9 1554.83 1139.31 1531.86 1139.31C1507.84 1139.31 1488.39 1158.49 1488.39 1182.19C1488.39 1183.52 1488.46 1184.82 1488.59 1186.08L1499.64 1363.14Z" fill="#088CFC"/>
<path d="M1456.26 735.362C1456.26 735.362 1453.8 744.785 1447.97 744.632C1447.97 744.632 1449.36 746.659 1451.42 747.845" stroke="#332B27" stroke-width="0.9376" stroke-miterlimit="10"/>
<path d="M1533.05 982.287C1555.13 1000.58 1570.21 1039.6 1570.84 1091.69C1571.48 1143.78 1575.35 1177.22 1575.35 1177.22C1577.83 1200.83 1560.71 1221.98 1537.1 1224.46C1513.5 1226.94 1492.35 1209.81 1489.87 1186.21L1456.51 982.287H1533.05Z" fill="#088CFC"/>
<path d="M1498.38 797C1498.38 797 1471.09 833.382 1465.85 871.793C1460.61 910.204 1477.56 952.907 1482.12 993.911C1486.68 1034.92 1509.49 1203.87 1509.49 1203.87H1585.39C1585.39 1203.87 1589.18 1091.14 1575.59 1045.14C1562.01 999.131 1541.52 816.537 1541.52 816.537L1498.38 797Z" fill="#F74242"/>
<path d="M1448.62 755.513C1448.62 755.513 1454.18 759.576 1460.23 753.812" stroke="#332B27" stroke-width="0.9376" stroke-miterlimit="10"/>
<path d="M1474.91 747.4C1475.05 749.443 1471.91 751.317 1467.91 751.586C1463.9 751.855 1460.54 750.417 1460.41 748.374C1460.27 746.331 1463.4 744.457 1467.41 744.188C1471.42 743.919 1474.77 745.357 1474.91 747.4Z" fill="#E89780"/>
<path d="M1444.87 743.751C1444.26 744.864 1442.64 745.236 1440.67 744.887C1441.1 743.254 1441.71 740.958 1442.4 738.356C1444.58 740.194 1445.66 742.36 1444.87 743.751Z" fill="#E89780"/>
<path d="M1495.63 693.085C1489.02 697.915 1489.52 709.843 1496.75 719.725C1503.97 729.608 1515.18 733.704 1521.79 728.874C1528.4 724.044 1527.9 712.117 1520.68 702.234C1513.45 692.351 1502.24 688.255 1495.63 693.085Z" fill="#322A28"/>
<path d="M1485.2 760.647C1484.8 762.408 1485.91 764.158 1487.67 764.555C1489.43 764.952 1491.18 763.846 1491.58 762.085C1491.98 760.324 1490.87 758.574 1489.11 758.177C1487.35 757.78 1485.6 758.886 1485.2 760.647Z" stroke="white" stroke-width="0.8298" stroke-miterlimit="10"/>
<path d="M1501.32 1457.93H1580.32L1579.96 1450.29L1578.76 1426.16L1579.2 1363.14H1521.96L1536.54 1426.16L1501.32 1457.93Z" fill="#FDAE97"/>
<path d="M1367.15 1457.93H1450.55L1450.67 1450.29L1452.23 1426.16L1458.83 1363.14H1400.9L1402.37 1426.16L1375.62 1450.29L1367.15 1457.93Z" fill="#FDAE97"/>
<path d="M1580.33 1457.93H1501.33C1501.5 1454.85 1502.07 1451.87 1503.04 1449.05C1507.56 1435.69 1520.17 1426.16 1534.94 1426.16H1578.75L1579.93 1449.05L1579.98 1450.28L1580.33 1457.93Z" fill="#322A28"/>
<path d="M1452.24 1426.16L1450.9 1449.05L1450.68 1450.28L1450.53 1457.93H1367.13L1367.48 1455.82C1367.88 1453.45 1368.45 1451.21 1369.28 1449.05C1371.39 1443.34 1374.95 1438.42 1379.48 1434.6C1385.67 1429.32 1393.71 1426.16 1402.37 1426.16H1452.24Z" fill="#322A28"/>
<path d="M1533.79 1435.53H1519.52" stroke="white" stroke-width="0.8298" stroke-miterlimit="10"/>
<path d="M1529.26 1441.06H1514.99" stroke="white" stroke-width="0.8298" stroke-miterlimit="10"/>
<path d="M1396.96 1435.53H1382.7" stroke="white" stroke-width="0.8298" stroke-miterlimit="10"/>
<path d="M1392.43 1441.06H1378.16" stroke="white" stroke-width="0.8298" stroke-miterlimit="10"/>
<path d="M1557.38 1439.22C1557.38 1442.56 1560.08 1445.26 1563.42 1445.26C1566.76 1445.26 1569.46 1442.56 1569.46 1439.22C1569.46 1435.88 1566.76 1433.18 1563.42 1433.18C1560.08 1433.18 1557.38 1435.88 1557.38 1439.22Z" fill="white"/>
<path d="M1423.4 1439.22C1423.4 1442.56 1426.1 1445.26 1429.44 1445.26C1432.78 1445.26 1435.48 1442.56 1435.48 1439.22C1435.48 1435.88 1432.78 1433.18 1429.44 1433.18C1426.1 1433.18 1423.4 1435.88 1423.4 1439.22Z" fill="white"/>
<path d="M1449.56 798.228C1449.56 798.228 1437.58 827.556 1435.62 869.028C1433.65 910.5 1415.88 1203.87 1415.88 1203.87H1379.6C1379.6 1203.87 1419.79 945.751 1414.58 919.386C1409.36 893.022 1398.9 877.618 1403.54 861.326C1408.18 845.034 1430.78 804.243 1430.78 804.243L1449.56 798.228Z" fill="#F74242"/>
<path d="M1416.79 904.365C1416.79 904.365 1408.61 886.472 1408.87 873.02C1409.12 859.567 1418.32 847.839 1418.32 847.839" stroke="white" stroke-width="1.2631" stroke-miterlimit="10"/>
<path d="M1450.9 1449.05L1450.53 1457.93H1367.13L1367.48 1455.82C1367.88 1453.45 1368.45 1451.2 1369.28 1449.05H1450.9Z" fill="white"/>
<path d="M1580.33 1457.93H1501.33C1501.5 1454.85 1502.07 1451.86 1503.04 1449.05H1579.93L1579.98 1450.28L1580.33 1457.93Z" fill="white"/>
<path d="M1526.22 1381.53L1579.17 1367.06L1579.2 1363.14H1521.96L1526.22 1381.53Z" fill="#E89780"/>
<path d="M1313.22 964.893C1398.77 964.502 1488.92 968.236 1500.1 1070.1C1511.28 1171.97 1461.01 1422.61 1767.42 1426.16" stroke="#93ACBF" stroke-width="19.7272" stroke-miterlimit="10" stroke-linecap="round"/>
<path d="M1401.33 1381.53L1458.83 1368.17V1363.14H1400.9L1401.33 1381.53Z" fill="#E89780"/>
<path d="M1275.28 904.427L1273.14 953.765C1273.14 953.765 1371.5 982.496 1398.54 954.596C1425.58 926.696 1399.72 898.033 1380.23 898.689C1360.74 899.343 1275.28 904.427 1275.28 904.427Z" fill="#F74242"/>
<path d="M1062.49 899.56C1062.49 888.99 1071.06 880.422 1081.63 880.422H1226.44V918.698H1081.63C1071.06 918.698 1062.49 910.129 1062.49 899.56Z" fill="#93ACBF"/>
<path d="M1062.49 1021.19C1062.49 1031.76 1071.06 1040.33 1081.63 1040.33H1226.44V1002.05H1081.63C1071.06 1002.05 1062.49 1010.62 1062.49 1021.19Z" fill="#93ACBF"/>
<path d="M1182.21 1070.1V850.649H1269.82C1330.42 850.649 1379.55 899.775 1379.55 960.375C1379.55 1020.98 1330.42 1070.1 1269.82 1070.1H1182.21Z" fill="#586773"/>
<path d="M1196.17 1084.88V835.872H1160.45V1084.88H1196.17Z" fill="#93ACBF"/>
<path d="M1280.87 904.387C1271.25 904.387 1263.43 896.564 1263.43 886.944C1263.43 883.821 1264.25 880.919 1265.67 878.396C1267.47 875.179 1270.28 872.592 1273.68 871.078C1275.86 870.068 1278.32 869.501 1280.88 869.501C1290.5 869.501 1298.32 877.324 1298.32 886.944C1298.32 890.035 1297.5 892.937 1296.08 895.46C1294.28 898.677 1291.51 901.264 1288.1 902.778C1285.89 903.819 1283.46 904.387 1280.87 904.387Z" fill="#F9ECB8"/>
<path d="M1288.1 902.777L1265.67 878.395C1267.47 875.178 1270.28 872.591 1273.68 871.077L1296.08 895.459C1294.28 898.677 1291.5 901.263 1288.1 902.777Z" fill="#F9E181"/>
<path d="M1280.87 1016.37C1271.25 1016.37 1263.43 1024.19 1263.43 1033.81C1263.43 1036.93 1264.25 1039.83 1265.67 1042.36C1267.47 1045.57 1270.28 1048.16 1273.68 1049.67C1275.86 1050.68 1278.32 1051.25 1280.88 1051.25C1290.5 1051.25 1298.32 1043.43 1298.32 1033.81C1298.32 1030.72 1297.5 1027.82 1296.08 1025.29C1294.28 1022.08 1291.51 1019.49 1288.1 1017.97C1285.89 1016.93 1283.46 1016.37 1280.87 1016.37Z" fill="#F9ECB8"/>
<path d="M1288.1 1017.97L1265.67 1042.36C1267.47 1045.57 1270.28 1048.16 1273.68 1049.67L1296.08 1025.29C1294.28 1022.08 1291.5 1019.49 1288.1 1017.97Z" fill="#F9E181"/>
<path d="M1234.1 1003.76V916.997C1234.1 915.126 1235.63 913.595 1237.5 913.595C1239.37 913.595 1240.9 915.126 1240.9 916.997V1003.76C1240.9 1005.63 1239.37 1007.16 1237.5 1007.16C1235.63 1007.16 1234.1 1005.63 1234.1 1003.76Z" fill="#93ACBF"/>
<path d="M1250.68 1003.76V916.997C1250.68 915.126 1252.21 913.595 1254.08 913.595C1255.95 913.595 1257.49 915.126 1257.49 916.997V1003.76C1257.49 1005.63 1255.95 1007.16 1254.08 1007.16C1252.21 1007.16 1250.68 1005.63 1250.68 1003.76Z" fill="#93ACBF"/>
<path d="M1267.27 1003.76V916.997C1267.27 915.126 1268.8 913.595 1270.67 913.595C1272.54 913.595 1274.07 915.126 1274.07 916.997V1003.76C1274.07 1005.63 1272.54 1007.16 1270.67 1007.16C1268.8 1007.16 1267.27 1005.63 1267.27 1003.76Z" fill="#93ACBF"/>
<path d="M1283.85 1003.76V916.997C1283.85 915.126 1285.39 913.595 1287.26 913.595C1289.13 913.595 1290.66 915.126 1290.66 916.997V1003.76C1290.66 1005.63 1289.13 1007.16 1287.26 1007.16C1285.39 1007.16 1283.85 1005.63 1283.85 1003.76Z" fill="#93ACBF"/>
<path d="M1300.44 1003.76V916.997C1300.44 915.126 1301.97 913.595 1303.84 913.595C1305.71 913.595 1307.24 915.126 1307.24 916.997V1003.76C1307.24 1005.63 1305.71 1007.16 1303.84 1007.16C1301.97 1007.16 1300.44 1005.63 1300.44 1003.76Z" fill="#93ACBF"/>
<path d="M1317.03 1003.76V916.997C1317.03 915.126 1318.56 913.595 1320.43 913.595C1322.3 913.595 1323.83 915.126 1323.83 916.997V1003.76C1323.83 1005.63 1322.3 1007.16 1320.43 1007.16C1318.56 1007.16 1317.03 1005.63 1317.03 1003.76Z" fill="#93ACBF"/>
<path d="M1291.43 973.36C1291.66 970.573 1295.89 971.752 1295.89 971.752C1295.89 971.752 1293.03 968.234 1294.83 965.738C1296.64 963.242 1307.95 964.946 1313.22 964.892C1318.49 964.838 1330.76 963.737 1331.83 962.247C1332.89 960.757 1316.69 958.476 1316.46 955.114C1316.24 951.752 1339.59 950.347 1348.13 950.837C1351.8 951.048 1356.21 950.766 1360.04 950.377L1467.16 915.171C1479.9 912.786 1492.54 922.65 1495.25 937.091C1497.95 951.532 1489.73 965.299 1476.98 967.685L1366.37 978.31C1361.89 980.006 1340.51 988.025 1331.26 990.372C1320.89 993.001 1306.26 992 1305.55 989.674C1304.83 987.349 1307.02 986.93 1307.02 986.93C1307.02 986.93 1296.1 984.96 1295.59 981.825C1295.07 978.69 1297.36 979.586 1297.36 979.586C1297.36 979.586 1291.2 976.147 1291.43 973.36Z" fill="#FDAE97"/>
<path d="M1359.91 943.283L1368.21 986.501C1368.21 986.501 1462.34 979.232 1482.43 967.019C1502.53 954.806 1498.07 942.956 1495.27 933.493C1492.47 924.03 1482.05 910.59 1467.92 913.386C1453.79 916.181 1359.91 943.283 1359.91 943.283Z" fill="#F74242"/>
<path d="M1465.88 902.778L1490 858.374" stroke="white" stroke-width="1.2631" stroke-miterlimit="10"/>
<path d="M1477.94 969.208C1477.94 969.208 1503.83 958.651 1512.88 939.234C1521.92 919.817 1531.5 896.411 1531.5 896.411" stroke="white" stroke-width="1.2631" stroke-miterlimit="10"/>
<path d="M946.883 1028.32C946.054 1030.56 931.607 1030.44 921.618 1027.06C913.149 1024.21 894.332 1015.53 888.804 1012.94L899.25 978.988C902.785 979.598 910.127 980.142 913.457 980.926C922.317 983.012 939.273 990.264 938.793 993.572C938.343 996.853 922.855 993.744 923.791 995.289C924.727 996.834 936.094 1002.96 941.248 1003.4C946.429 1003.87 957.652 1003.04 959.232 1005.62C960.84 1008.22 957.731 1011.44 957.731 1011.44C957.731 1011.44 961.99 1010.63 962.009 1013.38C962.028 1016.13 955.719 1019.05 955.719 1019.05C955.719 1019.05 958.013 1018.33 957.284 1021.36C956.525 1024.42 945.667 1025.53 945.667 1025.53C945.667 1025.53 947.771 1026.09 946.883 1028.32Z" fill="#FDAE97"/>
<path d="M901.315 972.28L794.56 929.383C781.727 924.667 766.841 932.674 761.454 947.216C756.101 961.758 762.224 977.541 775.057 982.29L886.282 1021.14L901.315 972.28Z" fill="#F74242"/>
<path d="M762.739 853.216L709.098 852.305L711.908 795.98L713.249 769.045L713.325 767.704L755.297 750.059L756.664 769.096L757.676 782.968L762.739 853.216Z" fill="#FDAE97"/>
<path d="M657.835 1027.57L635.278 1214.29C634.569 1219.01 634.592 1223.92 635.555 1228.87C640.087 1252.19 662.662 1267.42 685.977 1262.88C709.292 1258.35 718.215 1240.35 722.403 1213.58C730.442 1162.19 758.518 1008 758.518 1008L657.835 1027.57Z" fill="#B86B76"/>
<path d="M804.098 1018.17L721.237 1023.73L721.65 1115.53L731.485 1130.07L740.601 1218.57L824.476 1211.86L804.098 1018.17Z" fill="#B86B76"/>
<path d="M736.615 829.661C756.297 830.094 765.876 819.297 767.939 814.536L759.382 812.225L711.176 810.694L705.328 812.566C707.796 817.16 716.507 829.218 736.615 829.661Z" fill="#FDAE97"/>
<path d="M803.512 998.095L803.85 998.09C818.696 997.846 830.642 985.499 830.398 970.654L828.408 849.693C828.164 834.847 815.818 822.901 800.972 823.145L800.634 823.15C785.788 823.394 773.842 835.74 774.086 850.586L776.076 971.548C776.321 986.393 788.667 998.339 803.512 998.095Z" fill="#F74242"/>
<path d="M806.463 952.116L805.617 1032.61H657.226L657.911 829.682L709.904 810.896C710.487 811.964 711.118 813.08 711.894 814.245L712.088 814.488C714.904 818.08 720.292 821.479 735.39 821.819C747.963 822.11 754.129 820.363 757.624 818.081L757.673 818.032C759.566 816.77 761.071 814.277 761.945 812.918L810.637 824.731L807.336 927.164L806.463 952.116Z" fill="white"/>
<path d="M767.938 814.536C767.938 814.536 763.727 889.631 764.333 933.038C764.94 976.444 767.938 1086.14 767.938 1086.14C767.938 1086.14 795.427 1086.72 820.713 1081.6C820.713 1081.6 821.094 1031.91 814.123 997.633C807.151 963.361 810.638 824.731 810.638 824.731L767.938 814.536Z" fill="#F74242"/>
<path d="M695.634 1000.3L695.965 1000.24C710.513 997.268 719.988 982.938 717.021 968.39L692.842 849.853C689.875 835.305 675.544 825.83 660.996 828.797L660.665 828.865C646.117 831.833 636.642 846.163 639.609 860.711L663.788 979.248C666.755 993.796 681.086 1003.27 695.634 1000.3Z" fill="#F74242"/>
<path d="M619.569 1403.82L697.509 1403.77L721.003 1222.39C723.456 1198.76 706.321 1177.59 682.716 1175.1C659.079 1172.65 637.947 1189.78 635.459 1213.39C635.235 1215.44 635.209 1217.45 635.284 1219.48L621.716 1378.67L619.569 1403.82Z" fill="#B86B76"/>
<path d="M740.302 1215.31L760.317 1403.82H836.888L824.611 1214.28C824.711 1212.28 824.145 1210.05 823.978 1207.98C821.88 1184.31 803.067 1166.63 779.393 1168.69C755.752 1170.79 738.238 1191.63 740.302 1215.31Z" fill="#B86B76"/>
<path d="M765.828 737.523C765.828 737.523 772.96 719.718 764.22 721.348C755.481 722.979 765.828 737.523 765.828 737.523Z" fill="#322A28"/>
<path d="M705.328 812.565C705.328 812.565 725.62 917.765 726.302 970.053C726.984 1022.34 726.984 1022.34 726.984 1022.34L724.66 1086.14C724.66 1086.14 668.125 1093.15 648.359 1085.08C648.359 1085.08 646.979 1009.35 652.232 982.539C657.485 955.725 657.911 829.681 657.911 829.681L705.328 812.565Z" fill="#F74242"/>
<path d="M759.156 803.496L729.003 781.51L757.676 782.968L759.156 803.496Z" fill="#EA9D85"/>
<path d="M715.752 1070.7C715.752 1070.7 674.6 1077.51 655.428 1070.7" stroke="white" stroke-width="1.4363" stroke-miterlimit="10" stroke-linecap="round" stroke-linejoin="round"/>
<path d="M765.223 723.523C765.223 723.523 766.93 741.47 768.14 754.2L769.141 764.721C769.932 773.034 768.773 785.588 759.688 789.331C750.634 793.071 737.41 790.398 727.528 781.526C717.643 772.623 693.587 730.585 719.683 711.729C745.809 692.869 764.171 719.29 765.223 723.523Z" fill="#FDAE97"/>
<path d="M777.722 835.268C777.722 835.268 773.639 900.917 772.195 929.966C770.751 959.015 777.722 1061.26 777.722 1061.26" stroke="white" stroke-width="1.4363" stroke-miterlimit="10" stroke-linecap="round" stroke-linejoin="round"/>
<path d="M712.379 783.957C712.379 783.957 719.18 772.587 718.72 766.393C718.26 760.199 725.361 753.229 724.215 743.716C723.07 734.203 722.612 730.194 727.536 730.653C732.46 731.112 767.275 738.898 768.191 722.407C769.107 705.916 727.973 689.997 711.378 717.941C711.378 717.941 700.344 717.436 703.715 740.829C707.088 764.22 711.995 768.205 712.379 783.957Z" fill="#322A28"/>
<path d="M696.651 822.874C696.651 822.874 704.381 887.168 709.098 918.927C713.815 950.686 714.632 1028.97 715.752 1057.97" stroke="white" stroke-width="1.4363" stroke-miterlimit="10" stroke-linecap="round" stroke-linejoin="round"/>
<path d="M722.834 761.871C726.563 766.645 727.77 770.14 724.022 773.067C720.274 775.994 713.562 775.821 709.833 771.047C706.104 766.273 706.12 760.03 709.868 757.102C713.616 754.174 719.105 757.097 722.834 761.871Z" fill="#FDAE97"/>
<path d="M742.591 749.232C742.774 751.16 743.934 752.627 745.182 752.509C746.429 752.39 747.292 750.731 747.109 748.803C746.926 746.875 745.766 745.408 744.518 745.526C743.271 745.645 742.408 747.304 742.591 749.232Z" fill="#322A28"/>
<path d="M765.916 747.014C766.099 748.942 765.237 750.602 763.989 750.72C762.742 750.839 761.582 749.372 761.398 747.443C761.215 745.515 762.077 743.855 763.325 743.737C764.573 743.619 765.733 745.086 765.916 747.014Z" fill="#322A28"/>
<path d="M747.392 761.624C746.967 763.452 743.676 764.249 740.041 763.405C736.406 762.561 733.804 760.394 734.229 758.565C734.654 756.737 737.945 755.94 741.58 756.784C745.215 757.629 747.817 759.796 747.392 761.624Z" fill="#EA9D85"/>
<path d="M768.14 754.2L768.791 761.041C765.94 761.653 763.502 761.08 762.96 759.614C762.361 757.876 764.669 755.459 768.14 754.2Z" fill="#EA9D85"/>
<path d="M713.988 767.002C717.081 766.108 719.727 766.456 719.727 766.456C716.421 761.47 712.38 762.472 712.38 762.472" stroke="#EA9D85" stroke-width="1.3993" stroke-miterlimit="10" stroke-linecap="round" stroke-linejoin="round"/>
<path d="M752.311 749.655L757.738 761.564C758.288 762.771 757.945 764.197 756.907 765.022L755.3 766.299L753.653 767.608" stroke="#332B27" stroke-width="0.8951" stroke-miterlimit="10"/>
<path d="M739.382 745.578C739.382 745.578 743.123 741.104 748.072 741.961" stroke="#332B27" stroke-width="0.8951" stroke-miterlimit="10"/>
<path d="M767.443 740.828C767.443 740.828 763.849 738.006 759.516 740.547" stroke="#332B27" stroke-width="0.8951" stroke-miterlimit="10"/>
<path d="M771.366 1433.29L769.313 1403.82H826.682L828.923 1433.29H771.366Z" fill="#FDAE97"/>
<path d="M827.697 1417.17L769.313 1403.82H826.682L827.697 1417.17Z" fill="#EA9D85"/>
<path d="M686.212 1433.29L688.413 1403.78L629.651 1403.82L628.655 1433.29H686.212Z" fill="#FDAE97"/>
<path d="M687.185 1420.24L629.651 1403.82L688.413 1403.78L687.185 1420.24Z" fill="#EA9D85"/>
<path d="M857.194 1458.07H772.48L772.335 1454.62L771.295 1431.79H828.94C836.076 1431.79 842.679 1435.98 847.727 1440.35C851.902 1444.09 855.009 1448.99 856.466 1454.62C856.806 1455.74 857.048 1456.9 857.194 1458.07Z" fill="#322A28"/>
<path d="M857.194 1458.07H772.48L772.335 1454.62H856.466C856.806 1455.74 857.048 1456.9 857.194 1458.07Z" fill="#FFF1F0"/>
<path d="M830.675 1436.48C830.675 1436.48 823.353 1423.63 818.421 1428.71C813.49 1433.8 830.675 1436.48 830.675 1436.48Z" stroke="#FFF1F0" stroke-width="1.1083" stroke-miterlimit="10" stroke-linecap="round" stroke-linejoin="round"/>
<path d="M828.097 1439.04L830.675 1436.48M830.675 1436.48C830.675 1436.48 837.997 1423.63 842.929 1428.71C847.86 1433.79 830.675 1436.48 830.675 1436.48Z" stroke="#FFF1F0" stroke-width="1.1083" stroke-miterlimit="10" stroke-linecap="round" stroke-linejoin="round"/>
<path d="M832.642 1439.04L830.675 1436.48" stroke="#FFF1F0" stroke-width="1.1083" stroke-miterlimit="10" stroke-linecap="round" stroke-linejoin="round"/>
<path d="M600.824 1458.07H685.538L685.683 1454.62L686.723 1431.79H629.078C621.941 1431.79 615.339 1435.98 610.29 1440.35C606.115 1444.09 603.008 1448.99 601.551 1454.62C601.212 1455.74 600.969 1456.9 600.824 1458.07Z" fill="#322A28"/>
<path d="M600.824 1458.07H685.538L685.683 1454.62H601.552C601.212 1455.74 600.969 1456.9 600.824 1458.07Z" fill="#FFF1F0"/>
<path d="M627.343 1437.26C627.343 1437.26 634.665 1424.41 639.597 1429.49C644.528 1434.57 627.343 1437.26 627.343 1437.26Z" stroke="#FFF1F0" stroke-width="1.1083" stroke-miterlimit="10" stroke-linecap="round" stroke-linejoin="round"/>
<path d="M629.921 1439.82L627.343 1437.26M627.343 1437.26C627.343 1437.26 620.021 1424.41 615.089 1429.49C610.158 1434.57 627.343 1437.26 627.343 1437.26Z" stroke="#FFF1F0" stroke-width="1.1083" stroke-miterlimit="10" stroke-linecap="round" stroke-linejoin="round"/>
<path d="M625.376 1439.82L627.343 1437.26" stroke="#FFF1F0" stroke-width="1.1083" stroke-miterlimit="10" stroke-linecap="round" stroke-linejoin="round"/>
<path d="M733.389 1148.56L740.137 1126.03H746.603L756.898 1098.15" stroke="white" stroke-width="0.7282" stroke-miterlimit="10" stroke-linecap="round" stroke-linejoin="round"/>
<path d="M627.343 1382.53H693.671" stroke="white" stroke-width="0.7282" stroke-miterlimit="10" stroke-linecap="round" stroke-linejoin="round"/>
<path d="M762.595 1382.53H828.923" stroke="white" stroke-width="0.7282" stroke-miterlimit="10" stroke-linecap="round" stroke-linejoin="round"/>
<path d="M747.346 771.047L757.534 774.629C757.534 774.629 755.442 779.829 750.296 778.337C745.151 776.846 747.346 771.047 747.346 771.047Z" fill="white"/>
<path d="M817.228 1066.88C817.228 1066.88 797.475 1073.46 777.722 1068.24" stroke="white" stroke-width="1.4363" stroke-miterlimit="10" stroke-linecap="round" stroke-linejoin="round"/>
<path d="M777.722 953.98C777.722 956.012 779.369 957.659 781.401 957.659C783.433 957.659 785.08 956.012 785.08 953.98C785.08 951.948 783.433 950.301 781.401 950.301C779.369 950.3 777.722 951.947 777.722 953.98Z" fill="white"/>
<path d="M965.715 1086.77V867.317H891.611C833.985 867.317 787.269 914.032 787.269 971.659V982.427C787.269 1040.05 833.984 1086.77 891.611 1086.77H965.715Z" fill="#586773"/>
<path d="M997.512 1081.57V872.519C997.512 869.647 995.184 867.318 992.311 867.318H959.661C956.789 867.318 954.46 869.646 954.46 872.519V1081.57C954.46 1084.44 956.788 1086.77 959.661 1086.77H992.311C995.184 1086.77 997.512 1084.44 997.512 1081.57Z" fill="#93ACBF"/>
<path d="M992.183 872.648V1081.44H959.791V872.648H992.183ZM992.31 870.675H959.664C958.647 870.675 957.818 871.5 957.818 872.517V1081.57C957.818 1082.58 958.646 1083.41 959.664 1083.41H992.31C993.327 1083.41 994.156 1082.58 994.156 1081.57V872.517C994.155 871.5 993.327 870.675 992.31 870.675Z" fill="#586773"/>
<path d="M867.049 921.054C876.669 921.054 884.492 913.231 884.492 903.611C884.492 900.488 883.672 897.586 882.252 895.063C880.454 891.846 877.647 889.259 874.24 887.745C872.063 886.735 869.603 886.168 867.048 886.168C857.428 886.168 849.605 893.991 849.605 903.611C849.605 906.702 850.425 909.604 851.844 912.127C853.642 915.344 856.418 917.931 859.824 919.445C862.034 920.486 864.463 921.054 867.049 921.054Z" fill="#F9ECB8"/>
<path d="M859.826 919.445L882.253 895.063C880.455 891.846 877.648 889.259 874.241 887.745L851.846 912.127C853.644 915.344 856.419 917.931 859.826 919.445Z" fill="#F9E181"/>
<path d="M867.049 1033.03C876.669 1033.03 884.492 1040.86 884.492 1050.48C884.492 1053.6 883.672 1056.5 882.252 1059.03C880.454 1062.24 877.647 1064.83 874.24 1066.34C872.063 1067.35 869.603 1067.92 867.048 1067.92C857.428 1067.92 849.605 1060.1 849.605 1050.48C849.605 1047.39 850.425 1044.48 851.844 1041.96C853.642 1038.74 856.418 1036.16 859.824 1034.64C862.034 1033.6 864.463 1033.03 867.049 1033.03Z" fill="#F9ECB8"/>
<path d="M859.826 1034.64L882.253 1059.02C880.455 1062.24 877.648 1064.83 874.241 1066.34L851.846 1041.96C853.644 1038.74 856.419 1036.16 859.826 1034.64Z" fill="#F9E181"/>
<path d="M933.556 1020.42V933.665C933.556 931.794 932.025 930.263 930.154 930.263C928.283 930.263 926.752 931.794 926.752 933.665V1020.42C926.752 1022.3 928.283 1023.83 930.154 1023.83C932.025 1023.83 933.556 1022.3 933.556 1020.42Z" fill="#93ACBF"/>
<path d="M916.97 1020.42V933.665C916.97 931.794 915.439 930.263 913.568 930.263C911.697 930.263 910.166 931.794 910.166 933.665V1020.42C910.166 1022.3 911.697 1023.83 913.568 1023.83C915.439 1023.83 916.97 1022.3 916.97 1020.42Z" fill="#93ACBF"/>
<path d="M900.383 1020.42V933.665C900.383 931.794 898.852 930.263 896.981 930.263C895.11 930.263 893.579 931.794 893.579 933.665V1020.42C893.579 1022.3 895.11 1023.83 896.981 1023.83C898.852 1023.83 900.383 1022.3 900.383 1020.42Z" fill="#93ACBF"/>
<path d="M883.797 1020.42V933.665C883.797 931.794 882.266 930.263 880.395 930.263C878.524 930.263 876.993 931.794 876.993 933.665V1020.42C876.993 1022.3 878.524 1023.83 880.395 1023.83C882.266 1023.83 883.797 1022.3 883.797 1020.42Z" fill="#93ACBF"/>
<path d="M867.21 1020.42V933.665C867.21 931.794 865.679 930.263 863.808 930.263C861.937 930.263 860.406 931.794 860.406 933.665V1020.42C860.406 1022.3 861.937 1023.83 863.808 1023.83C865.679 1023.83 867.21 1022.3 867.21 1020.42Z" fill="#93ACBF"/>
<path d="M850.624 1020.42V933.665C850.624 931.794 849.093 930.263 847.222 930.263C845.351 930.263 843.82 931.794 843.82 933.665V1020.42C843.82 1022.3 845.351 1023.83 847.222 1023.83C849.093 1023.83 850.624 1022.3 850.624 1020.42Z" fill="#93ACBF"/>
<path d="M975.987 941.164C982.749 941.164 988.231 931.546 988.231 919.682C988.231 907.818 982.749 898.2 975.987 898.2C969.225 898.2 963.743 907.818 963.743 919.682C963.743 931.546 969.225 941.164 975.987 941.164Z" fill="#586773"/>
<path d="M975.987 1055.89C982.749 1055.89 988.231 1046.27 988.231 1034.4C988.231 1022.54 982.749 1012.92 975.987 1012.92C969.225 1012.92 963.743 1022.54 963.743 1034.4C963.743 1046.27 969.225 1055.89 975.987 1055.89Z" fill="#586773"/>
<path d="M836.888 974.582C836.888 974.582 735.052 944.842 709.098 1012.92C683.144 1081 730.128 1368.99 634.784 1403.21C511.306 1447.52 185.724 1428.3 185.724 1428.3" stroke="#93ACBF" stroke-width="19.7272" stroke-miterlimit="10" stroke-linecap="round"/>
<path d="M777.722 987.78C777.722 989.812 779.369 991.46 781.401 991.46C783.433 991.46 785.08 989.813 785.08 987.78C785.08 985.748 783.433 984.101 781.401 984.101C779.369 984.101 777.722 985.748 777.722 987.78Z" fill="white"/>
<path d="M782.369 1045.71C782.369 1047.75 784.016 1049.39 786.049 1049.39C788.082 1049.39 789.729 1047.75 789.729 1045.71C789.729 1043.68 788.082 1042.04 786.049 1042.04C784.016 1042.04 782.369 1043.68 782.369 1045.71Z" fill="white"/>
<path d="M866.997 994.375C866.806 996.751 852.869 1000.56 842.338 1000.02C833.413 999.574 812.948 996.33 806.923 995.331L807.763 959.82C811.331 959.448 818.545 957.979 821.963 957.829C831.057 957.432 849.344 959.81 849.78 963.124C850.238 966.404 834.487 967.615 835.807 968.848C837.127 970.081 849.73 972.888 854.809 971.912C859.923 970.958 870.501 967.118 872.721 969.169C874.976 971.243 872.857 975.182 872.857 975.182C872.857 975.182 876.736 973.245 877.501 975.888C878.266 978.531 872.985 983.052 872.985 983.052C872.985 983.052 874.998 981.738 875.119 984.853C875.219 988.002 865.069 992.017 865.069 992.017C865.069 992.017 867.246 991.986 866.997 994.375Z" fill="#FDAE97"/>
<path d="M807.929 952.804L693.538 940.49C679.907 939.434 667.752 951.18 666.515 966.639C665.309 982.088 675.486 995.617 689.127 996.705L806.72 1003.91L807.929 952.804Z" fill="#F74242"/>
<path d="M724.838 943.859H712.017L695.112 882.845" stroke="#332B27" stroke-width="1.2564" stroke-miterlimit="10"/>
<path d="M659.41 957.787C659.41 957.787 665.433 986.5 671.761 991.46C678.089 996.42 724.838 998.892 724.838 998.892" stroke="#332B27" stroke-width="1.2564" stroke-miterlimit="10"/>
<path d="M1832.82 1500.79H164.176C153.483 1500.79 144.815 1492.13 144.815 1481.43V1476.9C144.815 1466.2 153.483 1457.54 164.176 1457.54H1832.82C1843.51 1457.54 1852.18 1466.2 1852.18 1476.9V1481.43C1852.18 1492.13 1843.51 1500.79 1832.82 1500.79Z" fill="#0775EF"/>
<path d="M1622.92 886.191V873.497L1696.21 833.835V853.224L1647.25 879.844L1696.21 906.464V925.853L1622.92 886.191Z" fill="white"/>
<path d="M1718.51 941.717L1706.49 936.43L1751.68 799.633L1763.7 805.275L1718.51 941.717Z" fill="white"/>
<path d="M1849 873.496V886.19L1775.72 925.852V906.463L1824.67 879.843L1775.72 853.223V833.835L1849 873.496Z" fill="white"/>
<path d="M635.608 102.568C650.088 123.07 677.063 129.291 698.929 118.629L752.681 194.734L765.869 185.419L712.124 109.324C729.543 92.2996 732.658 64.8036 718.153 44.2666C702.065 21.4886 670.524 15.9716 647.746 32.0596C624.968 48.1476 619.52 79.7896 635.608 102.568ZM709.184 50.6026C721.713 68.3416 717.45 93.1066 699.712 105.635C681.872 118.235 657.209 113.9 644.68 96.1606C632.081 78.3226 636.314 53.7296 654.153 41.1296C671.891 28.6016 696.585 32.7636 709.184 50.6026Z" fill="white"/>
<path d="M1797.03 684.915H1618.56C1612.75 684.915 1608.03 680.204 1608.03 674.391V546.884C1608.03 541.071 1612.74 536.358 1618.56 536.358H1797.03C1802.85 536.358 1807.56 541.07 1807.56 546.884V674.391C1807.56 680.204 1802.85 684.915 1797.03 684.915Z" fill="#F9E181"/>
<path d="M1695.49 632.881C1695.49 636.821 1694.85 640.612 1693.59 644.277C1692.32 647.931 1690.44 651.149 1687.95 653.921C1685.47 656.681 1682.35 658.892 1678.6 660.53C1674.84 662.168 1670.48 662.993 1665.51 662.993C1657.63 662.993 1651.18 661.16 1646.16 657.507C1641.13 653.842 1637.83 648.035 1636.23 640.052L1652.84 636.112C1653.41 639.399 1654.74 642.022 1656.86 643.992C1658.97 645.962 1661.57 646.947 1664.67 646.947C1669.73 646.947 1673.18 645.241 1675.01 641.816C1676.84 638.391 1677.75 633.673 1677.75 627.671V560.817H1695.49V632.881Z" fill="white"/>
<path d="M1765.86 582.21C1763.98 579.484 1761.47 577.491 1758.32 576.231C1755.19 574.96 1751.88 574.33 1748.41 574.33C1746.34 574.33 1744.35 574.559 1742.43 575.029C1740.5 575.499 1738.76 576.254 1737.22 577.285C1735.67 578.316 1734.42 579.656 1733.48 581.294C1732.54 582.932 1732.08 584.879 1732.08 587.135C1732.08 590.514 1733.25 593.091 1735.6 594.877C1737.94 596.664 1740.85 598.21 1744.33 599.516C1747.8 600.833 1751.59 602.105 1755.72 603.319C1759.85 604.544 1763.65 606.228 1767.12 608.382C1770.59 610.547 1773.5 613.41 1775.85 616.972C1778.2 620.534 1779.36 625.276 1779.36 631.186C1779.36 636.535 1778.38 641.208 1776.41 645.194C1774.44 649.18 1771.79 652.49 1768.46 655.113C1765.13 657.736 1761.26 659.717 1756.85 661.023C1752.44 662.34 1747.8 662.993 1742.92 662.993C1736.72 662.993 1730.77 661.962 1725.04 659.901C1719.31 657.839 1714.39 654.369 1710.27 649.49L1723.63 636.536C1725.8 639.823 1728.64 642.377 1732.15 644.21C1735.67 646.031 1739.4 646.947 1743.34 646.947C1745.4 646.947 1747.47 646.672 1749.53 646.111C1751.59 645.538 1753.47 644.702 1755.16 643.568C1756.85 642.446 1758.21 641.014 1759.24 639.284C1760.27 637.543 1760.79 635.55 1760.79 633.294C1760.79 629.64 1759.62 626.823 1757.27 624.853C1754.92 622.883 1752.01 621.222 1748.54 619.859C1745.07 618.496 1741.27 617.213 1737.15 615.988C1733.01 614.774 1729.22 613.102 1725.75 610.994C1722.27 608.875 1719.36 606.069 1717.02 602.541C1714.67 599.025 1713.51 594.317 1713.51 588.407C1713.51 583.241 1714.56 578.786 1716.67 575.029C1718.77 571.284 1721.55 568.157 1724.97 565.671C1728.4 563.186 1732.31 561.33 1736.72 560.116C1741.13 558.891 1745.63 558.284 1750.24 558.284C1755.48 558.284 1760.58 559.086 1765.5 560.678C1770.43 562.27 1774.86 564.893 1778.8 568.558L1765.86 582.21Z" fill="white"/>
<path d="M387.719 994.915H17.03C7.625 994.915 0 987.29 0 977.885V820.233C0 810.828 7.624 803.203 17.03 803.203H387.718C397.123 803.203 404.748 810.828 404.748 820.233V977.885C404.748 987.291 397.124 994.915 387.719 994.915Z" fill="#F9E181"/>
<path d="M33.5171 854.249H49.4631V889.948H91.3581V854.249H107.315V943.869H91.3581V904.374H49.4631V943.869H33.5171V854.249Z" fill="white"/>
<path d="M145.666 868.681H118.193V854.249H189.075V868.681H161.612V943.869H145.666V868.681Z" fill="white"/>
<path d="M200.355 854.249H224.656L248.575 917.035L272.752 854.249H296.805V943.869H281.621V869.438H281.363L254.147 943.869H243.013L215.797 869.438H215.539V943.869H200.355V854.249Z" fill="white"/>
<path d="M317.181 854.249H333.127V929.437H371.231V943.869H317.181V854.249Z" fill="white"/>
<path d="M1114.33 1368.57H882.921C876.486 1368.57 871.268 1363.35 871.268 1356.91V1237.59C871.268 1231.15 876.485 1225.94 882.921 1225.94H1114.33C1120.77 1225.94 1125.98 1231.15 1125.98 1237.59V1356.91C1125.98 1363.35 1120.76 1368.57 1114.33 1368.57Z" fill="#088CFC"/>
<path d="M894.965 1256.7H923.489C928.681 1256.7 932.96 1257.41 936.315 1258.82C939.68 1260.24 942.327 1262.03 944.276 1264.21C946.224 1266.38 947.576 1268.83 948.34 1271.54C949.104 1274.25 949.486 1276.87 949.486 1279.38C949.486 1281.9 949.104 1284.52 948.34 1287.23C947.576 1289.94 946.224 1292.39 944.276 1294.56C942.328 1296.74 939.681 1298.53 936.315 1299.95C932.959 1301.36 928.681 1302.06 923.489 1302.06H905.964V1337.8H894.965V1256.7ZM905.964 1292.44H920.394C922.529 1292.44 924.654 1292.27 926.751 1291.93C928.848 1291.59 930.722 1290.95 932.363 1290.04C934.004 1289.12 935.327 1287.8 936.315 1286.09C937.312 1284.37 937.806 1282.13 937.806 1279.38C937.806 1276.63 937.312 1274.4 936.315 1272.69C935.327 1270.97 934.003 1269.65 932.363 1268.73C930.722 1267.82 928.849 1267.19 926.751 1266.84C924.654 1266.5 922.528 1266.33 920.394 1266.33H905.964V1292.44Z" fill="white"/>
<path d="M962.891 1256.7H973.89V1290.38H1015.93V1256.7H1026.92V1337.8H1015.93V1300.69H973.89V1337.8H962.891V1256.7Z" fill="white"/>
<path d="M1047.76 1256.7H1076.29C1081.48 1256.7 1085.76 1257.41 1089.11 1258.82C1092.48 1260.24 1095.13 1262.03 1097.07 1264.21C1099.02 1266.38 1100.37 1268.83 1101.14 1271.54C1101.9 1274.25 1102.29 1276.87 1102.29 1279.38C1102.29 1281.9 1101.9 1284.52 1101.14 1287.23C1100.37 1289.94 1099.02 1292.39 1097.07 1294.56C1095.13 1296.74 1092.48 1298.53 1089.11 1299.95C1085.76 1301.36 1081.48 1302.06 1076.29 1302.06H1058.76V1337.8H1047.76V1256.7ZM1058.76 1292.44H1073.19C1075.33 1292.44 1077.45 1292.27 1079.55 1291.93C1081.65 1291.59 1083.52 1290.95 1085.16 1290.04C1086.8 1289.12 1088.13 1287.8 1089.11 1286.09C1090.11 1284.37 1090.61 1282.13 1090.61 1279.38C1090.61 1276.63 1090.11 1274.4 1089.11 1272.69C1088.13 1270.97 1086.8 1269.65 1085.16 1268.73C1083.52 1267.82 1081.65 1267.19 1079.55 1266.84C1077.45 1266.5 1075.33 1266.33 1073.19 1266.33H1058.76V1292.44Z" fill="white"/>
<path d="M1184.16 201.733H965.197C958.369 201.733 952.833 196.198 952.833 189.37V46.2732C952.833 39.4452 958.368 33.9092 965.197 33.9092H1184.16C1190.99 33.9092 1196.53 39.4442 1196.53 46.2732V189.37C1196.53 196.197 1190.99 201.733 1184.16 201.733Z" fill="#088CFC"/>
<path d="M965.866 132.756V120.536L1036.41 82.3574V101.021L989.288 126.645L1036.41 152.269V170.935L965.866 132.756Z" fill="white"/>
<path d="M1057.88 186.207L1046.31 181.118L1089.8 49.4355L1101.38 54.8666L1057.88 186.207Z" fill="white"/>
<path d="M1183.49 120.536V132.756L1112.95 170.935V152.271L1160.07 126.647L1112.95 101.023V82.3594L1183.49 120.536Z" fill="white"/>
</svg>
