<svg width="949" height="675" viewBox="0 0 949 675" fill="none" xmlns="http://www.w3.org/2000/svg">
<path d="M830.226 660.315C830.226 660.315 1118.8 -45.4531 589.237 2.32034C362.422 22.7819 404.764 146.917 304.591 263.065C239.659 338.35 114.776 276.762 67.977 342.549C21.1783 408.335 76.1744 595.919 95.4662 660.315H830.226Z" fill="#E5F0F8"/>
<path d="M159.768 656.901C159.768 656.901 139.987 577.997 90.6793 553.646C41.3713 529.294 -11.2554 562.633 2.10801 597.69C13.631 627.918 61.0133 590.749 97.8794 605.366C134.745 619.982 140.557 656.901 140.557 656.901H159.768Z" fill="#40A87B"/>
<path d="M11.6392 576.667C11.6392 576.667 64.5595 546.508 103.823 574.391C143.086 602.273 155.512 656.901 155.512 656.901" stroke="#6ADB6A" stroke-width="4.7964" stroke-miterlimit="10"/>
<path d="M20.1753 562.562L32.4876 567.93" stroke="#6ADB6A" stroke-width="4.7964" stroke-miterlimit="10"/>
<path d="M37.9575 551.061L62.4811 562.563" stroke="#6ADB6A" stroke-width="4.7964" stroke-miterlimit="10"/>
<path d="M74.8018 551.061L87.5606 566.132" stroke="#6ADB6A" stroke-width="4.7964" stroke-miterlimit="10"/>
<path d="M98.9863 561.161L104.722 575.041" stroke="#6ADB6A" stroke-width="4.7964" stroke-miterlimit="10"/>
<path d="M26.3306 595.872L45.2319 564.603" stroke="#6ADB6A" stroke-width="4.7964" stroke-miterlimit="10"/>
<path d="M59.7227 591.39L77.0583 563.55" stroke="#6ADB6A" stroke-width="4.7964" stroke-miterlimit="10"/>
<path d="M89.1699 587.122L115.232 583.884" stroke="#6ADB6A" stroke-width="4.7964" stroke-miterlimit="10"/>
<path d="M119.511 602.914L134.45 607.819" stroke="#6ADB6A" stroke-width="4.7964" stroke-miterlimit="10"/>
<path d="M176.732 657.13C176.732 657.13 190.69 392.648 64.3641 426.73C-61.9612 460.813 162.905 603.356 162.714 657.13H176.732Z" fill="#6ADB6A"/>
<path d="M171.627 657.131C171.627 657.131 167.216 518.948 77.1675 450.621" stroke="#40A87B" stroke-width="4.7964" stroke-miterlimit="10"/>
<path d="M116.663 490.688L114.413 443.038" stroke="#40A87B" stroke-width="4.7964" stroke-miterlimit="10"/>
<path d="M46.0127 470.944L106.878 478.878" stroke="#40A87B" stroke-width="4.7964" stroke-miterlimit="10"/>
<path d="M69.6831 511.611L134.037 519.109" stroke="#40A87B" stroke-width="4.7964" stroke-miterlimit="10"/>
<path d="M101.86 551.912L151.566 558.937" stroke="#40A87B" stroke-width="4.7964" stroke-miterlimit="10"/>
<path d="M156.334 514.256L144.941 541.936" stroke="#40A87B" stroke-width="4.7964" stroke-miterlimit="10"/>
<path d="M137.614 469.332L127.901 508.302" stroke="#40A87B" stroke-width="4.7964" stroke-miterlimit="10"/>
<path d="M166.97 560.466L157.893 578.557" stroke="#40A87B" stroke-width="4.7964" stroke-miterlimit="10"/>
<path d="M127.901 589.273L163.519 600.503" stroke="#40A87B" stroke-width="4.7964" stroke-miterlimit="10"/>
<path d="M794.469 657.294C794.469 657.294 813.554 581.167 861.126 557.673C908.698 534.18 959.472 566.344 946.579 600.167C935.462 629.332 889.747 593.471 854.179 607.573C818.61 621.675 813.004 657.294 813.004 657.294L794.469 657.294Z" fill="#40A87B"/>
<path d="M937.384 579.885C937.384 579.885 886.327 550.787 848.446 577.688C810.564 604.589 798.576 657.294 798.576 657.294" stroke="#6ADB6A" stroke-width="4.6275" stroke-miterlimit="10"/>
<path d="M929.149 566.276L917.27 571.455" stroke="#6ADB6A" stroke-width="4.6275" stroke-miterlimit="10"/>
<path d="M911.993 555.179L888.332 566.275" stroke="#6ADB6A" stroke-width="4.6275" stroke-miterlimit="10"/>
<path d="M876.444 555.179L864.135 569.719" stroke="#6ADB6A" stroke-width="4.6275" stroke-miterlimit="10"/>
<path d="M853.111 564.924L847.578 578.315" stroke="#6ADB6A" stroke-width="4.6275" stroke-miterlimit="10"/>
<path d="M923.209 598.413L904.973 568.244" stroke="#6ADB6A" stroke-width="4.6275" stroke-miterlimit="10"/>
<path d="M890.993 594.089L874.268 567.229" stroke="#6ADB6A" stroke-width="4.6275" stroke-miterlimit="10"/>
<path d="M862.582 589.973L837.438 586.848" stroke="#6ADB6A" stroke-width="4.6275" stroke-miterlimit="10"/>
<path d="M833.309 605.207L818.896 609.939" stroke="#6ADB6A" stroke-width="4.6275" stroke-miterlimit="10"/>
<path d="M778.102 657.517C778.102 657.517 764.635 402.345 886.514 435.228C1008.39 468.111 791.442 605.637 791.627 657.517H778.102Z" fill="#6ADB6A"/>
<path d="M783.027 657.517C783.027 657.517 787.283 524.198 874.162 458.276" stroke="#40A87B" stroke-width="4.6275" stroke-miterlimit="10"/>
<path d="M836.057 496.934L838.227 450.961" stroke="#40A87B" stroke-width="4.6275" stroke-miterlimit="10"/>
<path d="M904.219 477.884L845.497 485.538" stroke="#40A87B" stroke-width="4.6275" stroke-miterlimit="10"/>
<path d="M881.383 517.121L819.294 524.355" stroke="#40A87B" stroke-width="4.6275" stroke-miterlimit="10"/>
<path d="M850.339 556.004L802.382 562.781" stroke="#40A87B" stroke-width="4.6275" stroke-miterlimit="10"/>
<path d="M797.782 519.673L808.773 546.378" stroke="#40A87B" stroke-width="4.6275" stroke-miterlimit="10"/>
<path d="M815.844 476.331L825.215 513.929" stroke="#40A87B" stroke-width="4.6275" stroke-miterlimit="10"/>
<path d="M787.521 564.256L796.278 581.711" stroke="#40A87B" stroke-width="4.6275" stroke-miterlimit="10"/>
<path d="M825.214 592.049L790.85 602.883" stroke="#40A87B" stroke-width="4.6275" stroke-miterlimit="10"/>
<path d="M887.402 342.146C883.592 339.851 878.64 341.146 876.445 345.012L872.684 351.635L871.163 350.719C869.985 350.009 868.63 349.841 867.388 350.149C866.146 350.457 865.026 351.238 864.316 352.416C862.892 354.773 863.654 357.845 866.014 359.263L867.756 360.312L846.19 398.269C845.489 399.502 845.818 401.041 846.908 401.897L844.733 407.839L849.255 410.568L853.492 405.869C854.761 406.426 856.272 406.004 857.034 404.803L880.517 368.006L882.259 369.055C883.437 369.77 884.796 369.931 886.038 369.623C887.275 369.317 888.396 368.54 889.109 367.356C890.532 364.995 889.772 361.928 887.41 360.505L885.889 359.588L889.983 353.17C892.376 349.422 891.207 344.439 887.402 342.146Z" fill="white"/>
<path d="M792.181 11.1582H381.169C376.303 11.1582 372.358 17.6166 372.358 25.5838V58.983V356.133H800.991V58.983V25.5838C800.991 17.6171 797.046 11.1582 792.181 11.1582Z" fill="#BBDBF3"/>
<path d="M795.262 43.5781H378.087V350.82H795.262V43.5781Z" fill="#E5F0F8"/>
<path d="M396.04 75.0075V71.7806L414.669 61.6982V66.6271L402.225 73.394L414.669 80.1609V85.0897L396.04 75.0075Z" fill="white"/>
<path d="M759.031 342.85V337.922L771.476 331.155L759.031 324.388V319.459L777.661 329.541V332.768L759.031 342.85Z" fill="white"/>
<path d="M495.666 69.5879H421.579V77.1993H495.666V69.5879Z" fill="white"/>
<path d="M470.127 99.002H396.04V106.613H470.127V99.002Z" fill="white"/>
<path d="M485.909 119.493H411.821V127.105H485.909V119.493Z" fill="white"/>
<path d="M485.909 175.89H411.821V183.501H485.909V175.89Z" fill="white"/>
<path d="M485.909 193.334H411.821V200.945H485.909V193.334Z" fill="white"/>
<path d="M660.712 139.009H437.28V146.62H660.712V139.009Z" fill="white"/>
<path d="M735.767 211.869H437.28V219.481H735.767V211.869Z" fill="white"/>
<path d="M735.767 270.224H437.28V277.835H735.767V270.224Z" fill="white"/>
<path d="M751.317 327.349H465.353V334.96H751.317V327.349Z" fill="white"/>
<path d="M501.212 290.053H437.28V297.664H501.212V290.053Z" fill="white"/>
<path d="M501.212 308.912H437.28V316.523H501.212V308.912Z" fill="white"/>
<path d="M735.767 230.497H437.28V238.108H735.767V230.497Z" fill="white"/>
<path d="M598.775 249.125H437.28V256.736H598.775V249.125Z" fill="white"/>
<path d="M505.792 156.55H437.28V164.161H505.792V156.55Z" fill="white"/>
<path d="M765.551 37.2647L784.515 18.3008" stroke="white" stroke-width="6.5648" stroke-miterlimit="10" stroke-linecap="round" stroke-linejoin="round"/>
<path d="M784.515 37.2647L765.551 18.3008" stroke="white" stroke-width="6.5648" stroke-miterlimit="10" stroke-linecap="round" stroke-linejoin="round"/>
<path d="M850.713 675.001H83.6065C78.7439 675.001 74.8018 671.059 74.8018 666.196V664.341C74.8018 659.479 78.7434 655.537 83.6065 655.537H850.713C855.576 655.537 859.518 659.479 859.518 664.341V666.196C859.518 671.059 855.576 675.001 850.713 675.001Z" fill="#0775EF"/>
<path d="M68.7681 158.286V208.715H132.065V158.286H68.7681ZM129.048 205.699H129.046L115.393 172.831L99.3475 200.093L87.9756 185.917L71.7907 205.697V161.303H129.048V205.699Z" fill="#E5F0F8"/>
<path d="M100.418 174.7C102.052 174.7 103.377 173.375 103.377 171.741C103.377 170.106 102.052 168.781 100.418 168.781C98.7829 168.781 97.458 170.107 97.458 171.741C97.458 173.375 98.7829 174.7 100.418 174.7Z" fill="#E5F0F8"/>
<path d="M199.398 2.6875H143.863C140.554 2.6875 137.871 5.37009 137.871 8.67944V40.6515C137.871 43.9608 140.554 46.6434 143.863 46.6434H166.189V53.856H151.496C151.208 53.856 150.975 54.089 150.975 54.3766V56.2222C150.975 56.5094 151.208 56.7429 151.496 56.7429H191.765C192.053 56.7429 192.286 56.5098 192.286 56.2222V54.3766C192.286 54.089 192.053 53.856 191.765 53.856H177.072V46.6434H199.398C202.707 46.6434 205.39 43.9608 205.39 40.6515V8.67944C205.39 5.37009 202.707 2.6875 199.398 2.6875Z" fill="#E5F0F8"/>
<path d="M825.575 33.2008V28.7672L851.17 14.915V21.6871L834.073 30.9842L851.17 40.2813V47.0529L825.575 33.2008Z" fill="#E5F0F8"/>
<path d="M858.959 52.5934L854.76 50.7469L870.542 2.9707L874.74 4.94084L858.959 52.5934Z" fill="#E5F0F8"/>
<path d="M904.534 28.7676V33.2012L878.938 47.0533V40.2813L896.036 30.9842L878.938 21.687V14.915L904.534 28.7676Z" fill="#E5F0F8"/>
<path d="M812.159 114.063C817.22 121.229 826.649 123.404 834.292 119.677L853.079 146.278L857.689 143.023L838.903 116.425C844.992 110.475 846.08 100.864 841.011 93.6857C835.388 85.7241 824.363 83.7957 816.401 89.4189C808.44 95.0421 806.536 106.102 812.159 114.063ZM837.876 95.9C842.255 102.1 840.765 110.756 834.565 115.135C828.33 119.539 819.709 118.024 815.33 111.824C810.926 105.589 812.406 96.9932 818.641 92.5892C824.841 88.2098 833.472 89.6648 837.876 95.9Z" fill="white"/>
<path d="M526.004 423.624C524.306 422.433 522.44 421.563 520.497 421.011C520.15 423.106 518.276 424.65 516.107 424.539C513.937 424.428 512.235 422.707 512.104 420.588C510.119 420.934 508.175 421.61 506.364 422.621C507.598 424.349 507.371 426.762 505.756 428.221C504.141 429.678 501.718 429.659 500.124 428.256C498.934 429.954 498.064 431.819 497.517 433.759C499.612 434.105 501.151 435.973 501.04 438.143C500.929 440.312 499.203 442.02 497.083 442.151C497.435 444.141 498.111 446.085 499.122 447.896C500.845 446.657 503.264 446.879 504.726 448.5C506.184 450.114 506.164 452.549 504.756 454.137C506.454 455.327 508.32 456.197 510.259 456.744C510.605 454.649 512.479 453.106 514.649 453.216C516.818 453.327 518.521 455.048 518.652 457.167C520.636 456.821 522.58 456.145 524.391 455.134C523.158 453.406 523.385 450.993 524.999 449.535C526.614 448.077 529.038 448.096 530.631 449.499C531.821 447.801 532.692 445.936 533.238 443.997C531.143 443.65 529.605 441.782 529.716 439.612C529.826 437.443 531.553 435.735 533.672 435.604C533.326 433.62 532.65 431.675 531.639 429.865C529.905 431.103 527.492 430.876 526.034 429.261C524.571 427.641 524.591 425.217 526.004 423.624ZM522.051 432.856C525.376 436.538 525.091 442.222 521.403 445.552C517.715 448.881 512.033 448.586 508.708 444.904C505.379 441.216 505.663 435.532 509.351 432.203C513.038 428.874 518.722 429.168 522.051 432.856Z" fill="white"/>
<path d="M507.384 479.821C504.948 484.738 498.986 486.757 494.061 484.317C489.137 481.878 487.129 475.912 489.565 470.995C492.004 466.07 497.967 464.052 502.891 466.491C507.816 468.93 509.823 474.896 507.384 479.821ZM518.489 480.132C519.022 477.901 519.159 475.628 518.936 473.404C516.64 473.9 514.29 472.6 513.522 470.323C512.753 468.046 513.831 465.595 515.958 464.598C514.795 462.698 513.309 460.973 511.532 459.521C510.256 461.493 507.681 462.241 505.525 461.173C503.369 460.104 502.403 457.603 503.198 455.393C500.967 454.86 498.695 454.723 496.478 454.95C496.973 457.245 495.677 459.588 493.4 460.356C491.124 461.125 488.666 460.043 487.669 457.917C485.764 459.087 484.039 460.573 482.588 462.349C484.563 463.618 485.318 466.196 484.246 468.36C483.178 470.517 480.666 471.486 478.46 470.683C477.927 472.914 477.789 475.187 478.016 477.404C480.312 476.908 482.662 478.208 483.43 480.485C484.199 482.762 483.121 485.213 480.994 486.21C482.157 488.11 483.643 489.835 485.42 491.287C486.696 489.315 489.271 488.567 491.427 489.635C493.583 490.703 494.549 493.205 493.754 495.415C495.985 495.948 498.257 496.085 500.474 495.858C499.979 493.563 501.275 491.219 503.552 490.451C505.829 489.683 508.287 490.765 509.284 492.891C511.184 491.728 512.91 490.242 514.361 488.466C512.382 487.187 511.634 484.611 512.702 482.455C513.774 480.291 516.275 479.326 518.489 480.132Z" fill="white"/>
<path d="M310.006 23.0059C307.388 29.7478 303.15 45.2718 300.526 53.623C296.724 65.7273 276.501 75.7392 256.928 59.4152C241.04 46.1644 256.114 19.4983 261.144 9.78565C261.935 8.25651 260.498 6.54763 258.848 7.03912C254.129 8.44365 245.369 12.6897 237.583 22.7423C223.318 41.1605 222.427 56.1365 225.533 67.2291C226.192 69.58 226.543 72.0537 226.683 74.5074C227.23 84.0867 224.575 93.5774 219.608 101.787L102.099 296.006C84.2475 322.338 61.4077 313 45.1213 335.157C33.036 351.598 38.1631 378.327 40.9564 389.465C41.3816 391.161 43.7256 391.324 44.3584 389.694C46.9756 382.952 49.0755 371.655 51.6988 363.304C55.501 351.2 78.854 342.362 98.4275 358.686C114.316 371.937 101.023 394.996 95.9942 404.709C95.2025 406.238 96.6394 407.947 98.2899 407.455C103.008 406.051 110.775 402.126 118.56 392.073C132.825 373.655 131.937 356.563 128.831 345.47C127.514 340.768 127.86 335.434 128.75 330.725C129.946 324.399 132.415 318.383 135.747 312.875L256.951 112.549C259.514 108.314 263.01 104.698 267.217 102.09C281.707 93.1095 297.278 96.3545 309.27 80.0398C321.355 63.5987 316.201 34.3723 313.408 23.2338C312.982 21.5379 310.638 21.3753 310.006 23.0059Z" fill="#93ACBF"/>
<path d="M247.978 101.456L117.12 317.739C115.248 320.832 111.186 321.831 108.093 319.96C105 318.088 104.001 314.027 105.872 310.933L236.73 94.6504C238.602 91.5573 242.663 90.5577 245.757 92.4291C248.85 94.3006 249.849 98.3627 247.978 101.456Z" fill="#586773"/>
<path d="M440.49 643.304H199.888C187.343 643.304 177.174 633.135 177.174 620.591V155.811C177.174 143.267 187.343 133.098 199.888 133.098H440.49C453.034 133.098 463.204 143.267 463.204 155.811V620.591C463.204 633.135 453.035 643.304 440.49 643.304Z" fill="#BBDBF3"/>
<path d="M444.403 219.663C444.403 242.253 426.086 260.571 403.496 260.571C391.174 260.571 380.127 255.121 372.641 246.493C366.365 239.321 362.588 229.931 362.588 219.663C362.588 197.073 380.906 178.755 403.496 178.755C426.086 178.755 444.403 197.072 444.403 219.663Z" fill="white"/>
<path d="M403.495 218.123C385.873 217.13 376.979 233.062 372.641 246.494C380.126 255.122 391.173 260.571 403.495 260.571C415.816 260.571 426.864 255.122 434.349 246.494C430.01 233.062 421.117 217.13 403.495 218.123Z" fill="#BBDBF3"/>
<path d="M418.387 205.183C418.387 217.289 411.721 229.964 403.498 229.964C395.274 229.964 388.608 217.289 388.608 205.183C388.608 193.077 395.275 186.124 403.498 186.124C411.721 186.124 418.387 193.077 418.387 205.183Z" fill="#BBDBF3"/>
<path d="M301.626 178.755H198.251V189.804H301.626V178.755Z" fill="white"/>
<path d="M328.975 202.519H198.251V213.568H328.975V202.519Z" fill="white"/>
<path d="M275.28 299.075H198.251V308.108H275.28V299.075Z" fill="white"/>
<path d="M275.28 500.055H198.251V509.087H275.28V500.055Z" fill="white"/>
<path d="M326.968 518.496H198.251V527.529H326.968V518.496Z" fill="white"/>
<path d="M296.106 316.137H198.251V325.169H296.106V316.137Z" fill="white"/>
<path d="M304.029 381.499H204.378C201.008 381.499 198.25 378.742 198.25 375.372V347.481C198.25 344.111 201.008 341.354 204.378 341.354H304.029C307.399 341.354 310.156 344.111 310.156 347.481V375.372C310.156 378.742 307.399 381.499 304.029 381.499Z" fill="white"/>
<path d="M336.35 381.499H436.001C439.371 381.499 442.128 378.742 442.128 375.372V347.481C442.128 344.111 439.371 341.354 436.001 341.354H336.35C332.98 341.354 330.222 344.111 330.222 347.481V375.372C330.222 378.742 332.979 381.499 336.35 381.499Z" fill="white"/>
<path d="M432.158 483.494H208.221C202.112 483.494 197.113 478.496 197.113 472.387V407.661C197.113 401.552 202.112 396.554 208.221 396.554H432.158C438.267 396.554 443.265 401.552 443.265 407.661V472.387C443.265 478.496 438.267 483.494 432.158 483.494Z" fill="white"/>
<path d="M297.235 423.651H210.67V431.179H297.235V423.651Z" fill="#E5F0F8"/>
<path d="M342.775 439.835H210.67V456.395H342.775V439.835Z" fill="#E5F0F8"/>
<path d="M439.312 580.596H201.066C198.892 580.596 197.113 578.818 197.113 576.644V541.643C197.113 539.469 198.892 537.69 201.066 537.69H439.313C441.487 537.69 443.265 539.469 443.265 541.643V576.644C443.265 578.818 441.486 580.596 439.312 580.596Z" fill="#E5F0F8"/>
<path d="M316.053 555.004H209.166V563.284H316.053V555.004Z" fill="white"/>
<path d="M401.299 563.284H431.213V555.004H401.299V563.284Z" fill="white"/>
<path d="M439.312 631.532H201.066C198.892 631.532 197.113 629.753 197.113 627.579V592.578C197.113 590.404 198.892 588.626 201.066 588.626H439.313C441.487 588.626 443.265 590.404 443.265 592.578V627.579C443.265 629.753 441.486 631.532 439.312 631.532Z" fill="#E5F0F8"/>
<path d="M316.053 605.938H209.166V614.217H316.053V605.938Z" fill="white"/>
<path d="M401.299 614.218H431.213V605.938H401.299V614.218Z" fill="white"/>
<path d="M882.396 178.034L872.302 174.684L927.277 9.0201L935.874 0L937.371 12.3698L882.396 178.034Z" fill="#93ACBF"/>
<path d="M823.805 392.55L791.017 381.669C786.532 380.181 784.103 375.339 785.591 370.854L842.318 199.914L891.346 216.184L834.619 387.124C833.131 391.609 828.289 394.038 823.805 392.55Z" fill="#6ADB6A"/>
<path d="M899.736 190.904L850.708 174.634L854.423 163.438C854.721 162.542 855.688 162.057 856.584 162.354L902.367 177.548C903.263 177.845 903.749 178.812 903.451 179.708L899.736 190.904Z" fill="#6ADB6A"/>
<path d="M889.661 201.966C892.428 194.702 899.736 190.902 899.736 190.902L875.222 182.767L850.708 174.632C850.708 174.632 854.294 182.047 852.17 189.524C850.044 197.001 842.318 199.913 842.318 199.913L866.833 208.049L891.347 216.184C891.347 216.184 886.895 209.23 889.661 201.966Z" fill="#40A87B"/>
<path d="M811.842 373.753C809.992 373.139 808.98 371.122 809.594 369.272L857.767 224.109C858.381 222.259 860.397 221.247 862.248 221.861C864.099 222.476 865.11 224.492 864.496 226.343L816.324 371.505C815.709 373.355 813.693 374.367 811.842 373.753Z" fill="#40A87B"/>
<path d="M825.302 378.221C823.451 377.606 822.44 375.59 823.054 373.739L871.226 228.577C871.84 226.727 873.857 225.715 875.707 226.329C877.558 226.943 878.57 228.96 877.955 230.81L829.783 375.972C829.169 377.823 827.152 378.834 825.302 378.221Z" fill="#40A87B"/>
<path d="M798.384 369.286C800.235 369.9 802.251 368.889 802.866 367.038L851.038 221.876C851.652 220.025 850.64 218.009 848.79 217.395C846.939 216.78 844.923 217.792 844.309 219.643L796.136 364.805C795.522 366.655 796.534 368.672 798.384 369.286Z" fill="#40A87B"/>
<path d="M927.278 9.0201L935.874 0L927.907 19.1825L927.278 9.0201Z" fill="#586773"/>
<path d="M937.372 12.3698L935.874 0L930.792 20.1396L937.372 12.3698Z" fill="#586773"/>
<path d="M852.587 245.595L830.872 213.607L820.634 264.411L836.61 305.524L852.587 245.595Z" fill="#93ACBF"/>
<path d="M542.336 655.587H771.912C777.066 655.587 781.996 651.431 782.924 646.304L853.851 254.577C854.789 249.397 854.048 244.114 848.867 244.114L621.395 211.869C616.214 211.869 611.266 216.069 610.343 221.25L534.658 646.304C533.745 651.431 537.182 655.587 542.336 655.587Z" fill="#93ACBF"/>
<path d="M515.894 655.587H745.47C750.623 655.587 755.553 651.431 756.482 646.304L833.442 221.25C834.38 216.069 830.94 211.869 825.759 211.869H594.952C589.771 211.869 584.823 216.069 583.9 221.25L508.215 646.304C507.302 651.431 510.74 655.587 515.894 655.587Z" fill="#BBDBF3"/>
<path d="M599.12 228.365L529.672 617.954H745.202L772.981 464.367L685.899 234.474H723.627L785.152 397.066L815.664 228.365H599.12Z" fill="#586773"/>
<path d="M675.637 226.037C675.491 226.851 675.469 227.627 675.569 228.364C675.707 229.761 676.241 231.002 677.053 231.991C678.311 233.523 680.255 234.473 682.563 234.473H730.028C733.849 234.473 737.576 231.874 739.216 228.364C739.581 227.627 739.837 226.851 739.984 226.036C740.403 223.709 739.829 221.614 738.572 220.082C737.315 218.549 735.391 217.599 733.063 217.599H685.589C680.952 217.599 676.468 221.401 675.637 226.037Z" fill="#BBDBF3"/>
<path d="M685.899 234.475L772.981 464.367L785.153 397.066L723.627 234.475H685.899Z" fill="#93ACBF"/>
<path d="M599.121 228.365L598.851 229.878L745.554 616.014L769.219 485.169L671.903 228.365H599.121Z" fill="#93ACBF"/>
<path d="M566.617 410.701L561.8 437.726L630.515 617.954H645.614L566.617 410.701Z" fill="#93ACBF"/>
<path d="M560.314 446.062L550.928 498.718L596.438 617.955H625.863L560.314 446.062Z" fill="#93ACBF"/>
<path d="M605.853 647.481H658.421C664.432 647.481 670.231 642.588 671.308 636.607C672.385 630.625 668.346 625.73 662.333 625.73H609.752C603.739 625.73 597.942 630.625 596.871 636.607C595.8 642.589 599.842 647.481 605.853 647.481Z" fill="#BBDBF3"/>
<path d="M268.99 434.736L249.404 434.403L250.43 413.838L250.92 404.003L250.948 403.513L266.273 397.07L266.772 404.021L267.142 409.087L268.99 434.736Z" fill="#FDAE97"/>
<path d="M230.687 498.398L222.451 566.578C222.192 568.302 222.2 570.093 222.552 571.902C224.206 580.415 232.449 585.975 240.963 584.32C249.476 582.665 252.734 576.092 254.263 566.316C257.198 547.552 267.449 491.252 267.449 491.252L230.687 498.398Z" fill="#088CFC"/>
<path d="M284.092 494.966L253.837 496.996L253.987 530.515L257.578 535.825L260.907 568.139L291.532 565.691L284.092 494.966Z" fill="#088CFC"/>
<path d="M205.799 479.742L205.901 479.81C210.415 482.813 216.565 481.578 219.568 477.065L244.039 440.289C247.042 435.776 245.806 429.626 241.293 426.623L241.19 426.554C236.677 423.551 230.526 424.787 227.523 429.3L203.053 466.075C200.05 470.589 201.285 476.739 205.799 479.742Z" fill="#F74242"/>
<path d="M336.186 432.938L328.123 443.729L317.625 437.338L326.138 426.141L338.065 427.264L336.186 432.938Z" fill="#E89780"/>
<path d="M298.167 481.753C303.057 484.598 309.142 483.387 311.639 479.064L323.998 456.478L328.358 448.472L332.92 440.139L325.333 434.895L319.947 431.174L319.427 430.808L313.89 439.023L308.805 446.548L293.844 468.706C291.346 473.029 293.276 478.909 298.167 481.753Z" fill="#F74242"/>
<path d="M259.452 426.136C266.638 426.295 269.699 422.722 270.622 421.319L267.935 420.105L250.163 419.211L248.028 419.894C248.929 421.572 252.11 425.975 259.452 426.136Z" fill="#FDAE97"/>
<path d="M284.956 470.848L285.381 500.238H230.059L230.715 426.144L249.699 419.284C249.912 419.674 250.143 420.082 250.426 420.507L250.497 420.596C251.525 421.908 253.493 423.148 259.005 423.272C263.596 423.379 265.847 422.74 267.123 421.908L267.141 421.89C267.832 421.429 268.24 420.88 268.559 420.383L286.48 424.336L285.274 461.738L284.956 470.848Z" fill="#F74242"/>
<path d="M216.715 635.781L245.174 635.761L253.752 569.536C254.647 560.905 248.391 553.177 239.772 552.269C231.141 551.373 223.425 557.629 222.517 566.248C222.435 566.997 222.426 567.729 222.453 568.471L217.499 626.598L216.715 635.781Z" fill="#088CFC"/>
<path d="M308.081 482.185C303.175 484.685 297.117 482.718 294.616 477.813L274.524 438.394C272.024 433.488 273.991 427.43 278.896 424.929C283.802 422.429 289.86 424.397 292.361 429.302L312.453 468.721C314.953 473.626 312.985 479.685 308.081 482.185Z" fill="#F74242"/>
<path d="M463.936 424.985C500.364 396.273 506.633 343.303 477.921 306.876C449.211 270.469 396.239 264.179 359.812 292.891C323.405 321.601 317.137 374.591 345.827 411C374.539 447.427 427.529 453.695 463.936 424.985ZM352.212 405.943C326.239 372.996 331.902 325.25 364.867 299.255C397.816 273.303 445.562 278.965 471.535 311.912C497.505 344.838 491.847 392.625 458.9 418.599C425.933 444.573 378.185 438.89 352.212 405.943Z" fill="#93ACBF"/>
<path d="M458.9 418.597C491.847 392.624 497.505 344.837 471.535 311.911C445.562 278.964 397.816 273.301 364.867 299.254C331.902 325.249 326.239 372.995 352.212 405.942C378.185 438.888 425.933 444.572 458.9 418.597ZM355.464 403.387C330.907 372.238 336.254 327.084 367.422 302.505C398.573 277.969 443.727 283.316 468.284 314.465C492.84 345.614 487.495 390.789 456.346 415.345C425.176 439.904 380.02 434.537 355.464 403.387Z" fill="#586773"/>
<path opacity="0.3" d="M355.464 403.388C330.907 372.239 336.254 327.085 367.422 302.506C398.573 277.97 443.727 283.317 468.284 314.466C492.84 345.615 487.496 390.79 456.346 415.346C425.176 439.905 380.021 434.538 355.464 403.388Z" fill="#E5F0F8"/>
<path d="M317.834 438.494L314.911 434.985L350.503 406.946L353.211 410.622L317.834 438.494Z" fill="#93ACBF"/>
<path d="M238.065 498.202C238.05 498.19 238.048 498.176 238.033 498.164C236.171 495.816 236.578 492.403 238.938 490.54L312.735 432.377L314.911 434.985L316.248 436.579L317.835 438.494L319.685 440.717L245.657 499.068C243.322 500.915 239.939 500.534 238.065 498.202Z" fill="#586773"/>
<path d="M238.065 498.203C238.077 498.188 238.103 498.171 238.13 498.156L316.248 436.579L317.835 438.495L319.685 440.718L245.657 499.069C243.323 500.916 239.939 500.535 238.065 498.203Z" fill="#93ACBF"/>
<path d="M391.503 340.793H432.635C428.051 330 420.537 322.98 412.069 322.98C403.585 322.981 396.088 330.001 391.503 340.793Z" fill="#586773"/>
<path d="M386.744 365.69C386.744 389.28 398.077 408.398 412.069 408.398C426.045 408.398 437.395 389.28 437.395 365.69C437.395 358.542 436.36 351.793 434.514 345.888H389.625C387.779 351.793 386.744 358.543 386.744 365.69Z" fill="#586773"/>
<path d="M405.837 326.631C405.837 326.631 405.623 306.885 393.389 306.671" stroke="#586773" stroke-width="6.8725" stroke-miterlimit="10" stroke-linecap="round" stroke-linejoin="round"/>
<path d="M418.3 326.631C418.3 326.631 418.515 306.885 430.748 306.671" stroke="#586773" stroke-width="6.8725" stroke-miterlimit="10" stroke-linecap="round" stroke-linejoin="round"/>
<path d="M394.808 360.112L379.909 348.806L374.109 333.499" stroke="#586773" stroke-width="6.8725" stroke-miterlimit="10" stroke-linecap="round" stroke-linejoin="round"/>
<path d="M428.939 360.112L443.838 348.806L449.639 333.499" stroke="#586773" stroke-width="6.8725" stroke-miterlimit="10" stroke-linecap="round" stroke-linejoin="round"/>
<path d="M394.808 384.578L379.909 395.885L374.109 411.191" stroke="#586773" stroke-width="6.8725" stroke-miterlimit="10" stroke-linecap="round" stroke-linejoin="round"/>
<path d="M428.939 384.578L443.838 395.885L449.639 411.191" stroke="#586773" stroke-width="6.8725" stroke-miterlimit="10" stroke-linecap="round" stroke-linejoin="round"/>
<path d="M267.425 390.681C267.425 390.681 267.579 383.905 265.723 383.905C263.866 383.905 264.417 390.665 267.425 390.681Z" fill="#332B27"/>
<path d="M267.123 421.908L259.005 434.741L250.497 420.596C251.524 421.908 253.492 423.148 259.005 423.272C263.596 423.379 265.847 422.741 267.123 421.908Z" fill="#D6EAFF"/>
<path d="M274.685 484.514C274.568 485.377 269.411 486.484 265.582 486.077C262.337 485.735 254.941 484.142 252.765 483.657L253.58 473.308C254.889 473.244 256.328 473.126 257.551 472.871C260.564 472.267 268.944 471.559 269.036 472.775C269.137 473.98 263.484 475.624 263.941 476.1C264.397 476.576 268.822 476.334 270.693 476.081C272.577 475.836 276.511 474.648 277.279 475.44C278.059 476.242 277.207 477.636 277.207 477.636C277.207 477.636 278.66 477.008 278.886 477.986C279.112 478.965 277.096 480.508 277.096 480.508C277.096 480.508 277.856 480.069 277.838 481.207C277.811 482.357 274.03 483.617 274.03 483.617C274.03 483.617 274.824 483.649 274.685 484.514Z" fill="#FDAE97"/>
<path d="M260.798 566.948L268.106 635.781H296.064L291.581 566.571C291.618 565.841 291.411 565.027 291.35 564.273C290.584 555.629 283.715 549.173 275.071 549.927C266.439 550.693 260.044 558.303 260.798 566.948Z" fill="#088CFC"/>
<path d="M255.293 469.979L245.396 467.986L236.435 466.194L212.529 461.386C207.581 460.727 202.914 464.766 202.152 470.376C201.402 475.984 204.84 481.121 209.792 481.792L234.747 483.633L243.814 484.312L253.186 485.006L255.293 469.979Z" fill="#F74242"/>
<path d="M267.682 416.584L256.672 408.556L267.142 409.088L267.682 416.584Z" fill="#EA9D85"/>
<path d="M266.046 385.666C266.046 385.666 267.791 392.013 269.028 396.515L270.051 400.237C270.859 403.177 271.233 407.765 268.201 409.683C265.18 411.598 260.256 411.47 256.143 408.901C252.026 406.322 240.727 392.718 248.924 384.293C257.133 375.864 265.401 384.21 266.046 385.666Z" fill="#FDAE97"/>
<path d="M250.262 383.066C250.262 383.066 253.339 376.999 256.01 377.452C258.682 377.905 255.852 380.259 255.852 380.259C255.852 380.259 264.706 377.929 267.682 383.68C270.658 389.43 256.673 387.71 256.673 387.71C256.673 387.71 259.44 391.158 256.673 391.494C253.905 391.83 252.637 390.653 252.637 390.653C252.637 390.653 255.399 395.77 253.859 397.4C252.32 399.03 254.222 403.649 255.942 404.962C257.663 406.275 260.76 405.732 262.178 404.532C263.595 403.332 264.501 402.985 265.384 402.887C266.267 402.789 268.354 403.319 269.255 403.173C269.809 403.084 270.508 402.511 270.508 402.511C270.508 402.511 270.972 404.096 271.005 404.719C271.073 406.032 271.723 411.902 265.067 412.173C258.411 412.445 253.871 409.243 251.562 404.396L250.713 408.18C250.713 408.18 249.908 403.92 247.583 401.837C245.257 399.755 242.335 390.11 246.544 386.396C246.544 386.396 242.927 388.467 243.391 385.878C243.74 383.92 250.262 383.066 250.262 383.066Z" fill="#332B27"/>
<path d="M251.49 403.263C252.284 405.328 252.333 406.677 250.712 407.3C249.091 407.923 246.766 407.147 245.972 405.082C245.179 403.018 245.849 400.839 247.47 400.216C249.091 399.593 250.697 401.199 251.49 403.263Z" fill="#FDAE97"/>
<path d="M259.526 396.338C259.714 397.02 260.223 397.475 260.664 397.354C261.105 397.232 261.311 396.582 261.124 395.899C260.936 395.217 260.427 394.763 259.986 394.884C259.545 395.005 259.339 395.656 259.526 396.338Z" fill="#332B27"/>
<path d="M267.776 394.071C267.963 394.753 267.757 395.404 267.316 395.526C266.875 395.647 266.365 395.193 266.178 394.51C265.99 393.828 266.196 393.177 266.637 393.056C267.078 392.934 267.588 393.389 267.776 394.071Z" fill="#332B27"/>
<path d="M262.034 400.493C261.996 401.177 260.863 401.672 259.502 401.597C258.142 401.522 257.069 400.906 257.107 400.222C257.144 399.538 258.278 399.044 259.638 399.119C260.999 399.193 262.071 399.809 262.034 400.493Z" fill="#E89780"/>
<path d="M269.028 396.515L269.693 398.934C268.706 399.334 267.793 399.281 267.506 398.788C267.181 398.201 267.859 397.186 269.028 396.515Z" fill="#E89780"/>
<path d="M247.854 404.113C249.029 404.13 249.916 404.534 249.916 404.534C249.293 402.44 247.775 402.359 247.775 402.359" stroke="#EA9D85" stroke-width="1.103" stroke-miterlimit="10" stroke-linecap="round" stroke-linejoin="round"/>
<path d="M263.049 395.879L265.751 399.82C266.025 400.219 265.991 400.754 265.67 401.116L265.172 401.676L264.662 402.251" stroke="#332B27" stroke-width="0.7055" stroke-miterlimit="10"/>
<path d="M258.143 395.226C258.143 395.226 259.206 393.382 261.04 393.378" stroke="#332B27" stroke-width="0.7055" stroke-miterlimit="10"/>
<path d="M267.935 391.749C267.935 391.749 266.464 390.96 265.066 392.147" stroke="#332B27" stroke-width="0.7055" stroke-miterlimit="10"/>
<path d="M267.891 419.478L259.007 423.279L263.676 428.95L268.991 420.569L267.891 419.478Z" fill="white"/>
<path d="M250.191 418.637L259.007 423.279L254.802 428.711L249.404 419.4L250.191 418.637Z" fill="white"/>
<path d="M272.141 646.539L271.391 635.781H292.338L293.156 646.539H272.141Z" fill="#FDAE97"/>
<path d="M292.709 640.654L271.391 635.781H292.338L292.709 640.654Z" fill="#EA9D85"/>
<path d="M241.049 646.539L241.852 635.764L220.397 635.781L220.033 646.539H241.049Z" fill="#FDAE97"/>
<path d="M337.722 423.366L334.446 422.919C333.566 422.799 332.704 423.239 332.288 424.021L329.105 430.002C328.439 431.255 329.178 432.793 330.576 433.062L334.101 433.74C335.052 433.923 336.006 433.44 336.418 432.567L339.352 426.355C339.961 425.067 339.139 423.559 337.722 423.366Z" fill="#FDAE97"/>
<path d="M241.403 641.773L220.396 635.781L241.852 635.764L241.403 641.773Z" fill="#EA9D85"/>
<path d="M248.365 421.57L259.007 438.689L269.508 422.676" stroke="white" stroke-width="0.574" stroke-miterlimit="10" stroke-linecap="round" stroke-linejoin="round"/>
<path d="M227.983 464.418L223.927 463.679" stroke="#322A28" stroke-width="0.574" stroke-miterlimit="10" stroke-linecap="round" stroke-linejoin="round"/>
<path d="M230.408 460.774L232.886 457.049" stroke="#322A28" stroke-width="0.574" stroke-miterlimit="10" stroke-linecap="round" stroke-linejoin="round"/>
<path d="M303.479 655.586H272.547L272.494 654.328L272.114 645.991H293.162C295.768 645.991 298.179 647.521 300.022 649.116C301.547 650.481 302.681 652.271 303.213 654.328C303.337 654.735 303.426 655.161 303.479 655.586Z" fill="#322A28"/>
<path d="M303.479 655.587H272.547L272.494 654.328H303.213C303.337 654.736 303.426 655.162 303.479 655.587Z" fill="#FFF1F0"/>
<path d="M293.796 647.707C293.796 647.707 291.122 643.014 289.322 644.87C287.522 646.725 293.796 647.707 293.796 647.707Z" stroke="#FFF1F0" stroke-width="0.8736" stroke-miterlimit="10" stroke-linecap="round" stroke-linejoin="round"/>
<path d="M292.854 648.641L293.796 647.707M293.796 647.707C293.796 647.707 296.469 643.014 298.27 644.87C300.071 646.725 293.796 647.707 293.796 647.707Z" stroke="#FFF1F0" stroke-width="0.8736" stroke-miterlimit="10" stroke-linecap="round" stroke-linejoin="round"/>
<path d="M294.514 648.64L293.795 647.706" stroke="#FFF1F0" stroke-width="0.8736" stroke-miterlimit="10" stroke-linecap="round" stroke-linejoin="round"/>
<path d="M209.871 655.586H240.803L240.856 654.328L241.236 645.991H220.188C217.582 645.991 215.171 647.521 213.328 649.116C211.803 650.481 210.669 652.271 210.137 654.328C210.013 654.735 209.924 655.161 209.871 655.586Z" fill="#322A28"/>
<path d="M209.871 655.587H240.803L240.856 654.328H210.137C210.013 654.736 209.924 655.162 209.871 655.587Z" fill="#FFF1F0"/>
<path d="M219.554 647.99C219.554 647.99 222.228 643.298 224.029 645.153C225.829 647.008 219.554 647.99 219.554 647.99Z" stroke="#FFF1F0" stroke-width="0.8736" stroke-miterlimit="10" stroke-linecap="round" stroke-linejoin="round"/>
<path d="M220.495 648.924L219.554 647.99M219.554 647.99C219.554 647.99 216.88 643.298 215.08 645.153C213.279 647.008 219.554 647.99 219.554 647.99Z" stroke="#FFF1F0" stroke-width="0.8736" stroke-miterlimit="10" stroke-linecap="round" stroke-linejoin="round"/>
<path d="M218.835 648.925L219.554 647.99" stroke="#FFF1F0" stroke-width="0.8736" stroke-miterlimit="10" stroke-linecap="round" stroke-linejoin="round"/>
<path d="M258.347 543.283L259.353 535.042L264.41 531.552L268.52 514.811" stroke="white" stroke-width="1.2653" stroke-miterlimit="10"/>
<path d="M293.156 627.347H273.262" stroke="white" stroke-width="1.2653" stroke-miterlimit="10"/>
<path d="M239.927 627.347H220.033" stroke="white" stroke-width="1.2653" stroke-miterlimit="10"/>
<path d="M230.059 464.874L255.292 469.979" stroke="#322A28" stroke-width="0.574" stroke-miterlimit="10" stroke-linecap="round" stroke-linejoin="round"/>
<path d="M230.059 483.292L243.814 484.313" stroke="#322A28" stroke-width="0.574" stroke-miterlimit="10" stroke-linecap="round" stroke-linejoin="round"/>
<path d="M263.937 405.599C264.018 406.212 264.92 406.598 265.953 406.461C266.985 406.325 267.757 405.718 267.676 405.105C267.595 404.493 266.693 404.107 265.66 404.243C264.628 404.38 263.856 404.987 263.937 405.599Z" fill="#FDAE97"/>
<path d="M747.576 119.054C747.576 119.054 754.023 110.838 744.426 106.841C739.585 104.825 738.214 102.213 739.571 98.5508C740.928 94.8889 739.412 90.9148 735.573 88.795C731.734 86.6753 730.08 80.3688 722.066 84.0691C722.066 84.0691 711.96 88.0339 712.368 94.2084C712.776 100.383 712.693 99.8589 710.537 104.059C708.381 108.259 712.874 113.283 713.042 115.802C713.206 118.264 712.126 119.054 712.126 119.054L747.576 119.054Z" fill="#322A28"/>
<path d="M684.914 174.723C689.361 177.453 695.233 176.047 697.963 171.6L718.481 138.173C721.211 133.726 719.806 127.854 715.359 125.124C710.912 122.394 705.04 123.8 702.311 128.247L681.792 161.674C679.062 166.121 680.467 171.993 684.914 174.723Z" fill="#F74242"/>
<path d="M747.69 186.52C747.69 186.52 750.454 189.661 751.555 192.224C752.654 194.786 739.524 193.373 739.524 193.373L740.956 181.064L747.69 186.52Z" fill="#088CFF"/>
<path d="M660.127 240.446C665.256 247.597 675.302 249.251 682.452 244.123L732.396 208.302C739.547 203.173 741.201 193.127 736.073 185.976C730.944 178.826 720.898 177.172 713.748 182.3L663.804 218.121C656.653 223.25 654.999 233.296 660.127 240.446Z" fill="#0775EF"/>
<path d="M674.515 244.928C679.644 252.079 689.69 253.733 696.841 248.605L746.785 212.783C753.935 207.655 755.589 197.609 750.461 190.459C745.332 183.308 735.286 181.654 728.136 186.783L678.192 222.604C671.041 227.732 669.387 237.778 674.515 244.928Z" fill="#088CFF"/>
<path d="M734.11 119.847L750.713 127.666C750.713 127.666 747.021 170.108 746.64 174.783C746.258 179.459 747.689 186.519 747.689 186.519H707.901C707.901 186.519 708.378 163.619 705.706 157.226C703.897 152.896 702.653 150.261 703.702 145.3C704.752 140.338 708.282 132.896 707.042 124.308L717.252 120.205L734.11 119.847Z" fill="#F74242"/>
<path d="M661.673 318.83L664.731 308.051L648.109 305.65L646.764 316.521L661.673 318.83Z" fill="#A06753"/>
<path d="M717.249 100.903V120.209C717.249 120.209 717.249 120.444 717.296 120.822C717.494 122.398 718.513 126.446 723.759 126.389C728.552 126.333 731.902 122.813 733.327 120.964C733.846 120.303 734.11 119.851 734.11 119.851L731.694 100.904L717.249 100.903Z" fill="#A06753"/>
<path d="M717.844 316.952L703.036 319.81L699.896 310.417L716.339 307.965L717.844 316.952Z" fill="#A06753"/>
<path d="M717.252 120.205L725.835 109.246L717.252 107.593V120.205Z" fill="#824C3A"/>
<path d="M716.855 112.609C720.272 113.723 725.01 112.366 728.363 108.846C731.716 105.325 739.248 92.1432 729.194 86.0035C719.129 79.8671 713.185 90.0272 712.925 91.5999C712.925 91.5999 712.825 97.1443 712.765 101.052C712.742 102.046 712.727 102.929 712.717 103.594C712.72 103.702 712.709 103.801 712.71 103.897C712.661 106.958 713.439 111.507 716.855 112.609Z" fill="#A06753"/>
<path d="M767.282 179.993C771.99 177.744 774.001 172.051 771.752 167.343L754.843 131.953C752.593 127.244 746.901 125.233 742.192 127.482C737.484 129.732 735.473 135.424 737.722 140.133L754.631 175.523C756.88 180.231 762.573 182.243 767.282 179.993Z" fill="#F74242"/>
<path d="M677.415 218.599C685.388 221.461 689.531 230.245 686.67 238.217L666.609 310.416L641.888 306.572L656.921 232.143L656.927 232.144C657.011 230.714 657.289 229.271 657.797 227.854C660.658 219.881 669.442 215.737 677.415 218.599Z" fill="#0775EF"/>
<path d="M720.418 328.274L713.409 329.51L712.161 325.064L709.141 330.262L692.604 333.178L703.036 319.809L717.844 316.95L720.418 328.274Z" fill="#322A28"/>
<path d="M684.08 219.596C692.422 218.125 700.377 223.695 701.848 232.037L720.833 309.056L697.154 313.627L673.006 241.523L673.012 241.521C672.375 240.237 671.9 238.847 671.639 237.364C670.167 229.022 675.737 221.067 684.08 219.596Z" fill="#088CFF"/>
<path d="M707.709 321.932L701.093 323.077" stroke="#D1DDFF" stroke-width="2.0369" stroke-miterlimit="10"/>
<path d="M722.066 84.0682C722.066 84.0682 712.899 84.3642 711.722 93.1471L716.376 93.3727C716.376 93.3727 716.303 90.3607 718.643 89.0428C718.643 89.0428 716.995 91.3428 717.558 93.5936L722.949 94.1282C722.949 94.1282 723.185 90.8573 722.897 89.5649C722.897 89.5649 724.199 92.5542 724.241 94.339L728.035 95.3785C728.035 95.3785 728.01 98.4335 729.384 99.5305C730.758 100.627 732.593 105.527 732.593 105.527C732.593 105.527 736.529 94.7277 734.789 91.2877C733.049 87.8486 729.936 82.3255 722.066 84.0682Z" fill="#322A28"/>
<path d="M706.511 324.492L699.896 325.637" stroke="#D1DDFF" stroke-width="2.0369" stroke-miterlimit="10"/>
<path d="M660.411 330.215L653.384 329.085L653.662 324.476L649.105 328.397L632.526 325.732L646.764 316.521L661.673 318.83L660.411 330.215Z" fill="#322A28"/>
<path d="M650.483 320.056L643.857 318.97" stroke="#D1DDFF" stroke-width="2.0369" stroke-miterlimit="10"/>
<path d="M648.512 322.084L641.887 320.998" stroke="#D1DDFF" stroke-width="2.0369" stroke-miterlimit="10"/>
<path d="M715.645 195.741C715.645 195.741 689.357 214.276 684.278 217.81C679.199 221.345 671.694 225.337 671.402 233.83C671.11 242.322 679.698 261.2 679.698 261.2" stroke="#E5F0F8" stroke-width="1.0185" stroke-miterlimit="10"/>
<path d="M729.981 102.101C729.387 103.905 729.402 105.064 730.818 105.53C732.235 105.996 734.197 105.232 734.79 103.429C735.384 101.624 734.717 99.7838 733.3 99.3178C731.883 98.8518 730.574 100.297 729.981 102.101Z" fill="#A06753"/>
<path d="M733.57 101.133C733.57 101.133 731.298 101.025 731.101 102.947C731.101 102.947 731.845 102.264 732.98 102.466" stroke="#724638" stroke-width="0.5092" stroke-miterlimit="10" stroke-linecap="round" stroke-linejoin="round"/>
<path d="M721.585 99.4939C721.59 100.228 721.209 100.825 720.734 100.828C720.259 100.831 719.871 100.238 719.866 99.5046C719.862 98.7708 720.243 98.1737 720.718 98.1709C721.192 98.1677 721.581 98.7602 721.585 99.4939Z" fill="#322A28"/>
<path d="M715.312 98.9607C715.317 99.6945 714.936 100.292 714.461 100.295C713.986 100.298 713.598 99.7051 713.593 98.9714C713.589 98.2376 713.97 97.6405 714.445 97.6377C714.92 97.6345 715.308 98.227 715.312 98.9607Z" fill="#322A28"/>
<path d="M719.265 108.014C718.399 108.314 717.453 107.856 717.153 106.99L720.288 105.902C720.589 106.769 720.131 107.714 719.265 108.014Z" fill="white"/>
<path d="M723.249 98.0078C723.249 98.0078 721.764 96.1878 720.051 96.8599" stroke="#2C3447" stroke-width="0.756" stroke-miterlimit="10"/>
<path d="M715.17 96.5618C715.17 96.5618 714.098 96.3686 712.966 97.5341" stroke="#2C3447" stroke-width="0.756" stroke-miterlimit="10"/>
<path d="M717.53 99.0527C717.53 99.0527 717.468 102.689 715.336 103.147C715.336 103.147 716.019 103.761 716.871 104.01" stroke="#2C3447" stroke-width="0.756" stroke-miterlimit="10"/>
<path d="M720.424 103.494C720.603 104.193 721.798 104.491 723.093 104.16C724.388 103.828 725.292 102.993 725.114 102.295C724.935 101.596 723.74 101.298 722.445 101.629C721.15 101.961 720.246 102.796 720.424 103.494Z" fill="#A14C53"/>
<path d="M712.717 103.594C713.495 103.624 714.12 103.38 714.276 102.907C714.479 102.288 713.824 101.516 712.765 101.052C712.742 102.046 712.727 102.929 712.717 103.594Z" fill="#A14C53"/>
<path d="M698.825 169.157C701.102 163.912 699.177 157.976 694.547 155.966L652.332 143.964C651.013 143.254 649.532 142.385 648.393 141.516C645.746 139.497 637.91 134.858 637.251 135.992C636.591 137.125 641.316 141.392 640.649 141.641C639.981 141.89 635.785 139.569 634.074 138.438C632.363 137.306 629.087 134.29 627.96 134.701C626.833 135.112 626.991 136.872 626.991 136.872C626.991 136.872 625.881 135.568 625.201 136.417C624.521 137.267 625.757 139.719 625.757 139.719C625.757 139.719 625.214 138.93 624.696 140.053C624.179 141.176 627.269 144.192 627.269 144.192C627.269 144.192 626.473 143.85 626.197 144.756C625.92 145.661 630.419 149.173 634.335 150.586C637.831 151.847 646.47 153.921 648.286 154.352L686.267 175.04C690.897 177.05 696.548 174.402 698.825 169.157Z" fill="#A06753"/>
<path d="M747.414 160.418L741.782 148.631" stroke="#2C3447" stroke-width="1.047" stroke-miterlimit="10"/>
<path d="M722.65 208.902L737.529 195.741H693.52L677.15 208.902H722.65Z" fill="#89A5C7"/>
<path d="M730.406 106.131C730.412 106.902 731.042 107.523 731.813 107.517C732.584 107.511 733.205 106.881 733.199 106.11C733.194 105.338 732.564 104.718 731.792 104.724C731.021 104.729 730.4 105.359 730.406 106.131Z" stroke="white" stroke-width="0.8623" stroke-miterlimit="10"/>
<path d="M677.15 208.901H722.65L710.776 174.829H665.276L677.15 208.901Z" fill="#A5BBD6"/>
<path d="M722.154 207.247L737.033 194.087H693.024L676.654 207.247H722.154Z" fill="#89A5C7"/>
<path d="M678.01 208.147H723.51L711.635 174.075H666.135L678.01 208.147Z" fill="#A5BBD6"/>
<path d="M666.135 174.075L665.276 174.829H710.776L722.65 208.901L723.51 208.147L711.635 174.075H666.135Z" fill="#89A5C7"/>
<path d="M737.033 194.087L737.529 195.741L722.65 208.902L722.074 207.247L737.033 194.087Z" fill="#586773"/>
<path d="M687 192.252C687 193.485 689.259 194.485 692.045 194.485C694.831 194.485 697.089 193.485 697.089 192.252C697.089 191.019 694.831 190.02 692.045 190.02C689.258 190.02 687 191.019 687 192.252Z" fill="#89A5C7"/>
<path d="M771.789 166.362C769.105 161.312 763.263 159.119 758.806 161.488L723.115 187.027C721.738 187.617 720.136 188.234 718.746 188.583C715.518 189.395 707.007 192.633 707.482 193.855C707.958 195.078 714.239 194.041 714.018 194.718C713.797 195.394 709.366 197.231 707.416 197.864C705.465 198.497 701.064 199.18 700.683 200.318C700.303 201.455 701.777 202.428 701.777 202.428C701.777 202.428 700.065 202.483 700.306 203.544C700.547 204.606 703.234 205.167 703.234 205.167C703.234 205.167 702.279 205.1 702.835 206.205C703.391 207.31 707.675 206.771 707.675 206.771C707.675 206.771 706.912 207.181 707.448 207.961C707.984 208.742 713.534 207.412 717.08 205.229C720.244 203.281 727.249 197.816 728.718 196.664L768.566 179.849C773.022 177.481 774.473 171.411 771.789 166.362Z" fill="#A06753"/>
<path d="M705.843 157.594C705.843 157.594 702.853 151.304 703.338 148.036C703.824 144.769 706.486 135.942 706.837 133.23" stroke="#2C3447" stroke-width="1.047" stroke-miterlimit="10"/>
<path d="M714.443 643.463L717.356 617.764H698.93C698.93 617.764 698.348 621.809 698.348 628.108C698.348 636.594 699.532 643.955 699.532 643.955L714.443 643.463Z" fill="#FDAE97"/>
<path d="M714.443 643.462L727.891 655.585H708.281L705.315 651.966L705.084 655.585H699.692L699.525 643.462H714.443Z" fill="#332B27"/>
<path d="M717.062 647.345H711.824" stroke="#FFF1F0" stroke-width="0.6166" stroke-miterlimit="10"/>
<path d="M715.721 388.137C715.721 388.137 720.753 391.92 719.537 399.561C718.321 407.202 717.642 411.337 722.477 411.803C727.312 412.269 737.051 409.525 737.742 416.014C738.432 422.504 733.801 426.752 740.603 428.046C747.405 429.34 748.208 438.135 748.208 438.135C748.208 438.135 723.631 453.114 700.684 438.694C677.738 424.273 702.553 414.921 702.553 414.921L715.721 388.137Z" fill="#322A28"/>
<path d="M719.68 649.502H714.442" stroke="#FFF1F0" stroke-width="0.6166" stroke-miterlimit="10"/>
<path d="M719.613 480.754C726.868 488.319 731.184 505.213 729.237 524.155C727.289 543.097 727.297 555.404 727.297 555.404C727.21 564.08 720.107 571.044 711.43 570.957C702.754 570.871 695.79 563.767 695.877 555.091L692.335 481.716L719.613 480.754Z" fill="#088CFF"/>
<path d="M664.103 643.463L664.387 617.764H682.813C682.813 617.764 683.113 625.28 681.713 631.422C680.312 637.564 679.015 643.955 679.015 643.955L664.103 643.463Z" fill="#FDAE97"/>
<path d="M680.426 473.104L686.541 474.551L683.483 479.567L680.426 473.104Z" fill="#E89780"/>
<path d="M695.936 556.827C695.247 548.177 701.7 540.607 710.349 539.918C718.998 539.228 726.569 545.682 727.258 554.331C727.381 555.868 727.268 557.368 726.967 558.805L726.973 558.806L723.575 628.108H692.335L695.936 556.827Z" fill="#088CFF"/>
<path d="M695.715 413.747L679.878 418.41L681.476 481.717H722.231C722.231 481.717 724.977 427.34 726.247 418.543L709.988 413.792L695.715 413.747Z" fill="white"/>
<path d="M681.475 481.717C673.402 488.403 667.891 502.668 667.658 521.709C667.426 540.749 666.01 552.975 666.01 552.975C665.103 561.604 671.363 569.335 679.993 570.242C688.622 571.149 696.353 564.889 697.26 556.26L705.728 481.717L681.475 481.717Z" fill="#088CFF"/>
<path d="M664.103 643.462L650.656 655.585H670.265L673.232 651.966L673.463 655.585H678.854L679.014 643.955L664.103 643.462Z" fill="#332B27"/>
<path d="M666.008 553.759C666.462 545.094 673.855 538.438 682.52 538.892C691.185 539.346 697.841 546.739 697.387 555.404C697.306 556.944 696.997 558.416 696.51 559.801L696.516 559.802L686.562 628.109L656.175 627.786L666.008 553.759Z" fill="#088CFF"/>
<path d="M661.484 647.345H666.722" stroke="#FFF1F0" stroke-width="0.6166" stroke-miterlimit="10"/>
<path d="M658.866 649.502H664.103" stroke="#FFF1F0" stroke-width="0.6166" stroke-miterlimit="10"/>
<path d="M713.092 414.697C713.092 414.697 708.672 432.345 707.046 458.393C705.419 484.442 709.083 607.086 709.083 607.086H729.705C729.705 607.086 730.849 524.134 730.526 509.367C730.203 494.6 725.515 450.228 725.515 450.228C725.515 450.228 718.736 433.646 726.247 418.543L713.092 414.697Z" fill="#E7888B"/>
<path d="M709.996 394.008V413.799C709.996 413.799 709.599 418.129 704.416 418.525C698.591 418.952 695.512 413.768 695.329 413.433L695.694 410.017L696.823 399.466L697.402 394.008H709.996Z" fill="#FDAE97"/>
<path d="M722.539 447.59C722.539 447.59 719.482 454.422 709.988 452.539" stroke="#586773" stroke-width="0.7105" stroke-miterlimit="10"/>
<path d="M705.94 403.096L695.693 410.018L696.822 399.467L705.94 403.096Z" fill="#E89780"/>
<path d="M695.476 412.528L702.983 418.313L700.968 424.29L693.588 413.915L695.476 412.528Z" fill="#E5F0F8"/>
<path d="M709.983 412.528L702.983 418.313L705.337 424.29L711.108 414.118L709.983 412.528Z" fill="#E5F0F8"/>
<path d="M759.503 460.435L759.427 460.514C756.085 464.026 750.477 464.165 746.965 460.823L718.352 433.589C714.84 430.247 714.702 424.639 718.044 421.127L718.12 421.047C721.462 417.536 727.07 417.397 730.582 420.739L759.195 447.972C762.707 451.315 762.845 456.923 759.503 460.435Z" fill="white"/>
<path d="M723.465 476.574L714.565 472.578L709.254 475.044L707.989 479.66C707.989 479.66 708.537 480.137 709.323 479.548C710.04 479.01 711.214 477.189 711.214 477.189L713.719 476.878L714.755 477.539L710.329 479.723C710.329 479.723 709.05 482.874 709.324 484.048C709.396 484.354 709.502 484.886 710.287 484.493C710.611 484.331 711.245 483.865 711.245 483.865C711.245 483.865 711.268 484.906 711.459 485.178C711.671 485.479 712.572 485.797 712.894 484.85C713.148 484.102 713.322 482.172 713.322 482.172L717.221 483.264L714.613 484.5L714.257 487.962C714.257 487.962 716.008 488.755 716.415 486.141C716.415 486.141 718.169 484.908 722.343 486.378C726.516 487.848 728.913 487.249 731.674 485.224L723.465 476.574Z" fill="#FDAE97"/>
<path d="M711.246 483.865L711.863 480.64L715.941 479.929" stroke="#332B27" stroke-width="0.6309" stroke-miterlimit="10"/>
<path d="M721.518 475.343L746.513 447.299C749.582 444.057 755.098 444.237 758.784 447.709C762.461 451.185 762.961 456.69 759.897 459.942L733.007 487.45L721.518 475.343Z" fill="white"/>
<path d="M692.984 414.551L679.535 418.542C679.535 418.542 685.223 435.52 679.879 454.191C679.879 454.191 668.038 511.366 662.584 539.867C656.85 569.834 655.358 607.086 655.358 607.086H672.556C672.556 607.086 697.55 485.514 698.286 466.216C699.023 446.918 692.984 414.551 692.984 414.551Z" fill="#E7888B"/>
<path d="M683.154 476.574L692.054 472.578L697.365 475.044L698.63 479.66C698.63 479.66 698.082 480.137 697.296 479.548C696.58 479.01 695.405 477.189 695.405 477.189L692.9 476.878L691.864 477.539L696.291 479.723C696.291 479.723 697.57 482.874 697.295 484.048C697.224 484.354 697.118 484.886 696.332 484.493C696.009 484.331 695.374 483.865 695.374 483.865C695.374 483.865 695.352 484.906 695.16 485.178C694.949 485.479 694.047 485.797 693.726 484.85C693.472 484.102 693.297 482.172 693.297 482.172L689.398 483.264L692.007 484.5L692.362 487.962C692.362 487.962 690.611 488.755 690.205 486.141C690.205 486.141 688.45 484.908 684.277 486.378C680.103 487.848 677.706 487.249 674.945 485.224L683.154 476.574Z" fill="#FDAE97"/>
<path d="M695.373 483.865L694.757 480.64L690.678 479.929" stroke="#332B27" stroke-width="0.6309" stroke-miterlimit="10"/>
<path d="M685.102 475.343L660.107 447.299C657.038 444.057 651.522 444.237 647.836 447.709C644.159 451.185 643.659 456.69 646.723 459.942L673.613 487.45L685.102 475.343Z" fill="white"/>
<path d="M647.526 460.138L647.602 460.218C650.944 463.73 656.552 463.868 660.064 460.526L688.677 433.293C692.189 429.951 692.327 424.343 688.985 420.831L688.909 420.751C685.567 417.24 679.959 417.101 676.447 420.443L647.834 447.676C644.322 451.019 644.183 456.627 647.526 460.138Z" fill="white"/>
<path d="M684.885 447.59C684.885 447.59 687.942 454.422 697.436 452.539" stroke="#586773" stroke-width="0.7105" stroke-miterlimit="10"/>
<path d="M679.878 418.41C679.878 418.41 682.417 434.115 681.661 445.446L693.588 427.037L689.383 415.619L679.878 418.41Z" fill="#E7888B"/>
<path d="M723.122 440.485C723.122 440.485 721.322 428.717 726.247 418.543L717.821 416.08L712.91 432.047L723.122 440.485Z" fill="#E7888B"/>
<path d="M696.42 463.173C696.42 464.11 695.66 464.87 694.723 464.87C693.786 464.87 693.025 464.11 693.025 463.173C693.025 462.235 693.785 461.476 694.723 461.476C695.66 461.476 696.42 462.235 696.42 463.173Z" fill="white"/>
<path d="M695.73 470.01C695.73 470.947 694.97 471.707 694.032 471.707C693.095 471.707 692.335 470.947 692.335 470.01C692.335 469.073 693.095 468.312 694.032 468.312C694.969 468.313 695.73 469.073 695.73 470.01Z" fill="white"/>
<path d="M694.197 388.275C694.197 388.275 691.642 382.637 697.171 380.683L694.197 388.275Z" fill="#322A28"/>
<path d="M705.654 404.007C701.625 406.602 696.759 406.79 693.746 404.931C690.73 403.084 691.035 398.541 691.796 395.634C691.799 395.623 691.799 395.623 691.801 395.612C691.961 395.011 692.186 394.165 692.438 393.208C693.414 389.453 694.856 383.893 694.856 383.893C695.468 380.96 703.528 374.1 711.738 382.308C719.945 390.528 709.683 401.413 705.654 404.007Z" fill="#FDAE97"/>
<path d="M695.074 382.708C695.074 382.708 695.319 386.183 700.285 388.316C705.251 390.449 710.017 393.822 709.637 398.984C709.257 404.146 711.132 406.976 711.132 406.976C711.132 406.976 711.605 400.543 714.622 394.992C715.792 392.839 716.715 388.358 714.483 384.613C710.962 378.705 702.305 374.452 695.074 382.708Z" fill="#322A28"/>
<path d="M708.759 397.912C707.772 399.503 707.517 400.616 708.766 401.391C710.014 402.166 712.071 401.89 713.058 400.3C714.045 398.709 713.833 396.792 712.584 396.016C711.336 395.241 709.747 396.322 708.759 397.912Z" fill="#FDAE97"/>
<path d="M711.549 398.959C710.509 398.502 709.637 398.984 709.637 398.984C710.272 397.188 712.423 397.819 712.423 397.819" stroke="#E89780" stroke-width="0.5019" stroke-miterlimit="10" stroke-linecap="round" stroke-linejoin="round"/>
<path d="M701.323 393.467C701.157 394.171 700.653 394.654 700.198 394.547C699.742 394.439 699.508 393.782 699.674 393.077C699.84 392.373 700.344 391.89 700.799 391.997C701.254 392.105 701.489 392.763 701.323 393.467Z" fill="#332B27"/>
<path d="M695.438 391.501C695.272 392.205 694.768 392.689 694.313 392.582C693.857 392.474 693.623 391.816 693.789 391.113C693.954 390.409 694.458 389.925 694.914 390.032C695.37 390.14 695.604 390.798 695.438 391.501Z" fill="#332B27"/>
<path d="M703.26 392.431C703.26 392.431 702.261 390.344 700.464 390.589" stroke="#332B27" stroke-width="0.7451" stroke-miterlimit="10"/>
<path d="M695.858 389.172C695.858 389.172 694.876 388.738 693.521 389.592" stroke="#332B27" stroke-width="0.7451" stroke-miterlimit="10"/>
<path d="M697.542 392.104C697.542 392.104 696.638 395.572 694.49 395.516C694.49 395.516 695.002 396.262 695.76 396.699" stroke="#332B27" stroke-width="0.7451" stroke-miterlimit="10"/>
<path d="M694.728 399.523C694.728 399.523 696.776 401.018 699.003 398.896" stroke="#332B27" stroke-width="0.7451" stroke-miterlimit="10"/>
<path d="M701.879 398.091C703.354 397.992 704.509 397.302 704.458 396.55C704.408 395.798 703.171 395.269 701.697 395.368C700.222 395.467 699.067 396.157 699.118 396.909C699.168 397.661 700.405 398.19 701.879 398.091Z" fill="#E89780"/>
<path d="M693.347 395.193C693.125 395.603 692.528 395.74 691.802 395.611C691.961 395.01 692.187 394.165 692.438 393.207C693.241 393.883 693.639 394.681 693.347 395.193Z" fill="#E89780"/>
<path d="M721.641 389.686C724.073 387.908 723.89 383.517 721.23 379.879C718.571 376.241 714.444 374.734 712.011 376.512C709.578 378.29 709.762 382.681 712.421 386.319C715.08 389.957 719.208 391.464 721.641 389.686Z" fill="#322A28"/>
<path d="M708.196 401.414C708.05 402.062 708.456 402.706 709.105 402.853C709.754 402.999 710.397 402.592 710.544 401.943C710.69 401.295 710.283 400.651 709.634 400.504C708.986 400.358 708.342 400.765 708.196 401.414Z" stroke="white" stroke-width="0.6595" stroke-miterlimit="10"/>
<path d="M418.472 174.967H313.954C310.55 174.967 307.791 172.207 307.791 168.803V94.1335C307.791 90.7292 310.55 87.9697 313.954 87.9697H418.472C421.876 87.9697 424.636 90.7292 424.636 94.1335V168.803C424.636 172.207 421.876 174.967 418.472 174.967Z" fill="#F9E181"/>
<path d="M359.006 144.494C359.006 146.801 358.631 149.021 357.893 151.167C357.148 153.307 356.048 155.192 354.593 156.815C353.137 158.432 351.313 159.726 349.113 160.685C346.913 161.644 344.358 162.127 341.447 162.127C336.832 162.127 333.056 161.054 330.118 158.915C327.174 156.768 325.242 153.368 324.303 148.693L334.028 146.385C334.364 148.31 335.142 149.846 336.383 151C337.617 152.154 339.139 152.731 340.957 152.731C343.922 152.731 345.94 151.732 347.014 149.726C348.087 147.721 348.617 144.957 348.617 141.442V102.292H359.006V144.494H359.006Z" fill="white"/>
<path d="M400.215 114.821C399.115 113.224 397.646 112.057 395.802 111.319C393.964 110.575 392.026 110.206 389.994 110.206C388.786 110.206 387.619 110.34 386.492 110.615C385.366 110.89 384.346 111.332 383.441 111.936C382.535 112.54 381.804 113.324 381.254 114.284C380.704 115.243 380.436 116.383 380.436 117.704C380.436 119.683 381.12 121.192 382.495 122.238C383.864 123.285 385.567 124.19 387.606 124.955C389.638 125.726 391.859 126.47 394.28 127.181C396.695 127.899 398.921 128.885 400.954 130.146C402.986 131.414 404.69 133.09 406.065 135.176C407.439 137.262 408.124 140.039 408.124 143.5C408.124 146.633 407.547 149.369 406.393 151.703C405.24 154.038 403.69 155.976 401.738 157.512C399.786 159.048 397.519 160.208 394.937 160.973C392.355 161.744 389.638 162.126 386.781 162.126C383.152 162.126 379.664 161.522 376.311 160.315C372.957 159.108 370.073 157.076 367.659 154.218L375.486 146.632C376.754 148.557 378.417 150.053 380.476 151.126C382.535 152.192 384.722 152.729 387.029 152.729C388.236 152.729 389.444 152.569 390.651 152.24C391.859 151.904 392.959 151.415 393.951 150.751C394.937 150.094 395.735 149.255 396.339 148.242C396.943 147.223 397.245 146.056 397.245 144.734C397.245 142.595 396.561 140.945 395.186 139.791C393.811 138.638 392.107 137.665 390.075 136.867C388.043 136.069 385.816 135.317 383.401 134.6C380.98 133.889 378.76 132.909 376.727 131.675C374.688 130.434 372.985 128.791 371.617 126.725C370.242 124.666 369.557 121.909 369.557 118.449C369.557 115.424 370.175 112.814 371.409 110.614C372.643 108.421 374.266 106.59 376.271 105.135C378.277 103.679 380.57 102.592 383.153 101.882C385.735 101.164 388.371 100.809 391.068 100.809C394.14 100.809 397.125 101.278 400.009 102.21C402.893 103.143 405.488 104.678 407.796 106.825L400.215 114.821Z" fill="white"/>
<path d="M230.161 374.61H116.766C113.229 374.61 110.363 371.744 110.363 368.208V294.102C110.363 290.566 113.229 287.699 116.766 287.699H230.161C233.697 287.699 236.564 290.566 236.564 294.102V368.208C236.564 371.744 233.697 374.61 230.161 374.61Z" fill="#088CFC"/>
<path d="M117.112 338.889V332.561L153.646 312.789V322.455L129.242 335.725L153.646 348.995V358.66L117.112 338.889Z" fill="white"/>
<path d="M164.763 366.57L158.771 363.934L181.297 295.74L187.289 298.553L164.763 366.57Z" fill="white"/>
<path d="M229.815 332.56V338.889L193.281 358.66V348.995L217.684 335.725L193.281 322.455V312.789L229.815 332.56Z" fill="white"/>
<path d="M571.193 604.713H445.65C442.465 604.713 439.882 602.13 439.882 598.945V545.552C439.882 542.367 442.464 539.784 445.65 539.784H571.193C574.378 539.784 576.96 542.366 576.96 545.552V598.945C576.96 602.13 574.378 604.713 571.193 604.713Z" fill="#F9E181"/>
<path d="M451.233 557.072H456.634V569.163H470.823V557.072H476.227V587.424H470.823V574.048H456.634V587.424H451.233V557.072Z" fill="white"/>
<path d="M489.215 561.96H479.91V557.072H503.916V561.96H494.616V587.424H489.215L489.215 561.96Z" fill="white"/>
<path d="M507.737 557.072H515.967L524.068 578.336L532.256 557.072H540.402V587.424H535.26V562.216H535.173L525.955 587.424H522.184L512.967 562.216H512.88V587.424H507.737V557.072Z" fill="white"/>
<path d="M547.303 557.072H552.704V582.537H565.608V587.424H547.303L547.303 557.072Z" fill="white"/>
<path d="M673.026 55.354H592.026C589.653 55.354 587.729 53.4302 587.729 51.057V4.50888C587.729 2.13573 589.653 0.211914 592.026 0.211914H673.026C675.399 0.211914 677.323 2.13573 677.323 4.50888V51.0566C677.323 53.4297 675.399 55.354 673.026 55.354Z" fill="#088CFC"/>
<path d="M619.543 20.7312C618.567 19.6801 617.623 18.9806 616.711 18.6295C615.797 18.2793 614.877 18.1037 613.952 18.1037C612.576 18.1037 611.331 18.3474 610.219 18.8356C609.106 19.3234 608.149 19.9993 607.349 20.8623C606.548 21.7244 605.928 22.7324 605.491 23.8831C605.053 25.0333 604.834 26.2715 604.834 27.5973C604.834 29.0231 605.053 30.3359 605.491 31.5375C605.928 32.7382 606.548 33.7759 607.349 34.6518C608.149 35.5278 609.105 36.2153 610.219 36.7156C611.331 37.2159 612.576 37.466 613.952 37.466C615.028 37.466 616.073 37.2094 617.086 36.6966C618.098 36.1842 619.043 35.3648 619.918 34.2387L623.821 37.0153C622.62 38.6667 621.157 39.8674 619.43 40.6183C617.704 41.3688 615.866 41.7435 613.915 41.7435C611.863 41.7435 609.981 41.4123 608.267 40.7499C606.554 40.0874 605.077 39.1489 603.84 37.9353C602.602 36.7221 601.631 35.2647 600.932 33.5637C600.231 31.8627 599.881 29.9746 599.881 27.8979C599.881 25.7721 600.231 23.8386 600.932 22.1001C601.631 20.362 602.601 18.8796 603.84 17.6539C605.078 16.4291 606.554 15.4841 608.267 14.8208C609.981 14.1583 611.863 13.8271 613.915 13.8271C615.716 13.8271 617.386 14.1459 618.924 14.7837C620.462 15.4211 621.894 16.5037 623.22 18.0291L619.543 20.7312Z" fill="white"/>
<path d="M640.03 20.2044C639.529 19.479 638.86 18.9472 638.022 18.6095C637.183 18.2718 636.302 18.1027 635.377 18.1027C634.827 18.1027 634.295 18.1657 633.782 18.2908C633.27 18.4159 632.807 18.6155 632.394 18.8911C631.981 19.1667 631.649 19.523 631.399 19.9603C631.149 20.3985 631.024 20.9168 631.024 21.5172C631.024 22.4182 631.337 23.1056 631.962 23.5809C632.587 24.0562 633.363 24.4694 634.289 24.8191C635.213 25.1693 636.227 25.5075 637.328 25.8327C638.428 26.1574 639.442 26.6077 640.367 27.1826C641.292 27.7584 642.068 28.5218 642.693 29.4723C643.319 30.4229 643.632 31.6857 643.632 33.2616C643.632 34.6884 643.369 35.9331 642.843 36.9957C642.317 38.0589 641.611 38.9409 640.724 39.6408C639.835 40.3412 638.803 40.8665 637.627 41.2167C636.451 41.5669 635.212 41.7416 633.913 41.7416C632.261 41.7416 630.673 41.4664 629.147 40.9161C627.62 40.3662 626.307 39.4407 625.207 38.1395L628.772 34.6879C629.346 35.5639 630.103 36.2448 631.041 36.7326C631.98 37.2204 632.974 37.4645 634.025 37.4645C634.575 37.4645 635.125 37.389 635.676 37.2394C636.225 37.0888 636.726 36.8642 637.177 36.5635C637.627 36.2638 637.99 35.8821 638.265 35.4198C638.54 34.957 638.677 34.4253 638.677 33.8249C638.677 32.8493 638.365 32.0984 637.739 31.5731C637.114 31.0483 636.338 30.6036 635.413 30.2409C634.488 29.8791 633.474 29.5344 632.374 29.2092C631.273 28.8845 630.26 28.4398 629.334 27.8774C628.409 27.3141 627.633 26.5642 627.009 25.6256C626.383 24.6876 626.07 23.4304 626.07 21.8544C626.07 20.4791 626.352 19.2914 626.914 18.2903C627.478 17.2893 628.215 16.4577 629.129 15.7944C630.041 15.132 631.086 14.6377 632.262 14.313C633.437 13.9882 634.638 13.8252 635.865 13.8252C637.265 13.8252 638.622 14.0373 639.936 14.4626C641.249 14.8883 642.431 15.5887 643.482 16.5643L640.03 20.2044Z" fill="white"/>
<path d="M661.568 20.2044C661.067 19.479 660.398 18.9472 659.56 18.6095C658.722 18.2718 657.84 18.1027 656.915 18.1027C656.365 18.1027 655.833 18.1657 655.32 18.2908C654.807 18.4159 654.345 18.6155 653.932 18.8911C653.519 19.1667 653.187 19.523 652.937 19.9603C652.687 20.3985 652.562 20.9168 652.562 21.5172C652.562 22.4182 652.875 23.1056 653.5 23.5809C654.125 24.0562 654.901 24.4694 655.827 24.8191C656.751 25.1693 657.764 25.5075 658.866 25.8327C659.966 26.1574 660.979 26.6077 661.904 27.1826C662.829 27.7584 663.605 28.5218 664.231 29.4723C664.856 30.4229 665.169 31.6857 665.169 33.2616C665.169 34.6884 664.907 35.9331 664.381 36.9957C663.855 38.0584 663.149 38.9409 662.261 39.6408C661.373 40.3412 660.341 40.8665 659.165 41.2167C657.989 41.5669 656.75 41.7416 655.45 41.7416C653.799 41.7416 652.21 41.4664 650.684 40.9161C649.158 40.3662 647.845 39.4407 646.744 38.1395L650.309 34.6879C650.884 35.5639 651.641 36.2448 652.579 36.7326C653.518 37.2204 654.512 37.4645 655.563 37.4645C656.113 37.4645 656.662 37.389 657.213 37.2394C657.763 37.0888 658.263 36.8642 658.715 36.5635C659.165 36.2638 659.528 35.8821 659.803 35.4198C660.077 34.957 660.215 34.4253 660.215 33.8249C660.215 32.8493 659.903 32.0984 659.277 31.5731C658.652 31.0483 657.876 30.6036 656.951 30.2409C656.025 29.8791 655.012 29.5344 653.911 29.2092C652.811 28.8845 651.797 28.4398 650.872 27.8774C649.947 27.3141 649.171 26.5642 648.546 25.6256C647.921 24.6876 647.608 23.4304 647.608 21.8544C647.608 20.4791 647.889 19.2914 648.452 18.2903C649.015 17.2893 649.752 16.4577 650.666 15.7944C651.578 15.132 652.624 14.6377 653.799 14.313C654.974 13.9882 656.175 13.8252 657.401 13.8252C658.802 13.8252 660.159 14.0373 661.472 14.4626C662.785 14.8883 663.967 15.5887 665.018 16.5643L661.568 20.2044Z" fill="white"/>
</svg>
