<svg width="168" height="28" viewBox="0 0 168 28" fill="none" xmlns="http://www.w3.org/2000/svg">
<path d="M4.91738e-06 26.82V5.00679e-06H4.68001L14.724 13.644H12.492L22.32 5.00679e-06H27V26.82H22.068V5.58001L23.976 6.04801L13.788 19.62H13.212L3.276 6.04801L4.896 5.58001V26.82H4.91738e-06ZM41.3128 27.252C39.3928 27.252 37.6408 26.808 36.0568 25.92C34.4968 25.032 33.2488 23.82 32.3128 22.284C31.4008 20.748 30.9448 18.996 30.9448 17.028C30.9448 15.06 31.4008 13.308 32.3128 11.772C33.2488 10.236 34.4968 9.02401 36.0568 8.13601C37.6168 7.24801 39.3688 6.80401 41.3128 6.80401C43.2328 6.80401 44.9728 7.24801 46.5328 8.13601C48.0928 9.02401 49.3288 10.236 50.2408 11.772C51.1768 13.284 51.6448 15.036 51.6448 17.028C51.6448 18.996 51.1768 20.748 50.2408 22.284C49.3048 23.82 48.0568 25.032 46.4968 25.92C44.9368 26.808 43.2088 27.252 41.3128 27.252ZM41.3128 22.932C42.3688 22.932 43.2928 22.68 44.0848 22.176C44.9008 21.672 45.5368 20.976 45.9928 20.088C46.4728 19.176 46.7128 18.156 46.7128 17.028C46.7128 15.876 46.4728 14.868 45.9928 14.004C45.5368 13.116 44.9008 12.42 44.0848 11.916C43.2928 11.388 42.3688 11.124 41.3128 11.124C40.2328 11.124 39.2848 11.388 38.4688 11.916C37.6528 12.42 37.0048 13.116 36.5248 14.004C36.0688 14.868 35.8408 15.876 35.8408 17.028C35.8408 18.156 36.0688 19.176 36.5248 20.088C37.0048 20.976 37.6528 21.672 38.4688 22.176C39.2848 22.68 40.2328 22.932 41.3128 22.932ZM55.2212 26.82V7.23601H59.6492V11.592L59.2892 10.944C59.7452 9.48001 60.4532 8.46001 61.4132 7.88401C62.3972 7.30801 63.5732 7.02001 64.9412 7.02001H66.0932V11.196H64.4012C63.0572 11.196 61.9772 11.616 61.1612 12.456C60.3452 13.272 59.9372 14.424 59.9372 15.912V26.82H55.2212Z" fill="black"/>
<path d="M69.082 26.82V5.00679e-06H73.978V26.82H69.082ZM78.7407 26.82V7.23601H83.1687V11.088L82.8087 10.404C83.2647 9.22801 84.0087 8.34001 85.0407 7.74001C86.0967 7.11601 87.3207 6.80401 88.7127 6.80401C90.1527 6.80401 91.4247 7.11601 92.5287 7.74001C93.6567 8.36401 94.5327 9.24001 95.1567 10.368C95.7807 11.472 96.0927 12.756 96.0927 14.22V26.82H91.3767V15.336C91.3767 14.472 91.2087 13.728 90.8727 13.104C90.5367 12.48 90.0687 12 89.4687 11.664C88.8927 11.304 88.2087 11.124 87.4167 11.124C86.6487 11.124 85.9647 11.304 85.3647 11.664C84.7647 12 84.2967 12.48 83.9607 13.104C83.6247 13.728 83.4567 14.472 83.4567 15.336V26.82H78.7407ZM109.009 27.036C106.801 27.036 105.085 26.436 103.861 25.236C102.661 24.012 102.061 22.296 102.061 20.088V11.448H98.6766V7.23601H99.0366C99.9966 7.23601 100.741 6.98401 101.269 6.48001C101.797 5.97601 102.061 5.24401 102.061 4.28401V2.77201H106.777V7.23601H111.277V11.448H106.777V19.836C106.777 20.484 106.885 21.036 107.101 21.492C107.341 21.948 107.701 22.296 108.181 22.536C108.685 22.776 109.321 22.896 110.089 22.896C110.257 22.896 110.449 22.884 110.665 22.86C110.905 22.836 111.133 22.812 111.349 22.788V26.82C111.013 26.868 110.629 26.916 110.197 26.964C109.765 27.012 109.369 27.036 109.009 27.036ZM124.064 27.252C122.048 27.252 120.284 26.796 118.772 25.884C117.26 24.972 116.084 23.736 115.244 22.176C114.404 20.616 113.984 18.888 113.984 16.992C113.984 15.024 114.404 13.284 115.244 11.772C116.108 10.236 117.272 9.02401 118.736 8.13601C120.224 7.24801 121.88 6.80401 123.704 6.80401C125.24 6.80401 126.584 7.05601 127.736 7.56001C128.912 8.06401 129.908 8.76001 130.724 9.64801C131.54 10.536 132.164 11.556 132.596 12.708C133.028 13.836 133.244 15.06 133.244 16.38C133.244 16.716 133.22 17.064 133.172 17.424C133.148 17.784 133.088 18.096 132.992 18.36H117.872V14.76H130.328L128.096 16.452C128.312 15.348 128.252 14.364 127.916 13.5C127.604 12.636 127.076 11.952 126.332 11.448C125.612 10.944 124.736 10.692 123.704 10.692C122.72 10.692 121.844 10.944 121.076 11.448C120.308 11.928 119.72 12.648 119.312 13.608C118.928 14.544 118.784 15.684 118.88 17.028C118.784 18.228 118.94 19.296 119.348 20.232C119.78 21.144 120.404 21.852 121.22 22.356C122.06 22.86 123.02 23.112 124.1 23.112C125.18 23.112 126.092 22.884 126.836 22.428C127.604 21.972 128.204 21.36 128.636 20.592L132.452 22.464C132.068 23.4 131.468 24.228 130.652 24.948C129.836 25.668 128.864 26.232 127.736 26.64C126.632 27.048 125.408 27.252 124.064 27.252ZM136.819 26.82V7.23601H141.247V11.592L140.887 10.944C141.343 9.48001 142.051 8.46001 143.011 7.88401C143.995 7.30801 145.171 7.02001 146.539 7.02001H147.691V11.196H145.999C144.655 11.196 143.575 11.616 142.759 12.456C141.943 13.272 141.535 14.424 141.535 15.912V26.82H136.819ZM150.284 26.82V7.23601H154.712V11.088L154.352 10.404C154.808 9.22801 155.552 8.34001 156.584 7.74001C157.64 7.11601 158.864 6.80401 160.256 6.80401C161.696 6.80401 162.968 7.11601 164.072 7.74001C165.2 8.36401 166.076 9.24001 166.7 10.368C167.324 11.472 167.636 12.756 167.636 14.22V26.82H162.92V15.336C162.92 14.472 162.752 13.728 162.416 13.104C162.08 12.48 161.612 12 161.012 11.664C160.436 11.304 159.752 11.124 158.96 11.124C158.192 11.124 157.508 11.304 156.908 11.664C156.308 12 155.84 12.48 155.504 13.104C155.168 13.728 155 14.472 155 15.336V26.82H150.284Z" fill="#678DE5"/>
</svg>
