<svg width="1440" height="1024" viewBox="0 0 1440 1024" fill="none" xmlns="http://www.w3.org/2000/svg">
<g clip-path="url(#clip0_237_17)">
<rect width="1440" height="1024" fill="#942424"/>
<rect width="1440" height="1024" fill="white"/>
<path d="M-163.2 1009.47C-167.413 1019.49 -175.489 1069.69 -179 1093.54V1094.43V1096.22L-175.99 1101.59L-170.724 1105.16C-169.47 1106.06 -166.209 1108.2 -163.2 1109.63C-160.19 1111.07 -150.91 1113.81 -146.647 1115H-107.522H1507.88L1526.69 1113.21L1534.21 1106.95L1539.48 1098.9L1543.99 1089.96L1547 1084.59V1076.55V1070.29V19.4946C1546.5 9.35931 1545.34 -11.4478 1544.74 -13.5941C1544.14 -15.7404 1542.49 -19.258 1541.73 -20.7485L1536.47 -30.5856C1535.21 -32.6723 1532.4 -37.2034 1531.2 -38.6343C1529.69 -40.4228 1527.44 -44 1525.93 -44H1518.41H1513.14H986.464V-35.0571V-21.6427C986.464 -18.781 985.461 -10.9113 984.959 -7.3341L981.197 12.3403C980.445 16.2155 978.789 25.0392 978.187 29.3318C977.585 33.6244 975.93 42.448 975.178 46.3233L969.159 64.2091C967.654 69.5748 964.193 81.2006 962.387 84.7778C960.581 88.3549 958.625 95.8073 957.873 99.0864L947.339 136.647L929.282 190.304L914.986 221.604C906.96 232.932 890.006 257.018 886.395 262.742C882.783 268.465 873.855 281.223 869.842 286.887L808.898 345.016L770.526 382.576L742.687 408.511C736.919 414.473 721.921 429.795 708.077 443.388C690.772 460.38 694.534 461.274 690.772 465.745C687.762 469.323 676.476 489.295 671.209 498.834L653.904 531.923C649.891 540.568 641.113 559.646 638.104 566.8C635.094 573.954 630.329 587.667 628.323 593.629L611.017 645.498L601.989 665.172L584.684 696.472L569.636 717.935C565.874 723.301 557.296 735.821 553.083 742.975C548.869 750.13 525.244 763.246 513.958 768.91C502.171 770.996 476.037 775.885 465.805 778.747C455.572 781.609 447.998 779.939 445.49 778.747H423.67H390.565H365.736C355.453 777.555 333.533 775.17 328.116 775.17C322.699 775.17 293.255 770.996 279.21 768.91C275.699 767.419 267.473 764.438 262.657 764.438H255.133H245.352H230.304H211.494H192.684H157.322C145.534 765.631 118.047 768.194 102.397 768.91C86.7468 769.625 68.288 776.958 61.0148 780.535C54.7448 782.324 40.7001 786.438 34.6809 788.584C28.6617 790.73 16.1218 796.633 10.6042 799.316L-24.7585 819.884L-57.1116 849.396L-97.7411 887.85L-133.104 944.191C-141.38 961.778 -158.986 999.458 -163.2 1009.47Z" fill="#D9D9D9"/>
<path d="M-163.2 1009.47C-167.413 1019.49 -175.489 1069.69 -179 1093.54V1094.43V1096.22L-175.99 1101.59L-170.724 1105.16C-169.47 1106.06 -166.209 1108.2 -163.2 1109.63C-160.19 1111.07 -150.91 1113.81 -146.647 1115H-107.522H1507.88L1526.69 1113.21L1534.21 1106.95L1539.48 1098.9L1543.99 1089.96L1547 1084.59V1076.55V1070.29V19.4946C1546.5 9.35931 1545.34 -11.4478 1544.74 -13.5941C1544.14 -15.7404 1542.49 -19.258 1541.73 -20.7485L1536.47 -30.5856C1535.21 -32.6723 1532.4 -37.2034 1531.2 -38.6343C1529.69 -40.4228 1527.44 -44 1525.93 -44H1518.41H1513.14H986.464V-35.0571V-21.6427C986.464 -18.781 985.461 -10.9113 984.959 -7.3341L981.197 12.3403C980.445 16.2155 978.789 25.0392 978.187 29.3318C977.585 33.6244 975.93 42.448 975.178 46.3233L969.159 64.2091C967.654 69.5748 964.193 81.2006 962.387 84.7778C960.581 88.3549 958.625 95.8073 957.873 99.0864L947.339 136.647L929.282 190.304L914.986 221.604C906.96 232.932 890.006 257.018 886.395 262.742C882.783 268.465 873.855 281.223 869.842 286.887L808.898 345.016L770.526 382.576L742.687 408.511C736.919 414.473 721.921 429.795 708.077 443.388C690.772 460.38 694.534 461.274 690.772 465.745C687.762 469.323 676.476 489.295 671.209 498.834L653.904 531.923C649.891 540.568 641.113 559.646 638.104 566.8C635.094 573.954 630.329 587.667 628.323 593.629L611.017 645.498L601.989 665.172L584.684 696.472L569.636 717.935C565.874 723.301 557.296 735.821 553.083 742.975C548.869 750.13 525.244 763.246 513.958 768.91C502.171 770.996 476.037 775.885 465.805 778.747C455.572 781.609 447.998 779.939 445.49 778.747H423.67H390.565H365.736C355.453 777.555 333.533 775.17 328.116 775.17C322.699 775.17 293.255 770.996 279.21 768.91C275.699 767.419 267.473 764.438 262.657 764.438H255.133H245.352H230.304H211.494H192.684H157.322C145.534 765.631 118.047 768.194 102.397 768.91C86.7468 769.625 68.288 776.958 61.0148 780.535C54.7448 782.324 40.7001 786.438 34.6809 788.584C28.6617 790.73 16.1218 796.633 10.6042 799.316L-24.7585 819.884L-57.1116 849.396L-97.7411 887.85L-133.104 944.191C-141.38 961.778 -158.986 999.458 -163.2 1009.47Z" fill="#527FE8" fill-opacity="0.85"/>
<path d="M-163.2 1009.47C-167.413 1019.49 -175.489 1069.69 -179 1093.54V1094.43V1096.22L-175.99 1101.59L-170.724 1105.16C-169.47 1106.06 -166.209 1108.2 -163.2 1109.63C-160.19 1111.07 -150.91 1113.81 -146.647 1115H-107.522H1507.88L1526.69 1113.21L1534.21 1106.95L1539.48 1098.9L1543.99 1089.96L1547 1084.59V1076.55V1070.29V19.4946C1546.5 9.35931 1545.34 -11.4478 1544.74 -13.5941C1544.14 -15.7404 1542.49 -19.258 1541.73 -20.7485L1536.47 -30.5856C1535.21 -32.6723 1532.4 -37.2034 1531.2 -38.6343C1529.69 -40.4228 1527.44 -44 1525.93 -44H1518.41H1513.14H986.464V-35.0571V-21.6427C986.464 -18.781 985.461 -10.9113 984.959 -7.3341L981.197 12.3403C980.445 16.2155 978.789 25.0392 978.187 29.3318C977.585 33.6244 975.93 42.448 975.178 46.3233L969.159 64.2091C967.654 69.5748 964.193 81.2006 962.387 84.7778C960.581 88.3549 958.625 95.8073 957.873 99.0864L947.339 136.647L929.282 190.304L914.986 221.604C906.96 232.932 890.006 257.018 886.395 262.742C882.783 268.465 873.855 281.223 869.842 286.887L808.898 345.016L770.526 382.576L742.687 408.511C736.919 414.473 721.921 429.795 708.077 443.388C690.772 460.38 694.534 461.274 690.772 465.745C687.762 469.323 676.476 489.295 671.209 498.834L653.904 531.923C649.891 540.568 641.113 559.646 638.104 566.8C635.094 573.954 630.329 587.667 628.323 593.629L611.017 645.498L601.989 665.172L584.684 696.472L569.636 717.935C565.874 723.301 557.296 735.821 553.083 742.975C548.869 750.13 525.244 763.246 513.958 768.91C502.171 770.996 476.037 775.885 465.805 778.747C455.572 781.609 447.998 779.939 445.49 778.747H423.67H390.565H365.736C355.453 777.555 333.533 775.17 328.116 775.17C322.699 775.17 293.255 770.996 279.21 768.91C275.699 767.419 267.473 764.438 262.657 764.438H255.133H245.352H230.304H211.494H192.684H157.322C145.534 765.631 118.047 768.194 102.397 768.91C86.7468 769.625 68.288 776.958 61.0148 780.535C54.7448 782.324 40.7001 786.438 34.6809 788.584C28.6617 790.73 16.1218 796.633 10.6042 799.316L-24.7585 819.884L-57.1116 849.396L-97.7411 887.85L-133.104 944.191C-141.38 961.778 -158.986 999.458 -163.2 1009.47Z" stroke="#527FE8" stroke-opacity="0.85"/>
</g>
<defs>
<clipPath id="clip0_237_17">
<rect width="1440" height="1024" fill="white"/>
</clipPath>
</defs>
</svg>
