<svg width="40" height="40" viewBox="0 0 40 40" fill="none" xmlns="http://www.w3.org/2000/svg">
<g clip-path="url(#clip0_72_113)">
<path fill-rule="evenodd" clip-rule="evenodd" d="M14.7664 22.8917C15.7331 21.875 16.6831 20.9067 17.5681 20.14C18.2431 20.3217 18.9381 20.4233 19.6348 20.44C19.6984 20.4448 19.7624 20.4369 19.8229 20.4168C19.8835 20.3967 19.9395 20.3648 19.9877 20.323C20.0359 20.2811 20.0753 20.2302 20.1037 20.173C20.1321 20.1159 20.1489 20.0537 20.1531 19.99C20.1576 19.9273 20.1495 19.8644 20.1291 19.805C20.1087 19.7456 20.0765 19.6909 20.0345 19.6442C19.9925 19.5975 19.9415 19.5598 19.8846 19.5333C19.8276 19.5068 19.7659 19.4921 19.7031 19.49C15.9514 19.14 14.1998 16.82 14.1498 14.3867C14.6664 14.66 15.2331 14.83 15.8164 14.8867C16.0898 14.9278 16.362 14.9278 16.6331 14.8867C16.9109 14.8489 17.1781 14.7767 17.4348 14.67C18.0798 14.436 18.6537 14.0399 19.1014 13.52C19.1014 13.52 19.1014 13.3867 19.2014 13.32C19.4103 13.4533 19.6276 13.57 19.8531 13.67C20.4281 13.9383 21.0331 14.14 21.6531 14.27C22.8364 14.49 24.0481 14.5183 25.2398 14.3533C25.3829 15.6181 25.0383 16.8899 24.2762 17.9094C23.514 18.9289 22.3917 19.6194 21.1381 19.84C20.995 19.8568 20.8642 19.929 20.7738 20.0412C20.6835 20.1534 20.6407 20.2966 20.6548 20.44C20.6755 20.5845 20.7512 20.7154 20.8661 20.8054C20.981 20.8954 21.1262 20.9377 21.2714 20.9233C22.0815 20.8411 22.8681 20.6034 23.5881 20.2233C24.1659 20.8433 24.6826 21.51 25.1381 22.2233C25.4048 22.6233 25.6564 23.0233 25.9064 23.44C26.1564 23.8567 26.3731 24.275 26.5898 24.7083C26.8498 25.2061 27.0776 25.7172 27.2731 26.2417C27.6231 26.8433 28.4748 26.96 28.8248 25.9083C28.6914 24.8083 28.5248 25.0083 28.1914 24.0417C28.0062 23.518 27.7776 23.0107 27.5081 22.525C27.2418 22.0318 26.9173 21.5724 26.5414 21.1567C25.9615 20.5234 25.306 19.9637 24.5898 19.49C25.3639 18.7416 25.958 17.8273 26.3276 16.816C26.6971 15.8048 26.8323 14.7228 26.7231 13.6517C26.7236 12.7756 26.5513 11.9081 26.2163 11.0986C25.8812 10.2892 25.3899 9.55373 24.7705 8.93428C24.151 8.31483 23.4156 7.82353 22.6061 7.48849C21.7967 7.15345 20.9292 6.98122 20.0531 6.98166C18.1559 6.90372 16.3046 7.57841 14.9024 8.85885C13.5003 10.1393 12.6607 11.9218 12.5664 13.8183C12.5163 15.0606 12.8449 16.2888 13.5086 17.3401C14.1724 18.3914 15.14 19.2161 16.2831 19.705C15.3098 20.2767 14.3881 20.935 13.5331 21.6733C12.7723 22.3313 12.11 23.0952 11.5664 23.9417C11.0294 24.7198 10.7491 25.6463 10.7648 26.5917C10.7648 27.3767 11.7314 27.81 11.8648 27.1767C11.9981 26.0267 12.3481 25.9267 13.0481 24.96C13.5837 24.2378 14.1564 23.5483 14.7664 22.8917ZM20.0531 8.89999C21.2565 8.84633 22.4366 9.24399 23.3622 10.0151C24.2877 10.7861 24.8919 11.875 25.0564 13.0683C24.0376 13.028 23.0285 12.8543 22.0548 12.5517C21.0675 12.2352 20.1299 11.7807 19.2698 11.2017C18.5519 10.7368 17.9014 10.1754 17.3364 9.53333C18.1903 9.14209 19.1142 8.92671 20.0531 8.89999ZM16.2348 10.1333C16.7014 11.0767 17.3531 11.9167 18.1514 12.6017L18.2348 12.685C18.017 12.7819 17.7871 12.8492 17.5514 12.885C17.2792 12.9017 17.007 12.9017 16.7348 12.885L15.9181 13.0017C15.3729 13.1492 14.8148 13.2441 14.2514 13.285C14.4982 12.025 15.2053 10.9004 16.2348 10.1333Z" fill="#020202"/>
<path fill-rule="evenodd" clip-rule="evenodd" d="M26.2066 29.4618C26.2555 29.3845 26.2815 29.2949 26.2815 29.2034C26.2815 29.112 26.2555 29.0224 26.2066 28.9451C25.8066 28.2951 24.8733 29.1784 23.8233 29.4284C22.8833 29.6429 21.9322 29.7818 20.97 29.8451C18.5164 30.0595 16.0448 29.7819 13.7 29.0284C12.5152 28.671 11.3909 28.1372 10.365 27.4451C9.37709 26.806 8.48439 26.0305 7.71331 25.1418C6.33829 23.4384 5.42948 21.407 5.07595 19.2467C4.72242 17.0864 4.9363 14.8712 5.69664 12.8184C6.34971 10.7341 7.43595 8.81127 8.88415 7.17609C10.3323 5.5409 12.1098 4.23027 14.1 3.33011C15.3235 2.80699 16.5974 2.41048 17.9016 2.14678C19.1537 1.86222 20.4422 1.77228 21.7216 1.88011C25.2166 2.36011 28.3883 4.18511 30.56 6.96511C32.784 9.75555 33.9945 13.2185 33.9933 16.7868C33.9764 18.1697 33.8031 19.5462 33.4766 20.8901C33.1692 22.2265 32.603 23.4897 31.81 24.6084C31.0528 25.4732 30.2279 26.2763 29.3433 27.0101C28.5932 27.4153 27.8789 27.8836 27.2083 28.4101C27.1604 28.5037 27.1395 28.6089 27.1479 28.7137C27.1564 28.8185 27.1938 28.919 27.2561 29.0037C27.3184 29.0885 27.403 29.1543 27.5005 29.1936C27.5981 29.233 27.7046 29.2445 27.8083 29.2268C29.7149 28.2663 31.4148 26.9413 32.8116 25.3268C33.7283 24.1101 34.3783 22.7101 34.7116 21.2234C35.1029 19.7811 35.3211 18.2973 35.3616 16.8034C35.453 12.8933 34.1933 9.07131 31.795 5.98178C29.4354 2.80472 25.9159 0.688848 22.0033 0.0951127C20.5184 -0.0763641 19.0158 -0.0145052 17.55 0.278446C16.1215 0.565042 14.7255 0.994996 13.3833 1.56178C11.1417 2.57252 9.14344 4.05303 7.5237 5.90309C5.90396 7.75316 4.70057 9.9296 3.99498 12.2851C3.19538 14.6226 3.02548 17.1294 3.50238 19.5534C3.97928 21.9774 5.08615 24.2331 6.71164 26.0934C8.58079 27.9794 10.8657 29.4012 13.3833 30.2451C15.9186 30.8987 18.5454 31.124 21.155 30.9118C22.1659 30.819 23.1686 30.6519 24.155 30.4118C24.8628 30.1451 25.5466 29.8284 26.2066 29.4618Z" fill="#0C6FFF"/>
<path fill-rule="evenodd" clip-rule="evenodd" d="M36.7298 35.1484C36.5549 34.3284 36.1767 33.5656 35.6298 32.93C34.9448 32.1134 34.0448 31.4634 33.2765 30.7134C32.5081 29.9634 32.0431 29.445 31.4098 28.845C31.2252 28.6657 31.0243 28.5039 30.8098 28.3617C30.7167 28.2625 30.5919 28.1989 30.457 28.182C30.322 28.1651 30.1853 28.1959 30.0707 28.269C29.956 28.3422 29.8705 28.4531 29.8289 28.5826C29.7874 28.7122 29.7924 28.8521 29.8431 28.9784C30.1098 29.1884 30.3487 29.4272 30.5598 29.695C31.1431 30.3284 31.6931 31.0284 32.2265 31.6617C32.7598 32.295 33.7098 33.0967 34.3265 33.9134C34.6665 34.3634 34.8915 34.8917 34.9781 35.4467C35.0056 35.9294 34.8824 36.4086 34.6256 36.8183C34.3688 37.2279 33.9912 37.5477 33.5448 37.7334C33.1396 38.014 32.6637 38.1753 32.1714 38.1989C31.6791 38.2224 31.19 38.1073 30.7598 37.8667C30.4007 37.5891 30.0811 37.2639 29.8098 36.9C29.3625 36.2388 28.9611 35.5477 28.6081 34.8317C28.0081 33.6984 27.4081 32.5634 26.9415 31.3784C26.6915 30.8117 26.7581 30.995 26.5248 30.4117C26.2915 29.8284 25.4231 30.4117 25.6065 30.845C25.8565 31.6284 25.8065 31.6617 26.0898 32.4284C26.4731 33.4634 26.8898 34.4817 27.3398 35.4984C27.6654 36.3028 28.0431 37.0806 28.4731 37.8317C28.8165 38.3917 29.2498 38.8884 29.7581 39.3C30.4665 39.7572 31.2917 40.0003 32.1348 40.0003C32.9779 40.0003 33.8031 39.7572 34.5115 39.3C35.2674 38.9251 35.8873 38.3235 36.2847 37.5792C36.6822 36.8349 36.8388 35.9851 36.7298 35.1484ZM20.4865 22.4917C20.4938 22.3949 20.4707 22.2983 20.4205 22.2153C20.3703 22.1322 20.2955 22.0669 20.2065 22.0284C20.1473 22.0037 20.0839 21.9907 20.0198 21.99C19.9242 21.9868 19.8298 22.0119 19.7485 22.0624C19.6672 22.1128 19.6027 22.1862 19.5631 22.2734C19.5372 22.3312 19.5225 22.3934 19.5198 22.4567C19.3698 23.0567 19.1865 23.6234 19.0865 24.2584C19.0076 24.7664 19.0076 25.2836 19.0865 25.7917C19.1698 26.4084 19.3031 26.9934 19.4365 27.5934C19.4365 27.7392 19.4944 27.8791 19.5976 27.9823C19.7007 28.0854 19.8406 28.1434 19.9865 28.1434C20.1323 28.1434 20.2722 28.0854 20.3754 27.9823C20.4785 27.8791 20.5365 27.7392 20.5365 27.5934C20.5365 26.9934 20.7531 26.4267 20.8198 25.8267C20.8345 25.5714 20.8345 25.3154 20.8198 25.06C20.8365 24.8089 20.8365 24.5589 20.8198 24.31C20.7698 23.6584 20.6031 23.0917 20.4865 22.4917Z" fill="#020202"/>
</g>
<defs>
<clipPath id="clip0_72_113">
<rect width="40" height="40" fill="white"/>
</clipPath>
</defs>
</svg>
