<svg width="650" height="454" viewBox="0 0 650 454" fill="none" xmlns="http://www.w3.org/2000/svg">
<path d="M616.847 0.5H628.5H649.494L649.5 11.5V439V449L649 449.5L645.5 450.5C642.833 451.333 635.2 453.1 626 453.5C622 453.5 618.333 453.167 617 453C614.333 452.333 608.9 450.9 608.5 450.5C608.1 450.1 603 447.667 600.5 446.5L592 441.5L584 435.5L576.5 428.5C573.833 426 568.3 420.7 567.5 419.5C566.7 418.3 559.5 410 556 406L544 386L539 375.5L535 367L532.5 360L528 354L522.5 347L516.5 341.5L508.5 336.5L503.5 334.5L500 333.5L488 332H474.5L464.5 333L455 334.5L444.5 337.5C441.667 338.667 435.7 341.2 434.5 342C433.3 342.8 426.333 345 423 346L403.5 350C399.667 350.667 390 351.8 382 351C374 350.2 370 348.333 369 347.5L359.5 342L348.5 333C346 329.5 340.1 321 336.5 315C332 307.5 329 294 327 280C325 266 324 258 323 253.5C322 249 319 228 318.5 224C318 220 313.5 209 312 203C310.5 197 301.5 187 297 181.5C293.4 177.1 284.167 171.667 280 169.5C275.167 167.833 264.9 164.1 262.5 162.5C260.1 160.9 257.167 159.833 256 159.5L246 156.5L238.5 154.5C236.667 154 232.7 153 231.5 153C230.3 153 217.333 152.667 211 152.5H203.5H195L161.5 153H140.5H132L116 150C112.833 149.167 106.3 147.4 105.5 147C104.7 146.6 96.8333 144.167 93 143C88.6667 141 79.8 136.9 79 136.5C78.2 136.1 70 131.667 66 129.5L50.5 118L40.5 108L33.5 99.5L25.5 89L19.5 80L14.5 70C14.1 69.2 10.6667 59.3333 9 54.5C8.16667 51.5 6.4 45.3 6 44.5C5.6 43.7 4.5 39.5 4 37.5C3.5 34.5 2.4 28.1 2 26.5C1.5 24.5 0.5 16 0.5 15V6V0.5H87.5H347H559.648H598.812H616.847Z" fill="#678DE5"/>
<path d="M649.5 0.5L649.494 0.5M649.494 0.5C634.298 0.5 629.166 0.5 628.5 0.5H616.847H598.812H559.648H347H87.5H0.5C0.5 2.16667 0.5 5.6 0.5 6C0.5 6.5 0.5 14 0.5 15C0.5 16 1.5 24.5 2 26.5C2.4 28.1 3.5 34.5 4 37.5C4.5 39.5 5.6 43.7 6 44.5C6.4 45.3 8.16667 51.5 9 54.5C10.6667 59.3333 14.1 69.2 14.5 70C14.9 70.8 18 77 19.5 80L25.5 89L33.5 99.5L40.5 108L50.5 118L66 129.5C70 131.667 78.2 136.1 79 136.5C79.8 136.9 88.6667 141 93 143C96.8333 144.167 104.7 146.6 105.5 147C106.3 147.4 112.833 149.167 116 150L132 153H140.5H161.5L195 152.5C197.167 152.5 201.9 152.5 203.5 152.5C205.1 152.5 209.167 152.5 211 152.5C217.333 152.667 230.3 153 231.5 153C232.7 153 236.667 154 238.5 154.5L246 156.5L256 159.5C257.167 159.833 260.1 160.9 262.5 162.5C264.9 164.1 275.167 167.833 280 169.5C284.167 171.667 293.4 177.1 297 181.5C301.5 187 310.5 197 312 203C313.5 209 318 220 318.5 224C319 228 322 249 323 253.5C324 258 325 266 327 280C329 294 332 307.5 336.5 315C340.1 321 346 329.5 348.5 333L359.5 342L369 347.5C370 348.333 374 350.2 382 351C390 351.8 399.667 350.667 403.5 350L423 346C426.333 345 433.3 342.8 434.5 342C435.7 341.2 441.667 338.667 444.5 337.5L455 334.5L464.5 333L474.5 332H488L500 333.5L503.5 334.5L508.5 336.5L516.5 341.5L522.5 347L528 354L532.5 360L535 367L539 375.5L544 386L556 406C559.5 410 566.7 418.3 567.5 419.5C568.3 420.7 573.833 426 576.5 428.5L584 435.5L592 441.5L600.5 446.5C603 447.667 608.1 450.1 608.5 450.5C608.9 450.9 614.333 452.333 617 453C618.333 453.167 622 453.5 626 453.5C635.2 453.1 642.833 451.333 645.5 450.5L649 449.5L649.5 449V439V11.5L649.494 0.5Z" stroke="#6AA7F1"/>
</svg>
